<?xml version="1.0" encoding="UTF-8"?><svg id="Layer_1" xmlns="http://www.w3.org/2000/svg" viewBox="0 0 1072.76 237.43"><defs><style>.cls-1{fill:#215772;}.cls-2{fill:#fbe650;}</style></defs><path class="cls-2" d="M96.04,47.32h-37.16v17.23h34.7v28.98h-34.7v37.56H23.94V18.26h72.1v29.06Z"/><path class="cls-2" d="M189.65,131.08h-26.28l-1.51-6.04c-2.81,2.49-6.02,4.45-9.65,5.88-3.63,1.43-7.77,2.14-12.43,2.14s-9-.74-13.02-2.22c-4.02-1.48-7.52-3.71-10.48-6.67-2.96-2.96-5.29-6.71-6.99-11.24s-2.54-9.81-2.54-15.84v-47.96h33.51v44.23c0,2.44.24,4.43.71,6s1.11,2.81,1.91,3.73c.79.93,1.69,1.56,2.7,1.91,1,.35,2.04.52,3.1.52,1.32,0,2.58-.24,3.77-.71,1.19-.48,2.42-1.24,3.69-2.3v-53.36h33.51v81.94Z"/><path class="cls-2" d="M198.47,75.11v-25.96h8.89v-16.59l33.51-3.26v19.85h16.44v25.96h-16.44v21.68c0,2.81.62,4.8,1.87,6,1.24,1.19,3,1.79,5.28,1.79,1.53,0,2.96-.21,4.29-.63,1.32-.42,2.73-1.08,4.21-1.99l3.73,26.68c-3.12,1.54-6.47,2.66-10.04,3.37-3.57.71-7.27,1.07-11.08,1.07-10.43,0-18.33-2.71-23.7-8.14-5.37-5.42-8.06-13.83-8.06-25.21v-24.62h-8.89Z"/><path class="cls-2" d="M351.55,131.08h-26.28l-1.51-6.04c-2.81,2.49-6.02,4.45-9.65,5.88-3.63,1.43-7.77,2.14-12.43,2.14s-9-.74-13.02-2.22c-4.02-1.48-7.52-3.71-10.48-6.67-2.96-2.96-5.29-6.71-6.99-11.24s-2.54-9.81-2.54-15.84v-47.96h33.51v44.23c0,2.44.24,4.43.71,6s1.11,2.81,1.91,3.73c.79.93,1.69,1.56,2.7,1.91,1,.35,2.04.52,3.1.52,1.32,0,2.58-.24,3.77-.71,1.19-.48,2.42-1.24,3.69-2.3v-53.36h33.51v81.94Z"/><path class="cls-2" d="M365.21,49.14h26.36l1.91,8.26c1.16-1.48,2.39-2.86,3.69-4.13,1.3-1.27,2.67-2.35,4.13-3.25,1.46-.9,3.03-1.6,4.72-2.1,1.69-.5,3.49-.75,5.4-.75,1.53,0,2.92.12,4.17.36,1.24.24,2.45.62,3.61,1.15l-2.14,29.22c-1.11-.42-2.24-.74-3.37-.95-1.14-.21-2.29-.32-3.45-.32s-2.28.13-3.33.4c-1.06.27-2.06.66-3.02,1.19-.95.53-1.85,1.15-2.7,1.87-.85.71-1.67,1.52-2.46,2.42v48.59h-33.51V49.14Z"/><path class="cls-2" d="M502.97,126.4c-4.82,2.22-9.98,3.89-15.48,5-5.51,1.11-11.3,1.67-17.39,1.67-7.46,0-14.12-.94-19.97-2.82-5.85-1.88-10.79-4.61-14.81-8.18-4.02-3.57-7.09-7.97-9.21-13.18-2.12-5.21-3.18-11.16-3.18-17.83s.98-12.7,2.94-18.1c1.96-5.4,4.75-10.02,8.38-13.86,3.63-3.84,8.03-6.79,13.22-8.85,5.19-2.06,11.01-3.1,17.47-3.1,5.82,0,11.04.87,15.64,2.62,4.61,1.75,8.51,4.35,11.71,7.82,3.2,3.47,5.65,7.81,7.34,13.02,1.69,5.21,2.54,11.29,2.54,18.22,0,1.43-.04,2.87-.12,4.33-.08,1.46-.25,3.08-.52,4.88h-45.89v.16c.63,1.96,1.46,3.61,2.46,4.96,1,1.35,2.28,2.44,3.81,3.26,1.53.82,3.33,1.42,5.4,1.79,2.06.37,4.47.56,7.22.56,3.97,0,7.89-.49,11.75-1.47,3.86-.98,7.52-2.37,10.96-4.17l5.72,23.26ZM471.77,79.79c-.11-1.89-.34-3.54-.71-4.93-.37-1.39-.89-2.55-1.55-3.47-.66-.92-1.44-1.6-2.34-2.05-.9-.45-1.93-.67-3.1-.67s-2.12.22-3.02.67c-.9.45-1.71,1.13-2.42,2.05-.71.92-1.34,2.08-1.87,3.47-.53,1.39-.95,3.04-1.27,4.93h16.28Z"/><path class="cls-2" d="M555.14,18.26c2.75-.11,5.28-.21,7.58-.32,2.3-.11,4.54-.19,6.71-.24,2.17-.05,4.37-.09,6.59-.12,2.22-.03,4.61-.04,7.15-.04,12.12,0,22.91,1.26,32.36,3.77,9.45,2.51,17.39,6.14,23.82,10.88,6.43,4.74,11.33,10.53,14.69,17.39,3.36,6.86,5.04,14.62,5.04,23.3,0,9.26-1.76,17.54-5.28,24.81-3.52,7.28-8.55,13.45-15.09,18.5-6.54,5.06-14.49,8.91-23.86,11.55-9.37,2.65-19.93,3.97-31.68,3.97-2.54,0-4.92-.01-7.15-.04-2.22-.03-4.42-.07-6.59-.12-2.17-.05-4.41-.12-6.71-.2-2.3-.08-4.83-.17-7.58-.28V18.26ZM590.07,101.79h1.27c4.83,0,9.22-.62,13.17-1.87,3.95-1.24,7.31-3.06,10.07-5.44,2.76-2.38,4.89-5.31,6.41-8.77,1.51-3.47,2.27-7.42,2.27-11.87,0-4.18-.69-7.91-2.07-11.2-1.38-3.28-3.42-6.05-6.13-8.3-2.71-2.25-6.05-3.96-10.03-5.12-3.98-1.16-8.54-1.75-13.69-1.75h-1.27v54.31Z"/><path class="cls-2" d="M687.18,5.55c2.81,0,5.4.46,7.78,1.39,2.38.93,4.45,2.22,6.19,3.89,1.75,1.67,3.11,3.64,4.09,5.92.98,2.28,1.47,4.76,1.47,7.46s-.49,5.2-1.47,7.5c-.98,2.3-2.34,4.29-4.09,5.96-1.75,1.67-3.81,2.97-6.19,3.89-2.38.93-4.98,1.39-7.78,1.39s-5.4-.46-7.78-1.39c-2.38-.92-4.45-2.22-6.19-3.89-1.75-1.67-3.11-3.65-4.09-5.96-.98-2.3-1.47-4.8-1.47-7.5s.49-5.19,1.47-7.46c.98-2.28,2.34-4.25,4.09-5.92,1.75-1.67,3.81-2.96,6.19-3.89,2.38-.93,4.98-1.39,7.78-1.39ZM670.43,49.14h33.51v81.94h-33.51V49.14Z"/><path class="cls-2" d="M906.9,127.03c-4.82,2.22-9.98,3.89-15.48,5-5.51,1.11-11.3,1.67-17.39,1.67-7.46,0-14.12-.94-19.97-2.82-5.85-1.88-10.79-4.61-14.81-8.18-4.02-3.57-7.09-7.97-9.21-13.18s-3.18-11.16-3.18-17.83.98-12.71,2.94-18.1c1.96-5.4,4.75-10.02,8.38-13.86s8.03-6.79,13.22-8.85c5.19-2.06,11.01-3.1,17.47-3.1,5.82,0,11.04.87,15.64,2.62,4.61,1.75,8.51,4.35,11.71,7.82,3.2,3.47,5.65,7.81,7.34,13.02,1.69,5.21,2.54,11.29,2.54,18.22,0,1.43-.04,2.87-.12,4.33-.08,1.46-.25,3.08-.52,4.88h-45.89v.16c.63,1.96,1.46,3.61,2.46,4.96,1,1.35,2.28,2.43,3.81,3.25,1.53.82,3.33,1.42,5.4,1.79,2.06.37,4.47.56,7.22.56,3.97,0,7.89-.49,11.75-1.47,3.86-.98,7.52-2.37,10.96-4.17l5.72,23.26ZM875.7,80.42c-.11-1.89-.34-3.54-.71-4.93-.37-1.39-.89-2.55-1.55-3.47s-1.44-1.6-2.34-2.05c-.9-.45-1.93-.67-3.1-.67s-2.12.22-3.02.67c-.9.45-1.71,1.13-2.42,2.05-.71.92-1.34,2.08-1.87,3.47-.53,1.39-.95,3.04-1.27,4.93h16.28Z"/><path class="cls-2" d="M922.31,104.88c3.65,2.01,7.11,3.49,10.36,4.45,3.26.95,6.52,1.43,9.81,1.43,1.32,0,2.41-.07,3.26-.2.85-.13,1.51-.33,1.99-.6.48-.26.81-.56.99-.87.18-.32.28-.69.28-1.11,0-.85-.48-1.57-1.43-2.18s-2.22-1.19-3.81-1.75c-1.59-.56-3.39-1.14-5.4-1.75-2.01-.61-4.08-1.36-6.19-2.26-2.12-.9-4.18-2-6.19-3.3-2.01-1.3-3.81-2.9-5.4-4.8-1.59-1.91-2.86-4.18-3.81-6.83-.95-2.65-1.43-5.77-1.43-9.37,0-4.23.86-8.06,2.58-11.47,1.72-3.41,4.19-6.31,7.42-8.69,3.23-2.38,7.12-4.22,11.67-5.52,4.55-1.3,9.69-1.95,15.4-1.95,4.66,0,9.12.45,13.38,1.35,4.26.9,8.19,2.2,11.79,3.89l-5.48,22.39c-3.02-1.53-6.11-2.7-9.29-3.49-3.18-.79-6.27-1.19-9.29-1.19-.9,0-1.68.05-2.34.16-.66.11-1.22.27-1.67.48-.45.21-.78.48-.99.79-.21.32-.32.71-.32,1.19,0,.79.48,1.46,1.43,1.99s2.22,1.06,3.81,1.59,3.39,1.08,5.4,1.67c2.01.58,4.08,1.32,6.19,2.22,2.12.9,4.18,2,6.19,3.29,2.01,1.3,3.81,2.93,5.4,4.88,1.59,1.96,2.86,4.29,3.81,6.99.95,2.7,1.43,5.88,1.43,9.53,0,4.29-.86,8.14-2.58,11.55-1.72,3.41-4.21,6.34-7.46,8.77-3.25,2.44-7.2,4.3-11.83,5.6-4.63,1.3-9.86,1.95-15.68,1.95-2.38,0-4.78-.12-7.19-.36-2.41-.24-4.79-.61-7.15-1.11-2.36-.5-4.65-1.14-6.87-1.91-2.22-.77-4.32-1.65-6.27-2.66l5.48-22.79Z"/><path class="cls-2" d="M985.67,75.74v-25.96h8.89v-16.6l33.51-3.25v19.85h16.44v25.96h-16.44v21.68c0,2.81.62,4.8,1.87,5.99,1.24,1.19,3,1.79,5.28,1.79,1.53,0,2.96-.21,4.29-.64,1.32-.42,2.73-1.08,4.21-1.99l3.73,26.68c-3.12,1.54-6.47,2.66-10.04,3.37-3.57.71-7.27,1.07-11.08,1.07-10.43,0-18.33-2.71-23.7-8.14-5.37-5.43-8.06-13.83-8.06-25.21v-24.61h-8.89Z"/><path class="cls-2" d="M787.72,121.66h-38.63v-7.23h40.64c13.35,0,24.18-10.82,24.18-24.18v-42.21h-.1v-14.3h-32.08v14.3h-32.64c-13.99,0-25.41,11.04-26.02,24.88h-.08v53.52c0,11.75,9.56,21.31,21.31,21.31h43.42c1.28,0,2.33,1.04,2.33,2.33v1.93c0,.8-.37,1.34-.69,1.65-.31.31-.86.64-1.65.68l-42.12-.21h-.11c-5.72,0-11.09,2.22-15.15,6.25-4.08,4.06-6.33,9.47-6.33,15.23v15.1h26.1v-10.45l37.48.19h.15c7.56,0,14.68-2.94,20.04-8.27,5.4-5.38,8.38-12.53,8.38-20.15v-1.93c0-15.67-12.75-28.43-28.43-28.43ZM758.99,76.65c0-2.67,2.17-4.84,4.84-4.84h10.15c2.67,0,4.84,2.17,4.84,4.84v11.41c0,2.67-2.17,4.84-4.84,4.84h-10.15c-2.67,0-4.84-2.17-4.84-4.84v-11.41Z"/><path class="cls-1" d="M33.67,164.59h-10.36v-6.16h27.76v6.16h-10.36v25.9h-7.04v-25.9Z"/><path class="cls-1" d="M54.52,156.66h6.73v13.59l.09.04c1.68-1.33,3.94-2.26,6.6-2.26,2.44,0,4.38.75,5.76,2.26,1.37,1.51,1.9,3.45,1.9,6.38v13.82h-6.73v-12.89c0-1.28-.22-2.26-.84-2.88-.62-.62-1.46-.88-2.52-.88-1.59,0-3.19.71-4.25,1.64v15.01h-6.73v-33.83Z"/><path class="cls-1" d="M92.12,190.98c-7.31,0-12.4-4.43-12.4-11.42s5.23-11.51,11.38-11.51c5.49,0,10.45,3.45,10.45,10.94,0,.75-.04,1.73-.13,2.3h-14.83c.66,3.01,3.14,4.38,6.38,4.38,2.48,0,5.09-.88,7.39-2.3v5.67c-2.08,1.24-5.31,1.95-8.24,1.95ZM95.35,177.12c-.35-2.7-2.17-3.94-4.34-3.94s-3.99,1.33-4.47,3.94h8.81Z"/><path class="cls-1" d="M116.56,158.43h20.33v6.16h-13.28v6.91h11.51v5.93h-11.51v13.06h-7.04v-32.06Z"/><path class="cls-1" d="M154.47,188.81l-.09-.04c-1.73,1.37-3.99,2.21-6.51,2.21s-4.47-.75-5.89-2.35c-1.42-1.59-1.95-3.41-1.95-6.46v-13.64h6.73v12.53c0,1.59.22,2.57.84,3.23.62.67,1.68.93,2.7.93,1.51,0,2.92-.66,4.07-1.51v-15.19h6.73v21.96h-6.64v-1.68Z"/><path class="cls-1" d="M164.74,168.53h3.63v-5.4l6.69-1.64v7.04h5.84v5.58h-5.84v7.75c0,2.3.97,3.5,2.97,3.5,1.02,0,2.08-.31,2.88-.62v5.31c-1.11.53-2.92.93-4.78.93-5.22,0-7.75-2.97-7.75-8.41v-8.46h-3.63v-5.58Z"/><path class="cls-1" d="M199.28,188.81l-.09-.04c-1.73,1.37-3.99,2.21-6.51,2.21s-4.47-.75-5.89-2.35c-1.42-1.59-1.95-3.41-1.95-6.46v-13.64h6.73v12.53c0,1.59.22,2.57.84,3.23.62.67,1.68.93,2.7.93,1.51,0,2.92-.66,4.07-1.51v-15.19h6.73v21.96h-6.64v-1.68Z"/><path class="cls-1" d="M211.5,168.53h6.6v2.92l.09.04c1.5-2.12,3.63-3.23,6.33-3.23.44,0,.93.04,1.42.18v6.33c-.53-.13-1.2-.22-1.82-.22-2.35,0-4.29.71-5.89,2.57v13.37h-6.73v-21.96Z"/><path class="cls-1" d="M240.06,190.98c-7.31,0-12.4-4.43-12.4-11.42s5.22-11.51,11.38-11.51c5.49,0,10.45,3.45,10.45,10.94,0,.75-.04,1.73-.13,2.3h-14.83c.66,3.01,3.14,4.38,6.38,4.38,2.48,0,5.09-.88,7.39-2.3v5.67c-2.08,1.24-5.31,1.95-8.24,1.95ZM243.3,177.12c-.35-2.7-2.17-3.94-4.34-3.94s-3.99,1.33-4.47,3.94h8.81Z"/><path class="cls-1" d="M263,179.51c0-6.47,5.18-11.47,12.13-11.47s12.13,5,12.13,11.47-5.18,11.47-12.13,11.47-12.13-5-12.13-11.47ZM280.54,179.51c0-3.14-2.35-5.67-5.4-5.67s-5.4,2.52-5.4,5.67,2.35,5.67,5.4,5.67,5.4-2.52,5.4-5.67Z"/><path class="cls-1" d="M292.67,174.11h-3.14v-5.58h3.14v-3.94c0-5.58,2.7-8.41,7.84-8.41,1.68,0,3.32.31,4.43.8v5.31c-.89-.22-1.95-.44-2.83-.44-2.13,0-2.75,1.15-2.75,3.28v3.41h5.14v5.58h-5.14v16.38h-6.69v-16.38Z"/><path class="cls-1" d="M326.02,176.1l-12.4-17.67h8.28l3.9,5.8c1.28,1.9,2.66,3.99,3.81,5.76h.09c1.15-1.81,2.48-3.81,3.81-5.8l3.85-5.76h8.01l-12.31,17.62v14.44h-7.04v-14.39Z"/><path class="cls-1" d="M340.54,179.51c0-6.47,5.18-11.47,12.13-11.47s12.13,5,12.13,11.47-5.18,11.47-12.13,11.47-12.13-5-12.13-11.47ZM358.08,179.51c0-3.14-2.35-5.67-5.4-5.67s-5.4,2.52-5.4,5.67,2.35,5.67,5.4,5.67,5.4-2.52,5.4-5.67Z"/><path class="cls-1" d="M383.45,188.81l-.09-.04c-1.73,1.37-3.99,2.21-6.51,2.21s-4.47-.75-5.89-2.35c-1.42-1.59-1.95-3.41-1.95-6.46v-13.64h6.73v12.53c0,1.59.22,2.57.84,3.23.62.67,1.68.93,2.7.93,1.51,0,2.92-.66,4.07-1.51v-15.19h6.73v21.96h-6.64v-1.68Z"/><path class="cls-1" d="M395.67,168.53h6.6v2.92l.09.04c1.5-2.12,3.63-3.23,6.33-3.23.44,0,.93.04,1.42.18v6.33c-.53-.13-1.2-.22-1.82-.22-2.35,0-4.29.71-5.89,2.57v13.37h-6.73v-21.96Z"/><path class="cls-1" d="M424.06,158.43h20.33v6.16h-13.28v6.91h11.51v5.93h-11.51v13.06h-7.04v-32.06Z"/><path class="cls-1" d="M463.56,190.93c-2.17,0-3.9-.71-4.92-1.99-1.46,1.11-3.63,2.04-6.29,2.04-4.43,0-7.66-2.39-7.66-6.69,0-4.74,3.54-6.86,9.03-6.86,1.2,0,2.57.09,3.76.31v-.8c0-2.3-1.55-3.28-4.69-3.28-2.61,0-4.83.71-6.24,1.46v-5.4c1.68-.93,4.38-1.68,7.62-1.68,6.11,0,9.96,2.57,9.96,8.15v7.75c0,.93.44,1.59,1.64,1.59.44,0,.8-.09,1.15-.27v5.05c-.89.35-2.08.62-3.37.62ZM457.49,185.13v-3.41c-.66-.13-1.77-.27-2.61-.27-1.99,0-3.63.62-3.63,2.39,0,1.59,1.2,2.26,2.92,2.26,1.28,0,2.61-.4,3.32-.97Z"/><path class="cls-1" d="M466.3,168.53h7.08l2.57,7.04c.84,2.35,1.68,4.74,2.44,7h.09c.8-2.26,1.73-4.74,2.61-7.04l2.7-7h6.64l-8.86,21.96h-6.42l-8.86-21.96Z"/><path class="cls-1" d="M491.1,179.51c0-6.47,5.18-11.47,12.13-11.47s12.13,5,12.13,11.47-5.18,11.47-12.13,11.47-12.13-5-12.13-11.47ZM508.64,179.51c0-3.14-2.35-5.67-5.4-5.67s-5.4,2.52-5.4,5.67,2.35,5.67,5.4,5.67,5.4-2.52,5.4-5.67Z"/><path class="cls-1" d="M519.58,168.53h6.6v2.92l.09.04c1.5-2.12,3.63-3.23,6.33-3.23.44,0,.93.04,1.42.18v6.33c-.53-.13-1.2-.22-1.82-.22-2.35,0-4.29.71-5.89,2.57v13.37h-6.73v-21.96Z"/><path class="cls-1" d="M536.8,161.8c0-2.12,1.77-3.85,3.9-3.85s3.9,1.73,3.9,3.85-1.77,3.85-3.9,3.85-3.9-1.73-3.9-3.85ZM537.33,168.53h6.73v21.96h-6.73v-21.96Z"/><path class="cls-1" d="M547.7,168.53h3.63v-5.4l6.69-1.64v7.04h5.84v5.58h-5.84v7.75c0,2.3.97,3.5,2.97,3.5,1.02,0,2.08-.31,2.88-.62v5.31c-1.11.53-2.92.93-4.78.93-5.22,0-7.75-2.97-7.75-8.41v-8.46h-3.63v-5.58Z"/><path class="cls-1" d="M578.47,190.98c-7.31,0-12.4-4.43-12.4-11.42s5.22-11.51,11.38-11.51c5.49,0,10.45,3.45,10.45,10.94,0,.75-.04,1.73-.13,2.3h-14.83c.66,3.01,3.14,4.38,6.38,4.38,2.48,0,5.09-.88,7.39-2.3v5.67c-2.08,1.24-5.31,1.95-8.24,1.95ZM581.7,177.12c-.35-2.7-2.17-3.94-4.34-3.94s-3.99,1.33-4.47,3.94h8.81Z"/><path class="cls-1" d="M602.91,158.43h20.33v6.16h-13.28v6.91h11.51v5.93h-11.51v13.06h-7.04v-32.06Z"/><path class="cls-1" d="M624.75,179.51c0-6.47,5.18-11.47,12.13-11.47s12.13,5,12.13,11.47-5.18,11.47-12.13,11.47-12.13-5-12.13-11.47ZM642.28,179.51c0-3.14-2.35-5.67-5.4-5.67s-5.4,2.52-5.4,5.67,2.35,5.67,5.4,5.67,5.4-2.52,5.4-5.67Z"/><path class="cls-1" d="M651.85,179.51c0-6.47,5.18-11.47,12.13-11.47s12.13,5,12.13,11.47-5.18,11.47-12.13,11.47-12.13-5-12.13-11.47ZM669.38,179.51c0-3.14-2.35-5.67-5.4-5.67s-5.4,2.52-5.4,5.67,2.35,5.67,5.4,5.67,5.4-2.52,5.4-5.67Z"/><path class="cls-1" d="M694.98,189.21l-.09-.04c-1.46,1.15-3.45,1.82-5.62,1.82-5.4,0-10.14-4.25-10.14-11.07s4.92-11.87,11.38-11.87c1.68,0,3.06.4,4.25.88l.09-.04v-12.22h6.73v33.83h-6.6v-1.28ZM694.85,184.2v-9.61c-.97-.53-2.12-.88-3.45-.88-3.63,0-5.49,2.75-5.49,5.98s1.86,5.8,5.22,5.8c1.51,0,2.75-.58,3.72-1.28Z"/></svg>