<?xml version="1.0" encoding="UTF-8"?><svg id="Layer_1" xmlns="http://www.w3.org/2000/svg" viewBox="0 0 514.77 185"><defs><style>.cls-1{fill:#59bce6;}</style></defs><path class="cls-1" d="M477.71,172.22c-.36,0-.36-.13-.72-.13s-.36-.18-.72-.18-.36-.05-.72-.05-.36.13-.72.13-.36-.18-.72-.18-.36-.02-.72-.02-.36.39-.72.39-.36-.64-.72-.64-.36.26-.72.26-.36-.15-.72-.15-.36.36-.72.36-.36.23-.72.23-.36-.25-.72-.25-.36-.39-.72-.39-.36.22-.72.22-.36-.22-.72-.22-.36-.04-.72-.04-.36.56-.72.56-.36-.41-.72-.41-.36.03-.72.03-.36-.17-.72-.17-.36.43-.72.43-.36-.05-.72-.05-.36.07-.72.07-.36-.24-.72-.24-.36-.03-.72-.03-.36.46-.72.46-.36-.1-.72-.1-.36-.34-.72-.34-.36.41-.72.41-.36.05-.72.05-.36.02-.72.02-.36-.3-.72-.3-.36-.27-.72-.27-.36.49-.72.49-.36-.42-.72-.42-.36.39-.72.39-.36-.14-.72-.14-.36-.31-.72-.31-.36.14-.72.14-.36.29-.72.29-.36-.49-.72-.49-.36.19-.72.19-.36.02-.72.02-.36-.05-.72-.05-.36-.1-.72-.1-.36.55-.72.55-.36-.27-.72-.27-.36-.26-.72-.26-.36.35-.72.35-.36-.48-.72-.48-.36.65-.72.65-.36-.54-.72-.54-.36-.02-.72-.02-.36.24-.72.24-.36-.34-.72-.34-.36.21-.72.21-.36-.09-.72-.09-.36.41-.72.41-.36-.27-.72-.27-.36,0-.72,0-.36-.02-.72-.02-.36.35-.72.35-.36-.23-.72-.23-.36.03-.72.03-.36.06-.72.06-.36-.37-.72-.37-.36.26-.72.26-.36.31-.72.31-.36-.1-.72-.1-.36-.06-.72-.06-.36.19-.72.19-.36-.09-.72-.09-.36-.05-.72-.05-.36-.03-.72-.03-.36-.42-.72-.42-.36.04-.72.04-.36.51-.72.51-.36-.05-.72-.05-.36-.53-.72-.53-.36.19-.72.19-.36.12-.72.12-.36.16-.72.16-.36-.45-.72-.45-.36.38-.72.38-.36.14-.72.14-.36-.45-.72-.45-.36.19-.72.19-.36-.07-.72-.07-.36-.27-.72-.27-.36.38-.72.38-.36-.23-.72-.23-.36.05-.72.05-.36.4-.72.4-.36-.11-.72-.11-.36-.11-.72-.11-.36-.15-.72-.15-.36.05-.72.05-.36.05-.72.05-.36-.16-.72-.16-.36.29-.72.29-.36.08-.72.08-.36-.31-.72-.31-.36.32-.72.32-.36-.04-.72-.04-.36-.46-.72-.46-.36.43-.72.43-.36-.23-.72-.23-.36.1-.72.1-.36.14-.72.14-.36-.28-.72-.28-.36-.21-.72-.21-.36.44-.72.44-.36.15-.72.15-.36-.37-.72-.37-.36.1-.72.1-.36-.16-.72-.16-.36.48-.72.48-.36-.19-.72-.19-.36-.46-.72-.46-.36.61-.72.61-.36-.45-.72-.45-.36.15-.72.15-.36.13-.72.13-.36.02-.72.02-.36-.04-.72-.04-.36-.24-.72-.24-.36.39-.72.39-.36-.17-.72-.17-.36-.37-.72-.37-.36.33-.72.33-.36.2-.72.2-.36-.13-.72-.13-.36-.44-.72-.44-.36.65-.72.65-.36-.21-.72-.21-.36.13-.72.13-.36.13-.72.13-.36-.28-.72-.28-.36-.05-.72-.05-.36-.26-.72-.26-.36.25-.72.25-.36.02-.72.02-.36-.07-.72-.07-.36-.15-.72-.15-.36-.07-.72-.07-.36-.09-.72-.09-.36.56-.72.56-.36-.32-.72-.32-.36-.23-.72-.23-.36.34-.72.34-.36-.18-.72-.18-.36-.12-.72-.12-.36.09-.72.09-.36.53-.72.53-.36-.59-.72-.59-.36.38-.72.38-.36-.27-.72-.27-.36-.12-.72-.12-.36.5-.72.5-.36-.52-.72-.52-.36.02-.72.02-.36.08-.72.08-.36.29-.72.29-.36-.41-.72-.41-.36.29-.72.29-.36-.25-.72-.25-.36-.06-.72-.06-.36.34-.72.34-.36-.12-.72-.12-.36-.17-.72-.17-.36.11-.72.11-.36.28-.72.28-.36.11-.72.11-.36-.17-.72-.17-.36-.22-.72-.22-.36.23-.72.23-.36-.39-.72-.39-.36.36-.72.36-.36-.2-.72-.2-.36-.15-.72-.15-.36.26-.72.26-.36,0-.72,0-.36.17-.72.17-.36,0-.72,0-.36-.17-.72-.17-.36-.31-.72-.31-.36.42-.72.42-.36-.3-.72-.3-.36-.01-.72-.01-.36.44-.72.44-.36.04-.72.04-.36.04-.72.04-.36-.48-.72-.48-.36-.12-.72-.12-.36.37-.72.37-.36.26-.72.26-.36-.16-.72-.16-.36-.05-.72-.05-.36-.12-.72-.12-.36.09-.72.09-.36-.25-.72-.25-.36.17-.72.17-.36.13-.72.13-.36-.28-.72-.28-.36.27-.72.27-.36-.18-.72-.18-.36-.15-.72-.15-.36.07-.72.07-.36-.09-.72-.09-.36-.09-.72-.09-.36.22-.72.22-.36-.16-.72-.16-.36.56-.72.56-.36-.62-.72-.62-.36.35-.72.35-.36-.14-.72-.14-.36.04-.72.04-.36.4-.72.4-.36-.59-.72-.59-.36.44-.72.44-.36.19-.72.19-.36-.25-.72-.25-.36.2-.72.2-.36-.62-.72-.62-.36.62-.72.62-.36-.12-.72-.12-.36-.1-.72-.1-.36.07-.72.07-.36-.04-.72-.04-.36.15-.72.15-.36.05-.72.05-.36-.15-.72-.15-.36-.12-.72-.12-.36-.33-.72-.33-.36.54-.72.54-.36-.08-.72-.08-.36-.19-.72-.19-.36.25-.72.25-.36-.17-.72-.17-.36.27-.72.27-.36-.64-.72-.64-.36.63-.72.63-.36-.21-.72-.21-.36.16-.72.16-.36-.14-.72-.14-.36.03-.72.03-.36.05-.72.05-.36.08-.72.08-.36-.25-.72-.25-.36-.06-.72-.06-.36-.27-.72-.27-.36.27-.72.27-.36-.3-.72-.3-.36.7-.72.7-.36-.09-.72-.09-.36,0-.72,0-.36,0-.72,0-.36-.25-.72-.25-.36-.3-.72-.3-.36.37-.72.37-.36.2-.72.2-.36-.45-.72-.45-.36.08-.72.08-.36.38-.72.38-.36-.38-.72-.38-.36.43-.72.43-.36-.39-.72-.39-.36.13-.72.13-.36-.16-.72-.16-.36.18-.72.18-.36.06-.72.06-.36-.16-.72-.16-.36-.04-.72-.04-.36-.17-.72-.17-.36,0-.72,0-.36.13-.72.13-.36.17-.72.17-.36.19-.72.19-.36-.43-.72-.43-.36.1-.72.1-.36.04-.72.04-.36.17-.72.17-.36-.39-.72-.39-.36.02-.72.02-.36-.03-.72-.03-.36-.02-.72-.02-.36.18-.72.18-.36.33-.72.33-.36-.04-.72-.04-.36-.54-.72-.54-.36.5-.72.5-.36-.1-.72-.1-.36-.02-.72-.02-.36-.26-.72-.26-.36.23-.72.23-.36-.18-.72-.18-.36.35-.72.35-.36-.22-.72-.22-.36-.15-.72-.15-.36-.12-.72-.12-.36-.04-.72-.04-.36.39-.72.39-.36.07-.72.07-.36-.48-.72-.48-.36.03-.72.03-.36.11-.72.11-.36.11-.72.11-.36.05-.72.05-.36-.2-.72-.2-.36.53-.72.53-.36-.14-.72-.14-.36-.36-.72-.36-.36.47-.72.47-.36-.35-.72-.35-.36.08-.72.08-.36.08-.72.08-.36.18-.72.18-.36-.42-.72-.42-.36.5-.72.5-.36-.21-.72-.21-.36-.12-.72-.12-.36-.04-.72-.04-.36.05-.72.05-.36-.18-.72-.18-.36.09-.72.09-.36.46-.72.46-.36-.04-.72-.04-.36-.54-.72-.54-.36.53-.72.53-.36-.38-.72-.38-.36.06-.72.06-.36.4-.72.4-.36-.33-.72-.33-.36-.24-.72-.24-.36,0-.72,0-.36.3-.72.3-.36-.03-.72-.03-.36.04-.72.04-.36-.04-.72-.04-.36-.21-.72-.21-.36-.15-.72-.15-.36.54-.72.54-.36-.41-.72-.41-.36.12-.72.12-.36-.2-.72-.2-.36.05-.72.05-.36-.11-.72-.11-.36.36-.72.36-.36.15-.72.15-.36-.41-.72-.41-.36.23-.72.23-.36.23-.72.23-.36-.26-.72-.26-.36.29-.72.29-.36-.38-.72-.38-.36.13-.72.13-.36-.2-.72-.2-.36.24-.72.24-.36.07-.72.07-.36.14-.72.14-.36-.07-.72-.07-.36,0-.72,0-.36-.31-.72-.31-.36.31-.72.31-.36-.17-.72-.17-.36-.39-.72-.39-.36.62-.72.62-.36-.15-.72-.15-.36.08-.72.08-.36-.11-.72-.11-.36.07-.72.07-.36-.52-.72-.52-.36.61-.72.61-.36,0-.72,0-.36-.47-.72-.47-.36.37-.72.37-.36-.44-.72-.44-.36.46-.72.46-.36-.11-.72-.11-.36-.37-.72-.37-.36.33-.72.33-.36-.31-.72-.31-.36.13-.72.13-.36.17-.72.17-.36.15-.72.15-.36-.2-.72-.2-.36.38-.72.38-.36-.34-.72-.34-.36-.3-.72-.3-.36.09-.72.09-.36.55-.72.55-.36-.64-.72-.64-.36.42-.72.42-.36-.26-.72-.26-.36.24-.72.24-.36-.04-.72-.04-.36-.23-.72-.23-.36.1-.72.1-.36-.23-.72-.23-.36.43-.72.43-.36-.14-.72-.14-.36.21-.72.21-.36.13-.72.13-.36-.48-.72-.48-.36.14-.72.14-.36.36-.72.36-.36-.36-.72-.36-.36.17-.72.17-.36-.23-.72-.23-.36.23-.72.23-.36.1-.72.1-.36-.2-.72-.2-.36-.36-.72-.36-.36.5-.72.5-.36.11-.72.11-.36-.14-.72-.14-.36-.5-.72-.5-.36.22-.72.22-.36-.19-.72-.19-.36.38-.72.38-.36-.41-.72-.41-.36.51-.72.51-.36-.13-.72-.13-.36-.05-.72-.05-.36.15-.72.15-.36.16-.72.16-.36-.45-.72-.45-.36-.06-.72-.06-.36.15-.72.15-.36.2-.72.2-.36.19-.72.19-.36-.48-.72-.48-.36.14-.72.14-.36-.37-.72-.37-.36.44-.72.44-.36-.14-.72-.14-.36-.03-.72-.03-.36-.22-.72-.22-.36.47-.72.47-.36-.38-.72-.38-.36.35-.72.35-.36-.3-.72-.3-.36.47-.72.47-.36-.55-.72-.55-.36.51-.72.51-.36.06-.72.06-.36-.71-.72-.71-.36.5-.72.5-.36-.35-.72-.35-.36,0-.72,0-.36.35-.72.35-.36-.5-.72-.5-.36.62-.72.62-.36-.56-.72-.56-.36,0-.72,0-.36-.04-.72-.04-.36.09-.72.09-.36-.09-.72-.09-.36.39-.72.39-.36-.31-.72-.31-.36.11-.72.11-.36-.12-.72-.12-.36.23-.72.23-.36-.07-.72-.07-.36.24-.72.24-.36-.02-.72-.02-.36-.18-.72-.18-.36,0-.72,0-.36.13-.72.13-.36-.44-.72-.44-.36.38-.72.38-.36-.22-.72-.22-.36.4-.72.4-.36-.53-.72-.53-.36.11-.72.11-.36.31-.72.31-.36.24-.72.24-.36-.44-.72-.44-.36.31-.72.31-.36,0-.72,0-.36-.49-.72-.49-.36,0-.72,0-.36.03-.72.03-.36.25-.72.25-.36.25-.72.25-.36.11-.72.11-.36-.04-.72-.04-.36-.13-.72-.13-.36-.35-.72-.35-.36.1-.72.1-.36.39-.72.39-.36-.37-.72-.37-.36.17-.72.17-.36.1-.72.1-.36-.39-.72-.39-.36.4-.72.4-.36.11-.72.11-.36-.29-.72-.29-.36-.18-.72-.18-.36.45-.72.45-.36-.17-.72-.17-.36-.17-.72-.17-.36-.25-.72-.25-.36.53-.72.53-.36-.33-.72-.33-.36-.29-.72-.29-.36.22-.72.22-.36.04-.72.04-.36.36-.72.36-.36-.28-.72-.28-.36-.07-.72-.07-.36.12-.72.12-.36.06-.72.06-.36-.13-.72-.13-.36-.34-.72-.34-.36.39-.72.39-.36.17-.72.17-.36-.47-.72-.47-.36.08-.72.08-.36.43-.72.43-.36-.38-.72-.38-.36-.04-.72-.04-.36,0-.72,0-.36.45-.72.45-.36-.01-.72-.01-.36-.07-.72-.07-.36.08-.72.08-.36-.05-.72-.05-.36-.41-.72-.41-.36.46-.72.46-.36-.21-.72-.21-.36-.22-.72-.22-.36.36-.72.36-.36-.47-.72-.47-.36.33-.72.33-.36-.11-.72-.11-.36-.03-.72-.03-.36.13-.72.13-.36-.24-.72-.24-.36.22-.72.22-.36.15-.72.15-.36.12-.72.12-.36-.13-.72-.13-.36,0-.72,0-.36.03-.72.03-.36-.39-.72-.39-.36-.04-.72-.04-.36.08-.72.08-.36-.2-.72-.2-.36.04-.72.04-.36.64-.72.64-.36-.22-.72-.22-.36-.04-.72-.04-.36-.33-.72-.33-.36.26-.72.26-.36.25-.72.25-.36-.11-.72-.11-.36.14-.72.14-.36-.27-.72-.27-.36.03-.72.03-.36-.11-.72-.11-.36-.22-.72-.22-.36.41-.72.41-.36-.23-.72-.23-.36.02-.72.02-.36.06-.72.06-.36.18-.72.18-.36-.27-.72-.27-.36.14-.72.14-.36-.02-.72-.02-.36-.26-.72-.26-.36.48-.72.48-.36-.49-.72-.49-.36.59-.73.59-.36-.37-.73-.37-.36-.2-.73-.2-.36.22-.72.22-.36.15-.72.15-.36.13-.72.13-.36-.22-.72-.22-.36-.05-.72-.05-.36-.08-.72-.08-.36.36-.72.36-.36-.07-.73-.07-.36-.18-.73-.18-.36-.28-.73-.28-.36,0-.73,0-.36.25-.73.25-.36.11-.73.11-.36-.38-.73-.38-.36.16-.73.16-.36.19-.73.19-.36-.03-.73-.03-.36-.14-.73-.14-.36.1-.73.1-.36.26-.72.26-.36-.08-.72-.08-.36.18-.72.18-.36-.57-.73-.57-.36.04-.73.04-.36.36-.73.36-.36-.48-.73-.48-.36.36-.73.36-.36.05-.73.05-.36-.29-.73-.29-.36.5-.73.5-.37.02-.73.02-.36-.08-.73-.08-.36-.1-.73-.1-.36-.18-.73-.18-.37,0-.73,0-.37.2-.73.2-.37-.15-.73-.15-.37-.13-.73-.13c-.24,0-.48.05-.72.04s-.5.25-.74.23-.46-.33-.69-.36-.5.07-.73.03-.5.02-.73-.03-.43-.3-.66-.36-.48-.08-.71-.15-.36-.43-.59-.5-.43-.18-.66-.26-.54.07-.76-.03-.49-.09-.71-.19-.54-.01-.75-.12-.47-.16-.68-.28-.4-.29-.61-.42-.2-.58-.4-.72-.63.04-.82-.11-.11-.64-.3-.79-.6-.05-.78-.21-.38-.31-.55-.48-.33-.36-.5-.53-.03-.63-.19-.81-.19-.46-.34-.65-.67-.08-.81-.28-.48-.26-.62-.46.05-.62-.08-.82-.54-.24-.66-.45.04-.58-.07-.79-.33-.37-.43-.59-.22-.43-.32-.65-.34-.39-.43-.61.39-.65.31-.88-.31-.4-.37-.63-.54-.36-.6-.59.11-.52.06-.76-.14-.47-.18-.7.16-.51.14-.75.04-.48.02-.72.03-.47.02-.72-.48-.47-.48-.71c0-.36.21-.36.21-.71s.13-.36.13-.71-.34-.36-.34-.71.17-.36.17-.71,0-.36,0-.71-.05-.36-.05-.71.03-.36.03-.72-.06-.36-.06-.72,0-.36,0-.72.2-.36.2-.72.26-.36.26-.72-.58-.36-.58-.72,0-.36,0-.72.39-.36.39-.72-.32-.36-.32-.72,0-.36,0-.72.29-.36.29-.72.21-.36.21-.72-.54-.36-.54-.72-.08-.36-.08-.72.08-.36.08-.72.16-.36.16-.72-.22-.36-.22-.72.15-.36.15-.72.1-.36.1-.72.05-.36.05-.72.19-.36.19-.72-.44-.36-.44-.72.11-.36.11-.72-.13-.36-.13-.72.14-.36.14-.72.12-.36.12-.72-.32-.36-.32-.72.26-.36.26-.72-.08-.36-.08-.72.04-.36.04-.72.03-.36.03-.72.4-.36.4-.72-.26-.36-.26-.72.1-.36.1-.72-.05-.36-.05-.72,0-.36,0-.72-.46-.36-.46-.72.21-.36.21-.72.1-.36.1-.72.36-.36.36-.72-.07-.36-.07-.72,0-.36,0-.72-.57-.36-.57-.72.35-.36.35-.72-.33-.36-.33-.72.6-.36.6-.72-.53-.36-.53-.72.28-.36.28-.72.27-.36.27-.72-.17-.36-.17-.72.14-.36.14-.72-.6-.36-.6-.72.14-.36.14-.72.32-.36.32-.72.09-.36.09-.72.07-.36.07-.72-.41-.36-.41-.72.39-.36.39-.72-.54-.36-.54-.72-.08-.36-.08-.72.6-.36.6-.72-.54-.36-.54-.72.19-.36.19-.72.32-.36.32-.72-.33-.36-.33-.72.12-.36.12-.72-.38-.36-.38-.72.06-.36.06-.72.04-.36.04-.72.37-.36.37-.72-.32-.36-.32-.72.47-.36.47-.72-.09-.36-.09-.72.07-.36.07-.72-.39-.36-.39-.72.32-.36.32-.72-.47-.36-.47-.72.58-.36.58-.72-.65-.36-.65-.72.14-.36.14-.72.24-.36.24-.72.01-.36.01-.72-.4-.36-.4-.72.07-.36.07-.72.31-.36.31-.72-.07-.36-.07-.72-.22-.36-.22-.72.15-.36.15-.72.13-.36.13-.72-.13-.36-.13-.72.04-.36.04-.72.12-.36.12-.72.08-.36.08-.72-.06-.36-.06-.72-.13-.36-.13-.72.28-.36.28-.72.06-.36.06-.72-.66-.36-.66-.72.33-.36.33-.72-.01-.36-.01-.72-.31-.36-.31-.72.14-.36.14-.72.05-.36.05-.72.25-.36.25-.72-.23-.36-.23-.71.11-.36.11-.71.1-.36.1-.72-.23-.36-.23-.72.14-.36.14-.72.33-.36.33-.72-.68-.36-.68-.72.37-.36.37-.72-.22-.36-.22-.72.47-.36.47-.72.02-.36.02-.72-.46-.36-.46-.72-.05-.36-.05-.72.49-.36.49-.72-.02-.36-.02-.72-.3-.36-.3-.72.36-.36.36-.72-.42-.36-.42-.72.18-.36.18-.72-.19-.36-.19-.72.07-.36.07-.72.18-.36.18-.72-.39-.36-.39-.72.24-.36.24-.72.14-.36.14-.72.08-.36.08-.72-.49-.36-.49-.72.19-.36.19-.72-.22-.36-.22-.72.6-.36.6-.72.04-.36.04-.72.02-.36.02-.72-.6-.36-.6-.72.14-.36.14-.72-.12-.36-.12-.72.55-.36.55-.72-.51-.36-.51-.72.4-.36.4-.72.15-.36.15-.72-.47-.36-.47-.72.14-.36.14-.72.3-.36.3-.72-.22-.36-.22-.72-.29-.36-.29-.72.2-.36.2-.72-.12-.36-.12-.72.49-.36.49-.72-.19-.36-.19-.72.02-.36.02-.72-.07-.36-.07-.72-.17-.36-.17-.72.2-.36.2-.72-.18-.36-.18-.72-.3-.36-.3-.72.38-.36.38-.73.24-.36.24-.72-.41-.36-.41-.72.43-.36.43-.73-.62-.36-.62-.73.46-.36.46-.72-.14-.36-.14-.72.02-.36.02-.73-.33-.36-.33-.73.22-.37.22-.73-.14-.37-.14-.73c0-.24.23-.48.24-.72s-.12-.49-.1-.73.36-.45.39-.69-.36-.54-.32-.78.07-.49.12-.72.25-.45.31-.68-.02-.51.05-.74.3-.42.38-.65.32-.4.41-.62.07-.49.16-.71-.1-.58,0-.8.64-.22.76-.43-.07-.59.05-.8.33-.37.46-.57.45-.28.59-.48.31-.36.46-.55.28-.39.43-.57.38-.3.54-.48.09-.57.25-.74.19-.5.36-.67.53-.15.71-.31.39-.29.57-.44.18-.56.38-.7.4-.28.6-.42.42-.27.62-.39.64.13.85,0,.38-.29.6-.41.41-.26.62-.36.3-.51.53-.6.51-.05.73-.13.43-.26.66-.33.61.35.84.28.42-.27.65-.33.45-.19.68-.24.42-.4.66-.44.49-.07.73-.1.53.48.77.47.45-.47.69-.48.49.08.73.08c.36,0,.36-.14.72-.14s.36.11.72.11.36.34.72.34.36.09.72.09.36-.04.72-.04.36.04.72.04.36-.49.72-.49.36.06.72.06.36.38.72.38.36-.4.72-.4.36.4.72.4.36-.36.72-.36.36.13.72.13.36.11.72.11.36-.27.72-.27.36.23.72.23.36-.18.72-.18.36-.03.72-.03.36.06.72.06.36.02.72.02.36-.19.72-.19.36.15.72.15.36.22.72.22.36-.31.72-.31.36.44.72.44.36-.01.72-.01.36-.31.72-.31.36.07.72.07.36.07.72.07.36,0,.72,0,.36-.23.72-.23.36-.23.72-.23.36.4.72.4.36.22.72.22.36-.54.72-.54.36.23.72.23.36-.3.72-.3.36.61.72.61.36-.13.72-.13.36-.03.72-.03.36-.05.72-.05.36.18.72.18.36-.16.72-.16.36.11.72.11.36.05.72.05.36-.22.72-.22.36-.35.72-.35.36.03.72.03.36.05.72.05.36.1.72.1.36.34.72.34.36.05.72.05.36-.38.72-.38.36.01.72.01.36-.17.72-.17.36.27.72.27.36-.13.72-.13.36.29.72.29.36-.03.72-.03.36.11.72.11.36-.43.72-.43.36.02.72.02.36.46.72.46.36-.02.72-.02.36-.2.72-.2.36,0,.72,0,.36.29.72.29.36-.53.72-.53.36.45.72.45.36-.39.72-.39.36-.11.72-.11.36-.03.72-.03.36.33.72.33.36-.4.72-.4.36.18.72.18.36.48.72.48.36-.11.72-.11.36-.15.72-.15.36-.29.72-.29.36.22.72.22.36.03.72.03.36.3.72.3.36-.45.72-.45.36.17.72.17.36.02.72.02.36.06.72.06.36.06.72.06.36-.47.72-.47.36.25.72.25.36-.24.72-.24.36.56.72.56.36-.03.72-.03.36-.58.72-.58.36.14.72.14.36.33.72.33.36-.28.72-.28.36.13.72.13.36-.29.72-.29.36.61.72.61.36-.57.72-.57.36.59.72.59.36-.33.72-.33.36.18.72.18.36.16.72.16.36-.09.72-.09.36-.56.72-.56.36.01.72.01.36.25.72.25.36-.26.72-.26.36.29.72.29.36.25.72.25.36-.17.72-.17.36.27.72.27.36-.18.72-.18.36-.02.72-.02.36-.12.72-.12.36-.05.72-.05.36-.26.72-.26.36.31.72.31.36-.2.72-.2.36-.16.72-.16.36.39.72.39.36.28.72.28.36-.1.72-.1.36-.43.72-.43.36.02.72.02.36-.05.72-.05.36.25.72.25.36.33.72.33.36-.24.72-.24.36.06.72.06.36-.31.72-.31.36.34.72.34.36-.06.72-.06.36-.37.72-.37.36.02.72.02.36.44.72.44.36-.07.72-.07.36-.19.72-.19.36-.28.72-.28.36.12.72.12.36.44.72.44.36-.07.72-.07.36.17.72.17.36-.45.72-.45.36.17.72.17.36.09.72.09.36.22.72.22.36-.48.72-.48.36.04.72.04.36.42.72.42.36-.12.72-.12.36-.48.72-.48.36.64.72.64.36-.16.72-.16.36-.47.72-.47.36.42.72.42.36.11.72.11.36-.36.72-.36.36.03.72.03.36-.24.72-.24.36.62.72.62.36-.55.72-.55.36-.13.72-.13.36.4.72.4.36-.37.72-.37.36.47.72.47.36-.15.72-.15.36-.22.72-.22.36-.06.72-.06.36.5.72.5.36-.02.72-.02.36-.15.72-.15.36-.28.72-.28.36,0,.72,0,.36.46.72.46.36-.01.72-.01.36.06.72.06.36-.54.72-.54.36.18.72.18.36,0,.72,0,.36-.14.72-.14.36-.04.72-.04.36.09.72.09.36-.1.72-.1.36.52.72.52.36-.32.72-.32.36,0,.72,0,.36-.07.72-.07.36.26.72.26.36.17.72.17.36-.23.72-.23.36-.31.72-.31.36-.02.72-.02.36.07.72.07.36.45.72.45.36-.25.72-.25.36.23.72.23.36-.38.72-.38.36.02.72.02.36-.15.72-.15.36.6.72.6.36-.12.72-.12.36.09.72.09.36-.35.72-.35.36-.18.72-.18.36.03.72.03.36.03.72.03.36-.17.72-.17.36.47.72.47.36-.41.72-.41.36.25.72.25.36.23.72.23.36-.35.72-.35.36.39.72.39.36-.58.72-.58.36.6.72.6.36-.62.72-.62.36.68.72.68.36-.3.72-.3.36.14.72.14.36-.33.72-.33.36-.14.72-.14.36.28.72.28.36-.33.72-.33.36.63.72.63.36.02.72.02.36-.21.72-.21.36-.02.72-.02.36-.31.72-.31.36.19.72.19.36.27.72.27.36.13.72.13.36-.48.72-.48.36-.23.72-.23.36.6.72.6.36-.03.72-.03.36-.39.72-.39.36-.01.72-.01.36.45.72.45.36-.05.72-.05.36-.42.72-.42.36.27.72.27.36-.42.72-.42.36.23.72.23.36-.08.72-.08.36.03.72.03.36-.17.72-.17.36.26.72.26.36.31.72.31.36-.15.72-.15.36-.06.72-.06.36-.11.72-.11.36-.22.72-.22.36.38.72.38.36-.42.72-.42.36.42.72.42.36-.27.72-.27.36.05.72.05.36,0,.72,0,.36.24.72.24.36-.32.72-.32.36.01.72.01.36.45.72.45.36-.16.72-.16.36.18.72.18.36-.42.72-.42.36.02.72.02.36.25.72.25.36.24.72.24.36-.38.72-.38.36-.22.72-.22.36.2.72.2.36-.03.72-.03.36.29.72.29.36-.43.72-.43.36.47.72.47.36-.13.72-.13.36-.22.72-.22.36.48.72.48.36-.6.72-.6.36-.04.72-.04.36.43.72.43.36,0,.72,0,.36-.05.72-.05.36-.03.72-.03.36.25.72.25.36-.63.72-.63.36.25.72.25.36.28.72.28.36-.13.72-.13.36-.39.72-.39.36.14.72.14.36.49.72.49.36-.49.72-.49.36.47.72.47.36-.64.72-.64.36.35.72.35.36-.13.72-.13.36-.17.72-.17.36.4.72.4.36.06.72.06.36-.19.72-.19.36-.24.72-.24.36.18.72.18.36,0,.72,0,.36.33.72.33.36-.45.72-.45.36.42.72.42.36-.52.72-.52.36.31.72.31.36-.11.72-.11.36.42.72.42.36-.59.72-.59.36.33.72.33.36-.06.72-.06.36.09.72.09.36-.27.72-.27.36-.15.72-.15.36.01.72.01.36.04.72.04.36.3.72.3.36-.3.72-.3.36.18.72.18.36.47.72.47.36-.36.72-.36.36.26.72.26.36-.35.72-.35.36.25.72.25.36.1.72.1.36-.49.72-.49.36.12.72.12.36.04.72.04.36.37.72.37.36-.24.72-.24.36.09.72.09.36-.06.72-.06.36-.45.72-.45.36.09.72.09.36.39.72.39.36,0,.72,0,.36-.45.72-.45.36.54.72.54.36-.42.72-.42.36.42.72.42.36-.15.72-.15.36.08.72.08.36-.08.72-.08.36-.2.72-.2.36.05.72.05.36.06.72.06.36-.22.72-.22.36.44.72.44.36.11.72.11.36-.57.72-.57.36.44.72.44.36-.42.72-.42.36.49.72.49.36,0,.72,0,.36-.48.72-.48.36.2.72.2.36.28.72.28.36-.03.72-.03.36-.31.72-.31.36,0,.72,0,.36.43.72.43.36-.17.72-.17.36-.2.72-.2.36,0,.72,0,.36.06.72.06.36-.28.72-.28.36.16.72.16.36.31.72.31.36-.47.72-.47.36.6.72.6.36-.31.72-.31.36-.15.72-.15.36.36.72.36.36-.07.72-.07.36-.5.72-.5.36.48.72.48.36-.13.72-.13.36,0,.72,0,.36-.06.72-.06.36.37.72.37.36-.65.72-.65.36.17.72.17.36-.03.72-.03.36-.14.72-.14.36.02.72.02.36.52.72.52.36-.43.72-.43.36.23.72.23.36-.34.72-.34.36.29.72.29.36.25.72.25.36.05.72.05.36-.43.72-.43.36.09.72.09.36.19.72.19.36-.17.72-.17.36.14.72.14.36-.2.72-.2.36-.11.72-.11.36.02.72.02.36.4.72.4.36-.39.72-.39.36.47.72.47.36-.43.72-.43.36.14.72.14.36-.13.72-.13.36.44.72.44.36-.37.72-.37.36.36.72.36.36,0,.72,0,.36-.34.72-.34.36-.08.72-.08.36-.05.72-.05.36-.14.72-.14.36.56.72.56.36-.15.72-.15.36-.39.72-.39.36.43.72.43.36.08.72.08.36-.37.72-.37.36.02.72.02.36-.04.72-.04.36.06.72.06.36-.24.72-.24.36.11.72.11.36.38.72.38.36-.21.72-.21.36.13.72.13.36-.05.72-.05.36-.06.72-.06.36,0,.72,0,.36.39.72.39.36-.37.72-.37.36,0,.72,0,.36.08.72.08.36.21.72.21.36-.09.72-.09.36-.38.72-.38.36.3.72.3.36-.45.72-.45.36.64.72.64.36-.62.72-.62.36.4.72.4.36-.36.72-.36.36.3.72.3.36-.24.72-.24.36.5.72.5.36-.04.72-.04.36.03.72.03.36-.48.72-.48.36,0,.72,0,.36.32.72.32.36-.41.72-.41.36.37.72.37.36.29.72.29.36-.15.72-.15.36.11.72.11.36-.49.72-.49.36.06.72.06.36-.13.72-.13.36.47.72.47.36-.52.72-.52.36.28.72.28.36.28.72.28.36-.19.72-.19.36-.34.72-.34.36.4.72.4.36-.06.72-.06.36-.23.72-.23.36.07.72.07.36.32.72.32.36.08.72.08.36-.1.72-.1.36.06.72.06.36.06.72.06.36-.2.72-.2.36-.38.72-.38.36.14.72.14.36.35.72.35.36-.37.72-.37.36-.06.72-.06.36.21.72.21.36-.23.72-.23.36.36.72.36.36-.41.72-.41.36.47.72.47.36.08.72.08.36.02.72.02.36-.09.72-.09.36-.36.72-.36.36.42.72.42.36-.1.72-.1.36-.14.72-.14.36-.36.72-.36.36.58.72.58.36-.3.72-.3.36.05.72.05.36-.25.72-.25.36.5.72.5.36-.46.72-.46.36-.12.72-.12.36.38.72.38.36-.31.72-.31.36.11.72.11.36.33.72.33.36.12.72.12.36-.45.72-.45.36.39.72.39.36.1.72.1.36-.41.72-.41.36.02.72.02.36.17.72.17.36-.43.72-.43.36.3.72.3.36-.03.72-.03.36.39.72.39.36-.12.72-.12.36-.35.72-.35.36.09.72.09.36-.27.72-.27.36.64.72.64.36-.21.72-.21.36-.35.72-.35.36.1.72.1.36,0,.72,0,.36-.07.72-.07.36.16.72.16.36-.17.72-.17.36.23.72.23.36-.23.72-.23.36.25.72.25.36.28.72.28.36-.2.72-.2.36.19.72.19.36-.19.72-.19.36-.33.72-.33.36-.13.72-.13.36.22.72.22.36-.14.72-.14.36.45.72.45.36-.32.72-.32.36,0,.72,0,.36.24.72.24.36-.24.72-.24.36-.06.72-.06.36.23.72.23.36-.2.72-.2.36.08.72.08.36-.29.72-.29.36.65.72.65.36-.37.72-.37.36.33.72.33.36-.08.72-.08.36.13.72.13.36-.5.72-.5.36.06.72.06.36-.02.72-.02.36.32.72.32.36-.22.72-.22.36.14.72.14.36-.37.72-.37.36.37.72.37.36-.37.72-.37.36.22.72.22.36-.1.72-.1.36.3.72.3.36.06.72.06.36-.04.72-.04.36.14.72.14.36.05.73.05.36-.11.73-.11.36-.57.73-.57.36,0,.72,0,.36.11.72.11.36.38.72.38.36-.11.72-.11.36,0,.72,0,.36.15.72.15.36,0,.72,0,.36-.44.73-.44.36.55.73.55.36-.55.73-.55.36.26.73.26.36,0,.73,0,.36-.2.73-.2.36-.16.73-.16.36.36.73.36.36-.17.73-.17.36.38.73.38.36-.22.73-.22.36.31.73.31.36-.15.72-.15.36-.24.72-.24.36-.25.72-.25.36.14.73.14.36.09.73.09.36-.1.73-.1.36.51.73.51.36-.14.73-.14.36-.24.73-.24.36-.02.73-.02.36-.26.73-.26.37.09.73.09.36.12.73.12.36-.06.73-.06.36-.14.73-.14.37.63.73.63.37-.37.73-.37.37.25.73.25.37-.06.73-.06c.24,0,.48-.03.72-.02s.47.12.71.14.51-.29.75-.27.42.47.66.51.46.1.7.15.56-.33.8-.27.4.36.63.43.45.15.68.23.5.02.73.11.48.1.71.19.55-.02.77.08.16.77.37.88.51.06.72.19.38.29.59.42.35.33.55.46.69-.13.89.01.08.69.26.84.65-.01.83.15.13.57.3.74.6.08.77.25.19.49.35.67.52.2.67.39-.09.69.06.88.38.31.52.51.03.55.16.75.24.4.36.61.35.34.47.55.58.25.68.47.36.38.45.6-.44.7-.35.92.34.38.42.61.21.44.27.67.24.43.3.67.27.44.32.67-.06.51-.02.74-.33.53-.3.77.11.46.13.7.51.45.52.69.14.49.14.73c0,.36,0,.36,0,.71s0,.36,0,.71-.53.36-.53.71.39.36.39.71.17.36.17.71-.06.36-.06.71-.12.36-.12.72-.13.36-.13.72-.13.36-.13.72-.22.36-.22.72.43.36.43.72-.42.36-.42.72.18.36.18.72.03.36.03.72.42.36.42.72.01.36.01.72-.04.36-.04.72-.36.36-.36.72.1.36.1.72-.24.36-.24.72.57.36.57.72-.51.36-.51.72-.09.36-.09.72-.07.36-.07.72.51.36.51.72-.04.36-.04.72-.24.36-.24.72-.18.36-.18.72.36.36.36.72-.4.36-.4.72.55.36.55.72-.26.36-.26.72.36.36.36.72-.02.36-.02.72-.2.36-.2.72-.11.36-.11.72.11.36.11.72-.01.36-.01.72.1.36.1.72-.25.36-.25.72.19.36.19.72-.37.36-.37.72.03.36.03.72-.13.36-.13.72.65.36.65.72-.34.36-.34.72-.12.36-.12.72.28.36.28.72-.29.36-.29.72.39.36.39.72-.35.36-.35.72-.2.36-.2.72.09.36.09.72.49.36.49.72-.47.36-.47.72.38.36.38.72.16.36.16.72-.1.36-.1.72-.35.36-.35.72-.14.36-.14.72.5.36.5.72-.44.36-.44.72-.03.36-.03.72.51.36.51.72-.63.36-.63.72.04.36.04.72-.06.36-.06.72.66.36.66.72-.14.36-.14.72-.18.36-.18.72.33.36.33.72-.16.36-.16.72.02.36.02.72.09.36.09.72-.38.36-.38.72.43.36.43.72-.55.36-.55.72.34.36.34.72.22.36.22.72-.33.36-.33.72.32.36.32.72-.27.36-.27.72-.19.36-.19.72.33.36.33.72.12.36.12.72-.26.36-.26.72.19.36.19.72-.03.36-.03.72-.5.36-.5.72.2.36.2.72.35.36.35.72-.54.36-.54.72.33.36.33.72.08.36.08.72-.28.36-.28.72-.06.36-.06.72-.08.36-.08.72.05.36.05.72.48.36.48.72-.5.36-.5.72.36.36.36.72-.43.36-.43.72.56.36.56.72-.4.36-.4.72.31.36.31.72-.1.36-.1.72-.17.36-.17.72.36.36.36.72-.43.36-.43.72,0,.36,0,.72.42.36.42.71-.41.36-.41.71.15.36.15.72.36.36.36.72-.14.36-.14.72-.12.36-.12.72-.06.36-.06.72.19.36.19.72-.14.36-.14.72-.07.36-.07.72-.01.36-.01.72.29.36.29.72-.23.36-.23.72.2.36.2.72-.25.36-.25.72-.2.36-.2.72.34.36.34.72-.21.36-.21.72.11.36.11.72-.2.36-.2.72.11.36.11.72.27.36.27.72-.07.36-.07.72,0,.36,0,.72-.4.36-.4.72.58.36.58.72-.56.36-.56.72-.08.36-.08.72.16.36.16.72.12.36.12.72-.06.36-.06.72.12.36.12.72-.3.36-.3.72-.04.36-.04.72.66.36.66.72-.14.36-.14.72.06.36.06.72-.23.36-.23.72-.19.36-.19.72.4.36.4.72-.35.36-.35.72-.05.36-.05.72.48.36.48.72-.47.36-.47.72.4.36.4.72-.04.36-.04.72-.39.36-.39.72.11.36.11.72-.21.36-.21.72.27.36.27.72-.23.36-.23.72.4.36.4.72-.06.36-.06.72-.4.36-.4.72.05.36.05.73.33.36.33.72.12.36.12.72-.09.36-.09.73-.36.36-.36.73.17.36.17.72.34.36.34.72.06.36.06.73-.24.36-.24.73-.11.37-.11.73-.24.37-.24.73c0,.24.57.49.56.73s0,.49-.02.73-.02.5-.05.73-.54.41-.57.65-.26.43-.31.67.15.52.09.75.15.54.08.77-.62.31-.69.54.19.57.1.8-.09.49-.18.71-.15.47-.25.69-.25.42-.37.63-.1.5-.23.71-.57.22-.7.43-.1.51-.24.71-.39.31-.54.5-.25.41-.41.6-.53.17-.69.35-.3.37-.46.54-.37.3-.54.46-.04.67-.22.83-.63,0-.82.15-.11.64-.3.78-.36.34-.56.48-.59-.01-.79.12-.51.07-.72.19-.13.75-.35.86-.58-.07-.79.04-.54-.05-.76.05-.2.8-.42.89-.51.04-.74.12-.57-.2-.8-.13-.35.55-.59.61-.57-.33-.81-.28-.4.51-.64.55-.51-.17-.75-.14-.5-.24-.74-.22-.44.67-.68.68-.49,0-.74,0Z"/></svg>