<?xml version="1.0" encoding="UTF-8"?><svg id="Layer_1" xmlns="http://www.w3.org/2000/svg" viewBox="0 0 514.77 185"><defs><style>.cls-1{fill:#59bce6;}</style></defs><path class="cls-1" d="M478.58,172.45c-.36,0-.36-.14-.72-.14s-.36.22-.72.22-.36.26-.72.26-.36-.55-.72-.55-.36.22-.72.22-.36.22-.72.22-.36-.49-.72-.49-.36.44-.72.44-.36.1-.72.1-.36-.52-.72-.52-.36.67-.72.67-.36-.22-.72-.22-.36-.18-.72-.18-.36-.25-.72-.25-.36.06-.72.06-.36.43-.72.43-.36-.19-.72-.19-.36.29-.72.29-.36-.28-.72-.28-.36.12-.72.12-.36-.25-.72-.25-.36.38-.72.38-.36-.07-.72-.07-.36-.15-.72-.15-.36,0-.72,0-.36-.36-.72-.36-.36.56-.72.56-.36-.48-.72-.48-.36.21-.72.21-.36-.24-.72-.24-.36.4-.72.4-.36-.13-.72-.13-.36-.13-.72-.13-.36.23-.72.23-.36.1-.72.1-.36-.1-.72-.1-.36.21-.72.21-.36-.27-.72-.27-.36.06-.72.06-.36-.26-.72-.26-.36.01-.72.01-.36-.17-.72-.17-.36.3-.72.3-.36.32-.72.32-.36-.26-.72-.26-.36-.15-.72-.15-.36.14-.72.14-.36.24-.72.24-.36-.61-.72-.61-.36.37-.72.37-.36-.29-.72-.29-.36.24-.72.24-.36.21-.72.21-.36-.21-.72-.21-.36.26-.72.26-.36-.46-.72-.46-.36-.06-.72-.06-.36.15-.72.15-.36-.22-.72-.22-.36.32-.72.32-.36.28-.72.28-.36.03-.72.03-.36-.59-.72-.59-.36.31-.72.31-.36-.04-.72-.04-.36.12-.72.12-.36-.05-.72-.05-.36-.14-.72-.14-.36-.21-.72-.21-.36.02-.72.02-.36.33-.72.33-.36-.21-.72-.21-.36.19-.72.19-.36-.37-.72-.37-.36.38-.72.38-.36-.2-.72-.2-.36-.07-.72-.07-.36.24-.72.24-.36-.28-.72-.28-.36.52-.72.52-.36.04-.72.04-.36-.16-.72-.16-.36-.07-.72-.07-.36.16-.72.16-.36.04-.72.04-.36-.35-.72-.35-.36-.19-.72-.19-.36.39-.72.39-.36.04-.72.04-.36-.51-.72-.51-.36.29-.72.29-.36.11-.72.11-.36-.15-.72-.15-.36-.04-.72-.04-.36.02-.72.02-.36.48-.72.48-.36-.42-.72-.42-.36-.27-.72-.27-.36.41-.72.41-.36-.2-.72-.2-.36-.08-.72-.08-.36.15-.72.15-.36-.17-.72-.17-.36.2-.72.2-.36.06-.72.06-.36-.12-.72-.12-.36-.12-.72-.12-.36.39-.72.39-.36-.44-.72-.44-.36.05-.72.05-.36-.1-.72-.1-.36.03-.72.03-.36.45-.72.45-.36.15-.72.15-.36-.15-.72-.15-.36.12-.72.12-.36-.56-.72-.56-.36.61-.72.61-.36-.16-.72-.16-.36-.4-.72-.4-.36.41-.72.41-.36-.48-.72-.48-.36.65-.72.65-.36-.6-.72-.6-.36.2-.72.2-.36.24-.72.24-.36.02-.72.02-.36-.36-.72-.36-.36.25-.72.25-.36-.11-.72-.11-.36-.19-.72-.19-.36.45-.72.45-.36.05-.72.05-.36-.53-.72-.53-.36.13-.72.13-.36.11-.72.11-.36-.31-.72-.31-.36.4-.72.4-.36-.19-.72-.19-.36.19-.72.19-.36-.15-.72-.15-.36.15-.72.15-.36.25-.72.25-.36,0-.72,0-.36-.07-.72-.07-.36.09-.72.09-.36-.43-.72-.43-.36-.07-.72-.07-.36-.04-.72-.04-.36-.01-.72-.01-.36.07-.72.07-.36.43-.72.43-.36-.37-.72-.37-.36.2-.72.2-.36.03-.72.03-.36-.33-.72-.33-.36.34-.72.34-.36-.29-.72-.29-.36.04-.72.04-.36.23-.72.23-.36-.2-.72-.2-.36.29-.72.29-.36.03-.72.03-.36-.03-.72-.03-.36-.47-.72-.47-.36.47-.72.47-.36-.16-.72-.16-.36-.32-.72-.32-.36.47-.72.47-.36-.15-.72-.15-.36-.33-.72-.33-.36.47-.72.47-.36-.25-.72-.25-.36.21-.72.21-.36-.48-.72-.48-.36.44-.72.44-.36-.11-.72-.11-.36.21-.72.21-.36-.19-.72-.19-.36-.35-.72-.35-.36.19-.72.19-.36.42-.72.42-.36-.58-.72-.58-.36-.07-.72-.07-.36.51-.72.51-.36-.41-.72-.41-.36.4-.72.4-.36-.19-.72-.19-.36-.08-.72-.08-.36.34-.72.34-.36-.14-.72-.14-.36-.11-.72-.11-.36.3-.72.3-.36-.59-.72-.59-.36.65-.72.65-.36-.38-.72-.38-.36-.22-.72-.22-.36.16-.72.16-.36.35-.72.35-.36.06-.72.06-.36-.58-.72-.58-.36.04-.72.04-.36.31-.72.31-.36-.11-.72-.11-.36.32-.72.32-.36-.54-.72-.54-.36,0-.72,0-.36.23-.72.23-.36.17-.72.17-.36-.16-.72-.16-.36-.21-.72-.21-.36.34-.72.34-.36.07-.72.07-.36-.24-.72-.24-.36.33-.72.33-.36-.27-.72-.27-.36,0-.72,0-.36-.35-.72-.35-.36.04-.72.04-.36.39-.72.39-.36-.08-.72-.08-.36.07-.72.07-.36-.08-.72-.08-.36.13-.72.13-.36.12-.72.12-.36-.36-.72-.36-.36-.24-.72-.24-.36.25-.72.25-.36-.03-.72-.03-.36.12-.72.12-.36.09-.72.09-.36-.25-.72-.25-.36-.07-.72-.07-.36.16-.72.16-.36.3-.72.3-.36-.48-.72-.48-.36.35-.72.35-.36-.43-.72-.43-.36.26-.72.26-.36-.06-.72-.06-.36-.18-.72-.18-.36.06-.72.06-.36.05-.72.05-.36.46-.72.46-.36-.55-.72-.55-.36.46-.72.46-.36.1-.72.1-.36-.43-.72-.43-.36.01-.72.01-.36.42-.72.42-.36.02-.72.02-.36-.6-.72-.6-.36.54-.72.54-.36-.04-.72-.04-.36-.17-.72-.17-.36-.11-.72-.11-.36.43-.72.43-.36,0-.72,0-.36-.33-.72-.33-.36.08-.72.08-.36-.08-.72-.08-.36.07-.72.07-.36.26-.72.26-.36-.26-.72-.26-.36.25-.72.25-.36-.31-.72-.31-.36.33-.72.33-.36-.01-.72-.01-.36-.03-.72-.03-.36-.41-.72-.41-.36.24-.72.24-.36-.29-.72-.29-.36-.03-.72-.03-.36.04-.72.04-.36.34-.72.34-.36.16-.72.16-.36-.47-.72-.47-.36.19-.72.19-.36.24-.72.24-.36-.54-.72-.54-.36.2-.72.2-.36.08-.72.08-.36-.13-.72-.13-.36.12-.72.12-.36-.29-.72-.29-.36-.07-.72-.07-.36.55-.72.55-.36-.24-.72-.24-.36.14-.72.14-.36-.17-.72-.17-.36-.3-.72-.3-.36.48-.72.48-.36.04-.72.04-.36-.02-.72-.02-.36-.16-.72-.16-.36-.21-.72-.21-.36,0-.72,0-.36.51-.72.51-.36-.49-.72-.49-.36.05-.72.05-.36-.05-.72-.05-.36.27-.72.27-.36-.22-.72-.22-.36-.08-.72-.08-.36.2-.72.2-.36-.05-.72-.05-.36.29-.72.29-.36-.13-.72-.13-.36-.04-.72-.04-.36-.21-.72-.21-.36.05-.72.05-.36.41-.72.41-.36-.6-.72-.6-.36.64-.72.64-.36-.23-.72-.23-.36-.36-.72-.36-.36.31-.72.31-.36.15-.72.15-.36.1-.72.1-.36-.07-.72-.07-.36-.49-.72-.49-.36.12-.72.12-.36-.18-.72-.18-.36.22-.72.22-.36-.04-.72-.04-.36.09-.72.09-.36-.15-.72-.15-.36-.02-.72-.02-.36.15-.72.15-.36-.23-.72-.23-.36.5-.72.5-.36.15-.72.15-.36-.47-.72-.47-.36-.23-.72-.23-.36.06-.72.06-.36.52-.72.52-.36.01-.72.01-.36-.49-.72-.49-.36.2-.72.2-.36.3-.72.3-.36-.38-.72-.38-.36.36-.72.36-.36-.57-.72-.57-.36.1-.72.1-.36-.02-.72-.02-.36.1-.72.1-.36.51-.72.51-.36-.39-.72-.39-.36.11-.72.11-.36-.38-.72-.38-.36.68-.72.68-.36-.61-.72-.61-.36.15-.72.15-.36.01-.72.01-.36-.08-.72-.08-.36.5-.72.5-.36-.06-.72-.06-.36-.53-.72-.53-.36.53-.72.53-.36-.09-.72-.09-.36.11-.72.11-.36-.11-.72-.11-.36.09-.72.09-.36-.43-.72-.43-.36.03-.72.03-.36.12-.72.12-.36.04-.72.04-.36.28-.72.28-.36-.47-.72-.47-.36.13-.72.13-.36.25-.72.25-.36-.47-.72-.47-.36.14-.72.14-.36.38-.72.38-.36-.37-.72-.37-.36.06-.72.06-.36-.12-.72-.12-.36.3-.72.3-.36-.08-.72-.08-.36-.19-.72-.19-.36.36-.72.36-.36-.21-.72-.21-.36.12-.72.12-.36-.42-.72-.42-.36,0-.72,0-.36.35-.72.35-.36-.23-.72-.23-.36-.11-.72-.11-.36.13-.72.13-.36.36-.72.36-.36-.16-.72-.16-.36.18-.72.18-.36-.04-.72-.04-.36-.02-.72-.02-.36.01-.72.01-.36.03-.72.03-.36-.22-.72-.22-.36,0-.72,0-.36,0-.72,0-.36-.3-.72-.3-.36.24-.72.24-.36-.09-.72-.09-.36-.18-.72-.18-.36.24-.72.24-.36.2-.72.2-.36.05-.72.05-.36-.32-.72-.32-.36-.05-.72-.05-.36.56-.72.56-.36-.23-.72-.23-.36.05-.72.05-.36-.43-.72-.43-.36.07-.72.07-.36.2-.72.2-.36-.25-.72-.25-.36.04-.72.04-.36.48-.72.48-.36.07-.72.07-.36-.21-.72-.21-.36.13-.72.13-.36-.1-.72-.1-.36.19-.72.19-.36,0-.72,0-.36-.51-.72-.51-.36.37-.72.37-.36-.57-.72-.57-.36.49-.72.49-.36-.1-.72-.1-.36-.08-.72-.08-.36-.19-.72-.19-.36.14-.72.14-.36.25-.72.25-.36-.07-.72-.07-.36.11-.72.11-.36-.35-.72-.35-.36.34-.72.34-.36-.16-.72-.16-.36-.16-.72-.16-.36-.07-.72-.07-.36.41-.72.41-.36-.21-.72-.21-.36.19-.72.19-.36,0-.72,0-.36-.06-.72-.06-.36-.38-.72-.38-.36-.06-.72-.06-.36.08-.72.08-.36.57-.72.57-.36-.67-.72-.67-.36.57-.72.57-.36-.41-.72-.41-.36.36-.72.36-.36-.07-.72-.07-.36-.41-.72-.41-.36.22-.72.22-.36.43-.72.43-.36-.19-.72-.19-.36.04-.72.04-.36-.52-.72-.52-.36,0-.72,0-.36.03-.72.03-.36.22-.72.22-.36-.13-.72-.13-.36.07-.72.07-.36-.11-.72-.11-.36.06-.72.06-.36.37-.72.37-.36-.54-.72-.54-.36.43-.72.43-.36-.22-.72-.22-.36-.08-.72-.08-.36.2-.72.2-.36.27-.72.27-.36-.11-.72-.11-.36.21-.72.21-.36-.67-.72-.67-.36,0-.72,0-.36.55-.72.55-.36.1-.72.1-.36-.17-.72-.17-.36-.02-.72-.02-.36-.11-.72-.11-.36.12-.72.12-.36-.05-.72-.05-.36.13-.72.13-.36-.58-.72-.58-.36.38-.72.38-.36.08-.72.08-.36.2-.72.2-.36-.44-.72-.44-.36-.09-.72-.09-.36-.02-.72-.02-.36.37-.72.37-.36.03-.72.03-.36-.09-.72-.09-.36-.26-.72-.26-.36-.11-.72-.11-.36.13-.72.13-.36.38-.72.38-.36-.37-.72-.37-.36.37-.72.37-.36.14-.72.14-.36-.16-.72-.16-.36-.22-.72-.22-.36.33-.72.33-.36-.36-.72-.36-.36.29-.72.29-.36.04-.72.04-.36-.04-.72-.04-.36-.5-.72-.5-.36.15-.72.15-.36.31-.72.31-.36-.02-.72-.02-.36-.04-.72-.04-.36.08-.72.08-.36.02-.72.02-.36-.43-.72-.43-.36.1-.72.1-.36.26-.72.26-.36.12-.72.12-.36-.17-.72-.17-.36-.37-.72-.37-.36.26-.72.26-.36-.27-.72-.27-.36.33-.72.33-.36-.29-.72-.29-.36.2-.72.2-.36.11-.72.11-.36-.38-.72-.38-.36.2-.72.2-.36.14-.72.14-.36.3-.72.3-.36-.58-.72-.58-.36.06-.72.06-.36.5-.72.5-.36-.13-.72-.13-.36-.4-.72-.4-.36.5-.72.5-.36-.2-.72-.2-.36-.4-.72-.4-.36.3-.72.3-.36.29-.72.29-.36-.26-.72-.26-.36-.24-.72-.24-.36.41-.72.41-.36.07-.72.07-.36-.46-.72-.46-.36.51-.72.51-.36-.58-.72-.58-.36.17-.72.17-.36.26-.72.26-.36-.37-.72-.37-.36.45-.72.45-.36-.02-.72-.02-.36-.32-.72-.32-.36.17-.72.17-.36-.03-.72-.03-.36.04-.72.04-.36-.14-.72-.14-.36.13-.72.13-.36.1-.72.1-.36-.28-.72-.28-.36.01-.72.01-.36-.25-.72-.25-.36.14-.72.14-.36.35-.72.35-.36-.26-.72-.26-.36.06-.72.06-.36-.17-.72-.17-.36.17-.72.17-.36.33-.72.33-.36-.59-.72-.59-.36.32-.72.32-.36.22-.72.22-.36-.23-.73-.23-.36-.2-.73-.2-.36.1-.73.1-.36-.18-.72-.18-.36.62-.72.62-.36-.55-.72-.55-.36,0-.72,0-.36-.12-.72-.12-.36.69-.72.69-.36-.63-.72-.63-.36.15-.73.15-.36-.09-.73-.09-.36.09-.73.09-.36.31-.73.31-.36-.02-.73-.02-.36-.13-.73-.13-.36.09-.73.09-.36-.25-.73-.25-.36.11-.73.11-.36-.16-.73-.16-.36.28-.73.28-.36.1-.73.1-.36-.06-.72-.06-.36-.04-.72-.04-.36-.38-.72-.38-.36.16-.73.16-.36.48-.73.48-.36-.49-.73-.49-.36-.19-.73-.19-.36.41-.73.41-.36-.07-.73-.07-.36-.26-.73-.26-.36.29-.73.29-.37.13-.73.13-.36-.08-.73-.08-.36-.22-.73-.22-.36.31-.73.31-.37-.52-.73-.52-.37.14-.73.14-.37.45-.73.45-.37-.39-.73-.39c-.24,0-.49.39-.73.39s-.48-.22-.72-.24-.44-.36-.68-.39-.54.37-.77.33-.51.05-.75,0-.37-.58-.6-.64-.6.38-.83.31-.42-.31-.65-.39-.43-.25-.65-.34-.36-.38-.58-.48-.36-.34-.58-.44-.62.17-.83.05-.51-.08-.72-.2-.28-.47-.49-.6-.55-.06-.74-.19-.38-.32-.57-.46-.11-.64-.3-.79-.51-.13-.69-.29-.13-.56-.3-.73-.61-.06-.78-.23-.5-.2-.66-.38-.07-.58-.22-.77-.53-.2-.68-.39-.17-.48-.3-.68-.3-.38-.43-.58-.24-.42-.36-.63-.29-.4-.4-.61-.07-.5-.18-.72-.11-.47-.21-.7-.18-.44-.27-.67.03-.51-.05-.74-.19-.43-.26-.66-.55-.35-.61-.58-.29-.44-.34-.67.06-.51.02-.75.34-.53.31-.77,0-.47-.02-.71-.51-.45-.52-.69.03-.49.03-.73c0-.36-.07-.36-.07-.71s.37-.36.37-.71.14-.36.14-.71.05-.36.05-.71-.52-.36-.52-.71.24-.36.24-.71-.38-.36-.38-.72.01-.36.01-.72.22-.36.22-.72-.09-.36-.09-.72.2-.36.2-.72.13-.36.13-.72.21-.36.21-.72-.34-.36-.34-.72,0-.36,0-.72.03-.36.03-.72.24-.36.24-.72-.5-.36-.5-.72.46-.36.46-.72-.32-.36-.32-.72.38-.36.38-.72-.29-.36-.29-.72-.36-.36-.36-.72.32-.36.32-.72.12-.36.12-.72-.34-.36-.34-.72.17-.36.17-.72.22-.36.22-.72.08-.36.08-.72-.26-.36-.26-.72.28-.36.28-.72-.01-.36-.01-.72-.32-.36-.32-.72.3-.36.3-.72-.31-.36-.31-.72,0-.36,0-.72.11-.36.11-.72.34-.36.34-.72-.46-.36-.46-.72.36-.36.36-.72-.15-.36-.15-.72-.21-.36-.21-.72.16-.36.16-.72-.36-.36-.36-.72,0-.36,0-.72.38-.36.38-.72.16-.36.16-.72-.04-.36-.04-.72.16-.36.16-.72-.61-.36-.61-.72.05-.36.05-.72.19-.36.19-.72.01-.36.01-.72.22-.36.22-.72-.49-.36-.49-.72,0-.36,0-.72.22-.36.22-.72.18-.36.18-.72-.05-.36-.05-.72.13-.36.13-.72-.11-.36-.11-.72.25-.36.25-.72-.41-.36-.41-.72.07-.36.07-.72.04-.36.04-.72.32-.36.32-.72-.27-.36-.27-.72-.05-.36-.05-.72.13-.36.13-.72-.21-.36-.21-.72.1-.36.1-.72.06-.36.06-.72.1-.36.1-.72-.12-.36-.12-.72-.2-.36-.2-.72-.19-.36-.19-.72,0-.36,0-.72.61-.36.61-.72-.2-.36-.2-.72.14-.36.14-.72-.49-.36-.49-.72.28-.36.28-.72-.3-.36-.3-.72.56-.36.56-.72-.45-.36-.45-.72.08-.36.08-.72.43-.36.43-.72-.19-.36-.19-.72-.33-.36-.33-.72.44-.36.44-.72.06-.36.06-.72,0-.36,0-.72-.19-.36-.19-.72-.2-.36-.2-.72.07-.36.07-.72.07-.36.07-.72.27-.36.27-.72-.17-.36-.17-.72-.22-.36-.22-.72.26-.36.26-.72-.31-.36-.31-.72.15-.36.15-.72,0-.36,0-.72.25-.36.25-.72-.66-.36-.66-.72.43-.36.43-.72.1-.36.1-.72-.15-.36-.15-.72-.15-.36-.15-.72.22-.36.22-.72.2-.36.2-.71-.51-.36-.51-.71.09-.36.09-.72.37-.36.37-.72-.31-.36-.31-.72.31-.36.31-.72-.43-.36-.43-.72.35-.36.35-.72-.27-.36-.27-.72.06-.36.06-.72.12-.36.12-.72.2-.36.2-.72-.62-.36-.62-.72.32-.36.32-.72-.11-.36-.11-.72-.08-.36-.08-.72.17-.36.17-.72.23-.36.23-.72-.29-.36-.29-.72.17-.36.17-.72.16-.36.16-.72-.39-.36-.39-.72.51-.36.51-.72-.19-.36-.19-.72.2-.36.2-.72-.34-.36-.34-.72-.35-.36-.35-.72,0-.36,0-.72-.02-.36-.02-.72.18-.36.18-.72.02-.36.02-.72.24-.36.24-.72-.19-.36-.19-.72.26-.36.26-.72-.49-.36-.49-.72.49-.36.49-.72-.34-.36-.34-.72.12-.36.12-.72.01-.36.01-.72.37-.36.37-.72-.15-.36-.15-.72.05-.36.05-.72-.25-.36-.25-.72.39-.36.39-.72-.26-.36-.26-.72-.05-.36-.05-.72.28-.36.28-.72-.32-.36-.32-.72-.18-.36-.18-.72.49-.36.49-.72-.04-.36-.04-.72-.52-.36-.52-.72.56-.36.56-.72-.01-.36-.01-.72.04-.36.04-.73-.22-.36-.22-.72-.39-.36-.39-.72.34-.36.34-.73-.4-.36-.4-.73.45-.36.45-.72-.15-.36-.15-.72.18-.36.18-.73-.39-.36-.39-.73,0-.37,0-.73.06-.37.06-.73c0-.24.12-.49.13-.73s-.21-.5-.19-.74.49-.44.52-.68.13-.46.17-.7-.22-.53-.17-.76.29-.43.34-.66.06-.48.13-.71-.12-.55-.05-.78.4-.37.49-.6-.13-.58-.03-.8.42-.35.52-.57.36-.36.47-.57-.13-.63,0-.84.67-.16.8-.36.34-.34.48-.54.11-.51.25-.7.16-.49.31-.68.19-.48.35-.66.32-.37.49-.55.37-.33.54-.49.51-.16.69-.32.48-.18.66-.33.42-.23.61-.37.42-.22.62-.35.26-.47.46-.59.39-.27.6-.39.32-.42.53-.53.54,0,.76-.1.33-.44.55-.54.45-.19.67-.28.45-.18.68-.25.55.16.79.09.47-.08.7-.14.47-.04.71-.09.43-.26.67-.3.47-.05.71-.08.46-.15.71-.17.49.2.73.19.47,0,.71,0c.36,0,.36-.17.72-.17s.36.16.72.16.36-.34.72-.34.36.14.72.14.36-.21.72-.21.36.39.72.39.36-.57.72-.57.36.44.72.44.36-.5.72-.5.36.54.72.54.36-.32.72-.32.36.04.72.04.36-.1.72-.1.36.38.72.38.36,0,.72,0,.36-.24.72-.24.36-.04.72-.04.36.14.72.14.36.26.72.26.36-.63.72-.63.36.35.72.35.36-.14.72-.14.36.46.72.46.36-.29.72-.29.36.05.72.05.36.06.72.06.36-.27.72-.27.36.07.72.07.36.16.72.16.36-.09.72-.09.36-.37.72-.37.36.59.72.59.36,0,.72,0,.36-.3.72-.3.36.31.72.31.36-.52.72-.52.36,0,.72,0,.36.38.72.38.36-.34.72-.34.36.43.72.43.36-.13.72-.13.36-.38.72-.38.36.62.72.62.36-.14.72-.14.36.12.72.12.36-.57.72-.57.36.13.72.13.36.43.72.43.36-.14.72-.14.36-.16.72-.16.36,0,.72,0,.36.24.72.24.36.13.72.13.36-.13.72-.13.36-.33.72-.33.36-.16.72-.16.36.24.72.24.36-.1.72-.1.36.29.72.29.36.19.72.19.36-.24.72-.24.36.04.72.04.36.13.72.13.36-.09.72-.09.36.16.72.16.36-.02.72-.02.36-.6.72-.6.36.28.72.28.36.09.72.09.36.17.72.17.36-.48.72-.48.36.25.72.25.36-.23.72-.23.36.25.72.25.36.31.72.31.36-.58.72-.58.36.03.72.03.36.47.72.47.36-.17.72-.17.36-.12.72-.12.36-.25.72-.25.36.55.72.55.36-.45.72-.45.36.33.72.33.36-.33.72-.33.36.25.72.25.36-.02.72-.02.36.06.72.06.36-.21.72-.21.36.45.72.45.36-.2.72-.2.36-.35.72-.35.36.37.72.37.36-.37.72-.37.36-.04.72-.04.36.3.72.3.36-.39.72-.39.36.4.72.4.36-.12.72-.12.36-.03.72-.03.36.19.72.19.36.12.72.12.36-.38.72-.38.36-.19.72-.19.36.34.72.34.36.34.72.34.36-.64.72-.64.36.57.72.57.36-.24.72-.24.36-.18.72-.18.36-.09.72-.09.36-.08.72-.08.36.41.72.41.36.1.72.1.36.08.72.08.36-.56.72-.56.36.57.72.57.36-.22.72-.22.36.22.72.22.36-.23.72-.23.36-.13.72-.13.36.2.72.2.36,0,.72,0,.36-.17.72-.17.36,0,.72,0,.36-.08.72-.08.36.33.72.33.36-.51.72-.51.36.62.72.62.36-.63.72-.63.36.42.72.42.36,0,.72,0,.36-.21.72-.21.36.31.72.31.36-.08.72-.08.36.19.72.19.36-.11.72-.11.36-.34.72-.34.36-.1.72-.1.36.58.72.58.36-.45.72-.45.36.02.72.02.36-.18.72-.18.36-.04.72-.04.36.55.72.55.36-.36.72-.36.36-.03.72-.03.36-.02.72-.02.36.2.72.2.36-.14.72-.14.36.05.72.05.36.29.72.29.36-.42.72-.42.36.22.72.22.36-.18.72-.18.36.36.72.36.36-.33.72-.33.36.41.72.41.36-.34.72-.34.36-.03.72-.03.36-.21.72-.21.36.06.72.06.36.54.72.54.36-.57.72-.57.36.62.72.62.36-.18.72-.18.36-.24.72-.24.36.03.72.03.36-.27.72-.27.36.59.72.59.36-.16.72-.16.36.04.72.04.36-.28.72-.28.36.45.72.45.36-.19.72-.19.36-.19.72-.19.36-.29.72-.29.36.04.72.04.36.58.72.58.36-.21.72-.21.36-.37.72-.37.36.15.72.15.36-.06.72-.06.36.49.72.49.36-.46.72-.46.36-.1.72-.1.36.45.72.45.36-.1.72-.1.36-.28.72-.28.36.38.72.38.36.04.72.04.36-.36.72-.36.36.27.72.27.36-.39.72-.39.36.56.72.56.36-.09.72-.09.36-.52.72-.52.36.38.72.38.36,0,.72,0,.36-.13.72-.13.36-.19.72-.19.36.23.72.23.36.05.72.05.36-.01.72-.01.36-.04.72-.04.36.23.72.23.36-.48.72-.48.36.51.72.51.36-.36.72-.36.36-.24.72-.24.36.47.72.47.36.02.72.02.36,0,.72,0,.36.06.72.06.36-.29.72-.29.36.4.72.4.36-.25.72-.25.36-.23.72-.23.36.31.72.31.36-.27.72-.27.36-.09.72-.09.36.22.72.22.36.08.72.08.36-.26.72-.26.36.3.72.3.36-.05.72-.05.36.16.72.16.36-.07.72-.07.36-.29.72-.29.36-.21.72-.21.36.18.72.18.36-.02.72-.02.36.17.72.17.36-.32.72-.32.36.08.72.08.36.49.72.49.36.05.72.05.36-.36.72-.36.36.1.72.1.36-.1.72-.1.36.06.72.06.36-.13.72-.13.36.44.72.44.36-.6.72-.6.36.42.72.42.36.17.72.17.36,0,.72,0,.36-.19.72-.19.36-.43.72-.43.36.11.72.11.36.05.72.05.36.13.72.13.36.05.72.05.36.1.72.1.36-.1.72-.1.36-.21.72-.21.36.33.72.33.36-.17.72-.17.36-.17.72-.17.36-.1.72-.1.36.46.72.46.36-.04.72-.04.36-.12.72-.12.36.36.72.36.36-.5.72-.5.36-.18.72-.18.36.25.72.25.36-.12.72-.12.36-.14.72-.14.36.14.72.14.36-.08.72-.08.36.61.72.61.36-.69.72-.69.36.42.72.42.36-.05.72-.05.36-.02.72-.02.36.05.72.05.36.07.72.07.36.11.72.11.36-.35.72-.35.36-.11.72-.11.36.19.72.19.36-.32.72-.32.36.38.72.38.36.06.72.06.36-.11.72-.11.36-.3.72-.3.36.5.72.5.36-.51.72-.51.36.64.72.64.36-.56.72-.56.36-.08.72-.08.36.22.72.22.36.33.72.33.36-.48.72-.48.36.02.72.02.36.17.72.17.36-.21.72-.21.36.28.72.28.36-.16.72-.16.36.08.72.08.36.03.72.03.36.33.72.33.36-.02.72-.02.36-.56.72-.56.36.5.72.5.36,0,.72,0,.36-.05.72-.05.36-.41.72-.41.36.52.72.52.36-.58.72-.58.36.6.72.6.36-.44.72-.44.36.49.72.49.36-.67.72-.67.36.22.72.22.36-.05.72-.05.36-.07.72-.07.36.53.72.53.36-.59.72-.59.36.59.72.59.36-.12.72-.12.36-.33.72-.33.36-.14.72-.14.36.46.72.46.36.07.72.07.36-.38.72-.38.36-.16.72-.16.36.35.72.35.36-.09.72-.09.36-.05.72-.05.36.34.72.34.36.03.72.03.36-.5.72-.5.36-.13.72-.13.36.08.72.08.36.42.72.42.36-.35.72-.35.36.24.72.24.36.11.72.11.36-.16.72-.16.36-.16.72-.16.36.28.72.28.36.18.72.18.36-.38.72-.38.36-.27.72-.27.36.63.72.63.36-.15.72-.15.36-.18.72-.18.36.26.72.26.36-.12.72-.12.36.26.72.26.36-.69.72-.69.36.55.72.55.36-.16.72-.16.36.01.72.01.36-.14.72-.14.36.28.72.28.36.06.72.06.36-.25.72-.25.36-.3.72-.3.36.23.72.23.36-.11.72-.11.36.33.72.33.36-.15.72-.15.36-.07.72-.07.36.06.72.06.36-.14.72-.14.36.15.72.15.36,0,.72,0,.36-.34.72-.34.36.26.72.26.36.23.72.23.36-.31.72-.31.36.1.72.1.36-.03.72-.03.36-.18.72-.18.36-.01.72-.01.36.28.72.28.36-.11.72-.11.36-.15.72-.15.36-.03.72-.03.36.41.72.41.36.08.72.08.36.09.72.09.36-.39.72-.39.36.08.72.08.36-.31.72-.31.36.06.72.06.36.3.72.3.36.07.72.07.36.1.72.1.36-.56.72-.56.36.53.72.53.36.06.72.06.36-.02.72-.02.36-.21.72-.21.36.24.72.24.36-.37.72-.37.36.15.72.15.36.23.72.23.36-.18.72-.18.36.25.72.25.36-.05.72-.05.36-.41.72-.41.36.01.72.01.36-.04.72-.04.36-.18.72-.18.36.69.72.69.36-.52.72-.52.36.1.72.1.36,0,.72,0,.36.31.72.31.36.01.72.01.36-.19.72-.19.36-.1.72-.1.36.25.72.25.36-.48.72-.48.36-.09.72-.09.36.1.72.1.36-.08.72-.08.36.67.72.67.36-.29.72-.29.36.25.72.25.36-.57.72-.57.36.31.72.31.36-.17.72-.17.36-.13.72-.13.36.15.72.15.36-.18.72-.18.36.29.72.29.36.07.72.07.36.18.72.18.36,0,.72,0,.36-.24.72-.24.36-.13.72-.13.36.42.72.42.36-.23.72-.23.36-.4.72-.4.36.05.72.05.36-.03.72-.03.36.44.72.44.36-.16.72-.16.36.29.72.29.36-.58.72-.58.36.35.72.35.36.19.72.19.36-.19.72-.19.36.07.72.07.36-.41.72-.41.36.36.72.36.36,0,.72,0,.36-.15.72-.15.36.21.72.21.36-.14.72-.14.36.03.72.03.36.34.72.34.36-.47.72-.47.36.05.72.05.36.32.72.32.36-.08.72-.08.36-.06.72-.06.36.21.72.21.36-.09.72-.09.36-.4.72-.4.36.43.72.43.36-.37.72-.37.36-.26.72-.26.36.28.72.28.36-.19.72-.19.36.31.72.31.36-.02.72-.02.36-.18.72-.18.36-.17.72-.17.36.07.72.07.36.57.72.57.36-.22.72-.22.36-.03.72-.03.36.13.72.13.36-.41.72-.41.36-.07.72-.07.36.28.72.28.36-.32.72-.32.36.07.72.07.36.3.72.3.36-.37.72-.37.36.02.72.02.36.43.72.43.36.05.72.05.36.05.72.05.36-.45.72-.45.36-.04.72-.04.36.3.72.3.36.18.72.18.36-.16.72-.16.36-.31.72-.31.36.37.72.37.36,0,.72,0,.36-.04.72-.04.36-.26.72-.26.36.39.72.39.36,0,.72,0,.36-.16.72-.16.36.11.72.11.36-.4.72-.4.36.07.72.07.36,0,.72,0,.36.41.72.41.36-.2.72-.2.36-.25.72-.25.36.48.72.48.36-.51.72-.51.36.3.72.3.36-.35.72-.35.36.52.72.52.36-.03.72-.03.36-.3.72-.3.36.11.72.11.36-.18.72-.18.36-.01.72-.01.36.13.72.13.36-.16.72-.16.36.1.72.1.36,0,.72,0,.36-.26.72-.26.36.54.72.54.36-.28.72-.28.36-.12.72-.12.36.12.72.12.36.24.72.24.36.19.72.19.36-.25.72-.25.36-.05.72-.05.36-.1.72-.1.36.36.72.36.36-.06.72-.06.36-.51.72-.51.36.46.72.46.36-.34.72-.34.36-.18.72-.18.36.09.72.09.36.27.72.27.36.03.72.03.36.2.72.2.36-.43.72-.43.36.52.72.52.36-.14.72-.14.36-.18.72-.18.36.13.72.13.36-.36.72-.36.36.37.72.37.36-.11.72-.11.36.08.72.08.36.21.72.21.36-.03.72-.03.36-.03.72-.03.36-.36.72-.36.36.05.72.05.36-.27.72-.27.36-.04.72-.04.36.17.72.17.36.21.72.21.36-.11.72-.11.36.13.72.13.36-.34.72-.34.36.29.72.29.36-.19.72-.19.36.14.72.14.36-.24.72-.24.36,0,.72,0,.36.59.72.59.36-.03.72-.03.36-.04.72-.04.36-.29.72-.29.36-.22.73-.22.36-.01.73-.01.36.56.73.56.36-.34.72-.34.36-.18.72-.18.36.2.72.2.36.2.72.2.36-.43.72-.43.36.04.72.04.36.31.72.31.36.2.73.2.36.04.73.04.36-.32.73-.32.36-.19.73-.19.36.03.73.03.36.34.73.34.36-.13.73-.13.36-.14.73-.14.36-.24.73-.24.36.18.73.18.36.13.73.13.36.22.73.22.36-.42.72-.42.36.21.72.21.36-.17.72-.17.36.39.73.39.36.03.73.03.36-.42.73-.42.36.13.73.13.36.33.73.33.36-.51.73-.51.36.3.73.3.36.15.73.15.37-.26.73-.26.36.4.73.4.36-.64.73-.64.36.46.73.46.37-.04.73-.04.37.01.73.01.37-.47.73-.47.37.13.73.13c.24,0,.48.43.72.44s.52-.5.76-.48.48.14.72.17.4.61.64.65.47.04.71.09.55-.25.78-.19.5.03.73.09.4.34.63.42.47.13.69.21.57-.11.79-.02.41.3.62.4.47.15.69.27.15.72.36.84.47.14.67.26.47.16.67.29.4.27.59.41.31.38.5.53.34.33.52.49.45.22.62.39.35.33.51.5.24.43.4.61.63.1.78.28.01.61.16.8.15.47.29.67.23.41.36.62.32.36.44.56.71.16.82.37-.18.63-.08.85.32.38.42.6.39.37.47.59-.14.56-.07.79.25.42.32.66.23.44.29.67.3.43.35.67-.06.51-.02.75-.33.53-.31.77.22.45.24.69-.09.48-.08.72.19.47.19.71c0,.36-.22.36-.22.71s.34.36.34.71-.1.36-.1.71.27.36.27.71-.54.36-.54.71.03.36.03.71.63.36.63.72-.68.36-.68.72.08.36.08.72.12.36.12.72.41.36.41.72-.48.36-.48.72.14.36.14.72.32.36.32.72-.54.36-.54.72.55.36.55.72-.4.36-.4.72.19.36.19.72-.03.36-.03.72-.26.36-.26.72-.04.36-.04.72.33.36.33.72.19.36.19.72-.33.36-.33.72-.11.36-.11.72.49.36.49.72-.35.36-.35.72.27.36.27.72-.04.36-.04.72-.01.36-.01.72-.37.36-.37.72.5.36.5.72-.14.36-.14.72-.23.36-.23.72.19.36.19.72.09.36.09.72-.44.36-.44.72.13.36.13.72.15.36.15.72-.13.36-.13.72-.09.36-.09.72-.02.36-.02.72-.03.36-.03.72-.08.36-.08.72.53.36.53.72-.56.36-.56.72.18.36.18.72.32.36.32.72-.09.36-.09.72.19.36.19.72-.3.36-.3.72-.34.36-.34.72.47.36.47.72-.31.36-.31.72.24.36.24.72.19.36.19.72-.2.36-.2.72.19.36.19.72-.34.36-.34.72-.21.36-.21.72.4.36.4.72-.12.36-.12.72-.07.36-.07.72-.2.36-.2.72.4.36.4.72.2.36.2.72-.57.36-.57.72.17.36.17.72.38.36.38.72.03.36.03.72-.3.36-.3.72.19.36.19.72-.34.36-.34.72.17.36.17.72.07.36.07.72.07.36.07.72-.12.36-.12.72.28.36.28.72-.05.36-.05.72-.02.36-.02.72.02.36.02.72-.57.36-.57.72.32.36.32.72-.17.36-.17.72-.05.36-.05.72.44.36.44.72-.12.36-.12.72-.19.36-.19.72.31.36.31.72-.35.36-.35.72.2.36.2.72.14.36.14.72-.06.36-.06.72-.19.36-.19.72.29.36.29.72-.04.36-.04.72-.49.36-.49.72.17.36.17.72.06.36.06.72.18.36.18.72-.34.36-.34.72.27.36.27.72.2.36.2.72-.28.36-.28.72.13.36.13.72.17.36.17.72-.08.36-.08.72-.31.36-.31.72.43.36.43.72-.31.36-.31.72-.34.36-.34.71.09.36.09.71.52.36.52.72-.17.36-.17.72-.07.36-.07.72.02.36.02.72.07.36.07.72.02.36.02.72,0,.36,0,.72-.47.36-.47.72.39.36.39.72-.4.36-.4.72.4.36.4.72-.24.36-.24.72.41.36.41.72-.03.36-.03.72.1.36.1.72-.49.36-.49.72.26.36.26.72-.08.36-.08.72.13.36.13.72.04.36.04.72.1.36.1.72-.48.36-.48.72.3.36.3.72-.41.36-.41.72.6.36.6.72-.23.36-.23.72.07.36.07.72.23.36.23.72-.01.36-.01.72-.18.36-.18.72.12.36.12.72.05.36.05.72-.24.36-.24.72-.03.36-.03.72.14.36.14.72-.4.36-.4.72.23.36.23.72-.24.36-.24.72-.09.36-.09.72.61.36.61.72-.4.36-.4.72.31.36.31.72.06.36.06.72-.52.36-.52.72.65.36.65.72-.58.36-.58.72.12.36.12.72.15.36.15.72-.12.36-.12.72-.02.36-.02.72-.23.36-.23.72.67.36.67.72,0,.36,0,.73-.4.36-.4.72.03.36.03.72-.25.36-.25.73.23.36.23.73-.26.36-.26.72.24.36.24.72-.22.36-.22.73.6.36.6.73-.5.37-.5.73-.13.37-.13.73c0,.24.25.48.24.72s.28.5.26.74.1.51.07.75-.49.42-.53.66.24.54.19.77-.33.43-.39.66-.32.41-.39.64.18.56.1.79-.58.3-.66.53.13.57.03.79-.05.51-.16.73-.59.24-.71.45.16.64.04.84-.13.5-.26.7-.58.2-.71.4-.03.58-.18.77-.66.1-.81.28.1.72-.06.9-.55.16-.72.33-.54.14-.71.3-.08.61-.27.77-.56.08-.75.23-.12.63-.31.78-.38.32-.58.46-.56.04-.76.17-.27.5-.48.62-.58-.05-.8.06-.39.29-.61.39-.59-.15-.81-.06-.21.77-.43.85-.47.13-.7.21-.59-.28-.82-.21-.48.04-.71.1-.39.43-.63.48-.44.29-.68.33-.53-.28-.77-.25-.48-.02-.72,0-.47.1-.71.11-.48.09-.72.09Z"/></svg>