<?xml version="1.0" encoding="UTF-8"?><svg id="Layer_1" xmlns="http://www.w3.org/2000/svg" viewBox="0 0 514.77 185"><path d="M475.61,174.04c-.36,0-.36-.13-.72-.13s-.36.19-.72.19-.36.05-.72.05-.36.14-.72.14-.36-.05-.72-.05-.36-.42-.72-.42-.36.1-.72.1-.36.44-.72.44-.36-.27-.72-.27-.36-.03-.72-.03-.36-.26-.72-.26-.36.56-.72.56-.36-.23-.72-.23-.36.14-.72.14-.36-.08-.72-.08-.36-.25-.72-.25-.36-.09-.72-.09-.36.23-.72.23-.36.35-.72.35-.36-.66-.72-.66-.36.04-.72.04-.36.41-.72.41-.36.18-.72.18-.36-.49-.72-.49-.36.32-.72.32-.36-.38-.72-.38-.36.01-.72.01-.36.49-.72.49-.36-.15-.72-.15-.36.19-.72.19-.36-.07-.72-.07-.36-.51-.72-.51-.36.24-.72.24-.36.14-.72.14-.36.12-.72.12-.36-.32-.72-.32-.36.33-.72.33-.36-.18-.72-.18-.36-.43-.72-.43-.36.49-.72.49-.36-.04-.72-.04-.36-.39-.72-.39-.36-.01-.72-.01-.36.36-.72.36-.36-.36-.72-.36-.36.37-.72.37-.36-.3-.72-.3-.36.14-.72.14-.36-.14-.72-.14-.36.36-.72.36-.36-.18-.72-.18-.36.03-.72.03-.36-.29-.72-.29-.36.64-.72.64-.36-.48-.72-.48-.36-.14-.72-.14-.36.6-.72.6-.36-.49-.72-.49-.36.44-.72.44-.36-.08-.72-.08-.36-.15-.72-.15-.36.24-.72.24-.36.04-.72.04-.36-.05-.72-.05-.36,0-.72,0-.36-.16-.72-.16-.36-.26-.72-.26-.36-.11-.72-.11-.36.62-.72.62-.36-.54-.72-.54-.36.31-.72.31-.36.06-.72.06-.36-.24-.72-.24-.36.09-.72.09-.36-.37-.72-.37-.36.13-.72.13-.36.25-.72.25-.36.18-.72.18-.36-.13-.72-.13-.36.06-.72.06-.36.14-.72.14-.36.03-.72.03-.36-.39-.72-.39-.36-.25-.72-.25-.36.03-.72.03-.36-.02-.72-.02-.36.11-.72.11-.36.49-.72.49-.36-.51-.72-.51-.36.13-.72.13-.36.11-.72.11-.36-.12-.72-.12-.36-.01-.72-.01-.36.25-.72.25-.36.17-.72.17-.36-.16-.72-.16-.36-.24-.72-.24-.36.19-.72.19-.36-.31-.72-.31-.36.06-.72.06-.36-.07-.72-.07-.36.34-.72.34-.36-.26-.72-.26-.36.04-.72.04-.36.24-.72.24-.36-.34-.72-.34-.36.49-.72.49-.36-.02-.72-.02-.36-.56-.72-.56-.36.59-.72.59-.36.02-.72.02-.36-.61-.72-.61-.36.2-.72.2-.36-.09-.72-.09-.36.42-.72.42-.36.11-.72.11-.36-.29-.72-.29-.36.04-.72.04-.36.06-.72.06-.36-.44-.72-.44-.36.54-.72.54-.36-.46-.72-.46-.36.08-.72.08-.36-.11-.72-.11-.36.56-.72.56-.36-.43-.72-.43-.36-.15-.72-.15-.36.62-.72.62-.36-.03-.72-.03-.36-.52-.72-.52-.36-.08-.72-.08-.36.53-.72.53-.36-.55-.72-.55-.36.25-.72.25-.36.24-.72.24-.36.13-.72.13-.36-.5-.72-.5-.36.46-.72.46-.36,0-.72,0-.36-.45-.72-.45-.36.02-.72.02-.36-.02-.72-.02-.36.34-.72.34-.36-.29-.72-.29-.36.12-.72.12-.36.23-.72.23-.36.03-.72.03-.36.11-.72.11-.36-.47-.72-.47-.36-.16-.72-.16-.36.25-.72.25-.36-.22-.72-.22-.36.04-.72.04-.36.36-.72.36-.36-.12-.72-.12-.36-.26-.72-.26-.36.37-.72.37-.36-.04-.72-.04-.36-.07-.72-.07-.36-.31-.72-.31-.36.31-.72.31-.36-.13-.72-.13-.36.3-.72.3-.36-.3-.72-.3-.36.29-.72.29-.36.11-.72.11-.36-.22-.72-.22-.36-.38-.72-.38-.36.62-.72.62-.36-.13-.72-.13-.36-.22-.72-.22-.36.23-.72.23-.36-.37-.72-.37-.36-.1-.72-.1-.36.21-.72.21-.36,0-.72,0-.36-.12-.72-.12-.36.05-.72.05-.36.42-.72.42-.36-.25-.72-.25-.36.2-.72.2-.36.08-.72.08-.36.05-.72.05-.36-.15-.72-.15-.36-.07-.72-.07-.36-.25-.72-.25-.36.41-.72.41-.36-.51-.72-.51-.36.26-.72.26-.36-.13-.72-.13-.36-.23-.72-.23-.36.47-.72.47-.36-.36-.72-.36-.36.2-.72.2-.36-.1-.72-.1-.36-.12-.72-.12-.36.58-.72.58-.36-.3-.72-.3-.36-.16-.72-.16-.36.18-.72.18-.36.1-.72.1-.36-.15-.72-.15-.36-.03-.72-.03-.36.05-.72.05-.36.16-.72.16-.36,0-.72,0-.36-.36-.72-.36-.36.21-.72.21-.36.1-.72.1-.36.13-.72.13-.36-.13-.72-.13-.36.02-.72.02-.36.16-.72.16-.36-.43-.72-.43-.36.18-.72.18-.36.14-.72.14-.36-.09-.72-.09-.36.15-.72.15-.36-.44-.72-.44-.36.21-.72.21-.36.27-.72.27-.36-.57-.72-.57-.36.05-.72.05-.36.18-.72.18-.36.35-.72.35-.36-.42-.72-.42-.36-.16-.72-.16-.36.02-.72.02-.36.52-.72.52-.36-.22-.72-.22-.36-.35-.72-.35-.36.19-.72.19-.36.12-.72.12-.36-.26-.72-.26-.36.6-.72.6-.36-.52-.72-.52-.36-.18-.72-.18-.36.21-.72.21-.36.02-.72.02-.36-.13-.72-.13-.36.6-.72.6-.36-.65-.72-.65-.36.2-.72.2-.36.01-.72.01-.36-.07-.72-.07-.36.3-.72.3-.36-.19-.72-.19-.36-.11-.72-.11-.36.29-.72.29-.36-.03-.72-.03-.36.2-.72.2-.36-.38-.72-.38-.36.36-.72.36-.36-.21-.72-.21-.36-.07-.72-.07-.36-.1-.72-.1-.36.39-.72.39-.36-.48-.72-.48-.36.44-.72.44-.36.07-.72.07-.36-.5-.72-.5-.36-.08-.72-.08-.36.5-.72.5-.36-.28-.72-.28-.36-.14-.72-.14-.36-.12-.72-.12-.36.16-.72.16-.36-.02-.72-.02-.36.31-.72.31-.36,0-.72,0-.36-.28-.72-.28-.36.19-.72.19-.36-.36-.72-.36-.36.47-.72.47-.36-.48-.72-.48-.36.54-.72.54-.36-.07-.72-.07-.36.17-.72.17-.36-.51-.72-.51-.36.02-.72.02-.36-.11-.72-.11-.36.05-.72.05-.36.07-.72.07-.36.02-.72.02-.36.4-.72.4-.36-.52-.72-.52-.36-.07-.72-.07-.36.28-.72.28-.36-.21-.72-.21-.36.4-.72.4-.36-.22-.72-.22-.36.25-.72.25-.36-.29-.72-.29-.36-.02-.72-.02-.36.01-.72.01-.36-.16-.72-.16-.36.6-.72.6-.36-.55-.72-.55-.36-.07-.72-.07-.36.4-.72.4-.36-.34-.72-.34-.36.54-.72.54-.36-.06-.72-.06-.36-.22-.72-.22-.36-.25-.72-.25-.36,0-.72,0-.36.17-.72.17-.36-.21-.72-.21-.36.5-.72.5-.36-.45-.72-.45-.36.37-.72.37-.36-.44-.72-.44-.36.28-.72.28-.36.05-.72.05-.36-.31-.72-.31-.36.41-.72.41-.36.16-.72.16-.36-.55-.72-.55-.36.47-.72.47-.36.07-.72.07-.36-.07-.72-.07-.36-.04-.72-.04-.36.15-.72.15-.36-.37-.72-.37-.36.35-.72.35-.36-.63-.72-.63-.36.01-.72.01-.36.44-.72.44-.36-.07-.72-.07-.36.04-.72.04-.36-.32-.72-.32-.36.57-.72.57-.36-.61-.72-.61-.36.43-.72.43-.36-.38-.72-.38-.36.41-.72.41-.36-.28-.72-.28-.36-.18-.72-.18-.36.09-.72.09-.36.55-.72.55-.36-.27-.72-.27-.36-.22-.72-.22-.36-.07-.72-.07-.36,0-.72,0-.36.07-.72.07-.36-.1-.72-.1-.36.2-.72.2-.36.04-.72.04-.36.04-.72.04-.36.21-.72.21-.36-.28-.72-.28-.36-.29-.72-.29-.36-.04-.72-.04-.36.55-.72.55-.36-.55-.72-.55-.36.39-.72.39-.36-.17-.72-.17-.36-.07-.72-.07-.36.1-.72.1-.36.25-.72.25-.36-.35-.72-.35-.36-.08-.72-.08-.36.5-.72.5-.36-.11-.72-.11-.36.22-.72.22-.36-.07-.72-.07-.36-.24-.72-.24-.36-.21-.72-.21-.36.46-.72.46-.36-.14-.72-.14-.36.01-.72.01-.36.13-.72.13-.36-.06-.72-.06-.36-.42-.72-.42-.36-.13-.72-.13-.36.19-.72.19-.36-.04-.72-.04-.36.53-.72.53-.36-.2-.72-.2-.36-.14-.72-.14-.36.35-.72.35-.36-.33-.72-.33-.36.07-.72.07-.36-.05-.72-.05-.36-.36-.72-.36-.36.46-.72.46-.36-.21-.72-.21-.36-.03-.72-.03-.36.06-.72.06-.36.16-.72.16-.36-.24-.72-.24-.36.43-.72.43-.36.04-.72.04-.36-.21-.72-.21-.36-.17-.72-.17-.36.17-.72.17-.36-.1-.72-.1-.36-.4-.72-.4-.36.55-.72.55-.36-.49-.72-.49-.36.61-.72.61-.36-.36-.72-.36-.36-.16-.72-.16-.36.4-.72.4-.36-.25-.72-.25-.36.11-.72.11-.36-.35-.72-.35-.36-.02-.72-.02-.36.54-.72.54-.36-.47-.72-.47-.36.17-.72.17-.36.41-.72.41-.36-.11-.72-.11-.36-.41-.72-.41-.36.25-.72.25-.36-.39-.72-.39-.36.06-.72.06-.36.41-.72.41-.36-.4-.72-.4-.36.4-.72.4-.36-.02-.72-.02-.36-.45-.72-.45-.36.58-.72.58-.36-.49-.72-.49-.36.57-.72.57-.36-.09-.72-.09-.36.03-.72.03-.36-.09-.72-.09-.36-.31-.72-.31-.36.27-.72.27-.36-.06-.72-.06-.36-.03-.72-.03-.36.14-.72.14-.36-.35-.72-.35-.36.12-.72.12-.36-.07-.72-.07-.36-.15-.72-.15-.36-.07-.72-.07-.36.07-.72.07-.36.21-.72.21-.36.16-.72.16-.36-.19-.72-.19-.36.04-.72.04-.36.29-.72.29-.36-.49-.72-.49-.36.56-.72.56-.36-.41-.72-.41-.36-.04-.72-.04-.36.11-.72.11-.36-.05-.72-.05-.36.1-.72.1-.36-.37-.72-.37-.36.6-.72.6-.36.04-.72.04-.36-.3-.72-.3-.36-.09-.72-.09-.36-.09-.72-.09-.36.07-.72.07-.36-.23-.72-.23-.36.02-.72.02-.36.04-.72.04-.36.15-.72.15-.36.12-.72.12-.36-.3-.72-.3-.36.4-.72.4-.36-.06-.72-.06-.36-.13-.72-.13-.36.42-.72.42-.36-.57-.72-.57-.36.01-.72.01-.36.4-.72.4-.36-.16-.72-.16-.36-.06-.72-.06-.36.23-.72.23-.36-.52-.72-.52-.36.57-.72.57-.36-.03-.72-.03-.36-.13-.72-.13-.36.22-.72.22-.36-.33-.72-.33-.36,0-.72,0-.36.36-.72.36-.36-.45-.72-.45-.36.24-.72.24-.36-.03-.72-.03-.36.21-.72.21-.36-.04-.72-.04-.36,0-.72,0-.36-.5-.72-.5-.36.34-.72.34-.36-.2-.72-.2-.36.26-.72.26-.36-.13-.72-.13-.36-.12-.72-.12-.36.28-.72.28-.36-.35-.72-.35-.36.47-.72.47-.36-.61-.72-.61-.36.18-.72.18-.36.24-.72.24-.36-.3-.72-.3-.36.18-.72.18-.36-.17-.72-.17-.36.24-.72.24-.36.22-.72.22-.36-.1-.72-.1-.36-.09-.72-.09-.36-.32-.72-.32-.36.5-.72.5-.36.07-.72.07-.36-.14-.72-.14-.36-.19-.72-.19-.36-.17-.72-.17-.36.27-.72.27-.36-.3-.72-.3-.36.02-.72.02-.36.36-.72.36-.36-.34-.72-.34-.36.49-.72.49-.36-.14-.72-.14-.36,0-.72,0-.36-.38-.72-.38-.36.06-.72.06-.36-.09-.72-.09-.36.17-.72.17-.36.38-.72.38-.36-.46-.72-.46-.36.33-.72.33-.36.08-.72.08-.36.03-.72.03-.36-.13-.72-.13-.36-.52-.72-.52-.36.38-.72.38-.36-.22-.72-.22-.36.33-.72.33-.36.18-.72.18-.36-.2-.72-.2-.36-.33-.72-.33-.36.5-.72.5-.36-.05-.72-.05-.36-.47-.72-.47-.36.43-.72.43-.36-.24-.72-.24-.36.32-.72.32-.36-.34-.72-.34-.36.05-.72.05-.36.07-.72.07-.36-.1-.72-.1-.36.34-.72.34-.36-.31-.72-.31-.36.35-.72.35-.36-.18-.72-.18-.36-.24-.72-.24-.36-.03-.72-.03-.36.39-.72.39-.36,0-.72,0-.36-.32-.72-.32-.36-.06-.72-.06-.36-.2-.72-.2-.36.34-.72.34-.36.29-.72.29-.36-.17-.72-.17-.36-.14-.72-.14-.36-.05-.72-.05-.36.37-.72.37-.36-.11-.72-.11-.36-.53-.72-.53-.36.14-.72.14-.36.24-.72.24-.36-.09-.72-.09-.36.34-.72.34-.36-.37-.72-.37-.36-.29-.72-.29-.36.47-.72.47-.36-.41-.73-.41-.36-.08-.73-.08-.36.14-.73.14-.36.33-.72.33-.36.07-.72.07-.36-.33-.72-.33-.36-.15-.72-.15-.36.4-.72.4-.36-.07-.72-.07-.36-.21-.72-.21-.36,0-.73,0-.36.09-.73.09-.36-.16-.73-.16-.36.34-.73.34-.36-.08-.73-.08-.36.03-.73.03-.36.02-.73.02-.36.02-.73.02-.36-.08-.73-.08-.36-.08-.73-.08-.36.24-.73.24-.36.1-.73.1-.36-.09-.72-.09-.36-.31-.72-.31-.36.47-.72.47-.36-.57-.73-.57-.36.19-.73.19-.36-.16-.73-.16-.36-.14-.73-.14-.36.14-.73.14-.36.01-.73.01-.36-.04-.73-.04-.36.43-.73.43-.37-.18-.73-.18-.36-.32-.73-.32-.36.58-.73.58-.36-.26-.73-.26-.37.07-.73.07-.37.18-.73.18-.37.05-.73.05-.37-.45-.73-.45c-.24,0-.48-.08-.72-.09s-.5.33-.74.32-.45-.34-.69-.37-.51.17-.75.13-.41-.44-.64-.49-.5.07-.74.02-.52.07-.75,0-.38-.39-.61-.47-.43-.2-.66-.29-.39-.3-.61-.4-.54.05-.76-.06-.56.05-.78-.07-.49-.14-.7-.26-.36-.35-.57-.48-.45-.21-.65-.34-.41-.28-.6-.42-.27-.45-.45-.61-.1-.62-.28-.78-.61-.04-.79-.2-.43-.26-.59-.43,0-.65-.17-.83-.33-.34-.48-.53-.62-.12-.77-.31.02-.61-.12-.81-.26-.39-.39-.6-.43-.3-.55-.5-.06-.51-.17-.72-.67-.2-.78-.42-.19-.45-.28-.68.16-.59.07-.81-.18-.44-.26-.67-.27-.42-.34-.65-.08-.48-.14-.71.21-.53.16-.77-.31-.42-.35-.66-.49-.42-.52-.66.26-.52.24-.76.33-.49.32-.74-.31-.47-.31-.71c0-.36.12-.36.12-.71s-.27-.36-.27-.71-.18-.36-.18-.71.37-.36.37-.71.07-.36.07-.71-.43-.36-.43-.71.37-.36.37-.72-.04-.36-.04-.72-.41-.36-.41-.72.35-.36.35-.72.24-.36.24-.72-.58-.36-.58-.72.07-.36.07-.72.15-.36.15-.72.03-.36.03-.72.01-.36.01-.72-.21-.36-.21-.72-.03-.36-.03-.72.04-.36.04-.72.56-.36.56-.72-.06-.36-.06-.72.01-.36.01-.72-.03-.36-.03-.72-.52-.36-.52-.72.35-.36.35-.72.16-.36.16-.72-.29-.36-.29-.72.26-.36.26-.72.1-.36.1-.72-.41-.36-.41-.72.43-.36.43-.72-.41-.36-.41-.72.16-.36.16-.72.04-.36.04-.72-.16-.36-.16-.72.03-.36.03-.72.3-.36.3-.72-.34-.36-.34-.72.15-.36.15-.72-.29-.36-.29-.72.4-.36.4-.72.17-.36.17-.72-.49-.36-.49-.72.26-.36.26-.72-.17-.36-.17-.72.36-.36.36-.72,0-.36,0-.72,0-.36,0-.72-.08-.36-.08-.72-.45-.36-.45-.72.04-.36.04-.72.22-.36.22-.72.37-.36.37-.72-.22-.36-.22-.72-.22-.36-.22-.72.12-.36.12-.72-.31-.36-.31-.72.14-.36.14-.72-.16-.36-.16-.72.5-.36.5-.72-.22-.36-.22-.72.13-.36.13-.72-.41-.36-.41-.72.52-.36.52-.72-.35-.36-.35-.72.29-.36.29-.72-.41-.36-.41-.72.1-.36.1-.72-.07-.36-.07-.72-.1-.36-.1-.72.29-.36.29-.72.34-.36.34-.72-.46-.36-.46-.72,0-.36,0-.72-.04-.36-.04-.72.42-.36.42-.72-.21-.36-.21-.72.03-.36.03-.72-.13-.36-.13-.72.09-.36.09-.72.06-.36.06-.72.07-.36.07-.72-.41-.36-.41-.72.1-.36.1-.72.38-.36.38-.72-.36-.36-.36-.72.3-.36.3-.72-.29-.36-.29-.72.1-.36.1-.72.19-.36.19-.72-.01-.36-.01-.72-.29-.36-.29-.72.03-.36.03-.72.04-.36.04-.72.35-.36.35-.72-.3-.36-.3-.72.11-.36.11-.72.27-.36.27-.72-.02-.36-.02-.72-.43-.36-.43-.72.05-.36.05-.72-.24-.36-.24-.72.28-.36.28-.72-.12-.36-.12-.72,0-.36,0-.72-.1-.36-.1-.72.55-.36.55-.72-.68-.36-.68-.72.7-.36.7-.72,0-.36,0-.72-.33-.36-.33-.71-.1-.36-.1-.71.34-.36.34-.72-.27-.36-.27-.72,0-.36,0-.72.08-.36.08-.72-.35-.36-.35-.72.36-.36.36-.72,0-.36,0-.72.09-.36.09-.72-.43-.36-.43-.72.24-.36.24-.72.24-.36.24-.72-.29-.36-.29-.72.19-.36.19-.72.01-.36.01-.72-.42-.36-.42-.72.51-.36.51-.72-.46-.36-.46-.72.17-.36.17-.72-.14-.36-.14-.72,0-.36,0-.72.39-.36.39-.72-.14-.36-.14-.72-.32-.36-.32-.72.42-.36.42-.72-.2-.36-.2-.72.37-.36.37-.72-.39-.36-.39-.72-.26-.36-.26-.72.51-.36.51-.72.09-.36.09-.72-.47-.36-.47-.72.18-.36.18-.72.24-.36.24-.72.05-.36.05-.72-.22-.36-.22-.72-.17-.36-.17-.72.1-.36.1-.72.29-.36.29-.72-.44-.36-.44-.72-.02-.36-.02-.72.49-.36.49-.72-.06-.36-.06-.72.04-.36.04-.72-.1-.36-.1-.72-.3-.36-.3-.72.49-.36.49-.72-.04-.36-.04-.72-.36-.36-.36-.72.36-.36.36-.72-.04-.36-.04-.72-.42-.36-.42-.72.51-.36.51-.72-.69-.36-.69-.73.56-.36.56-.72-.4-.36-.4-.72.16-.36.16-.73-.07-.36-.07-.73.21-.36.21-.72-.14-.36-.14-.72-.16-.36-.16-.73.13-.36.13-.73-.09-.37-.09-.73.41-.37.41-.73c0-.24-.05-.47-.04-.71s.09-.47.11-.71-.55-.54-.52-.78.52-.42.56-.65.21-.44.25-.68-.44-.59-.38-.83.47-.38.54-.61-.07-.53,0-.76.12-.47.21-.7.45-.34.54-.56.29-.39.39-.61-.1-.58.01-.8.33-.37.45-.58.44-.29.57-.49-.18-.7-.05-.9.26-.42.4-.62.81.02.96-.17.31-.35.47-.53.33-.33.5-.5.07-.6.24-.77.36-.32.54-.48.57-.07.75-.22.25-.44.45-.59.27-.45.46-.59.36-.33.57-.46.44-.21.65-.33.48-.13.69-.24.35-.38.57-.49.6.17.83.08.38-.31.61-.4.5,0,.73-.07.37-.4.6-.47.5.02.73-.04.36-.61.6-.66.52.11.76.08.48-.06.72-.09.49.03.73.01.47-.25.71-.26.49.53.73.53c.36,0,.36-.63.72-.63s.36.37.72.37.36.12.72.12.36-.13.72-.13.36.15.72.15.36-.09.72-.09.36-.04.72-.04.36-.29.72-.29.36.32.72.32.36-.33.72-.33.36.4.72.4.36-.23.72-.23.36-.18.72-.18.36-.04.72-.04.36.54.72.54.36-.41.72-.41.36.1.72.1.36.27.72.27.36-.11.72-.11.36-.2.72-.2.36.23.72.23.36-.19.72-.19.36.06.72.06.36-.06.72-.06.36.07.72.07.36.01.72.01.36-.3.72-.3.36.31.72.31.36.1.72.1.36-.03.72-.03.36-.28.72-.28.36.53.72.53.36-.69.72-.69.36.53.72.53.36-.26.72-.26.36.22.72.22.36-.2.72-.2.36.05.72.05.36.04.72.04.36.12.72.12.36-.32.72-.32.36.47.72.47.36-.14.72-.14.36-.21.72-.21.36.08.72.08.36.14.72.14.36.05.72.05.36-.55.72-.55.36.46.72.46.36.02.72.02.36-.01.72-.01.36.11.72.11.36-.21.72-.21.36-.28.72-.28.36.49.72.49.36-.6.72-.6.36.48.72.48.36-.08.72-.08.36-.17.72-.17.36.13.72.13.36-.37.72-.37.36.51.72.51.36.11.72.11.36-.28.72-.28.36-.08.72-.08.36.23.72.23.36-.24.72-.24.36.46.72.46.36-.15.72-.15.36-.45.72-.45.36.25.72.25.36.06.72.06.36-.34.72-.34.36.06.72.06.36.47.72.47.36-.35.72-.35.36.42.72.42.36-.67.72-.67.36.47.72.47.36.11.72.11.36-.54.72-.54.36.62.72.62.36-.45.72-.45.36.22.72.22.36.14.72.14.36.12.72.12.36-.45.72-.45.36-.05.72-.05.36.1.72.1.36,0,.72,0,.36-.17.72-.17.36.58.72.58.36-.27.72-.27.36-.03.72-.03.36-.28.72-.28.36.16.72.16.36.2.72.2.36-.3.72-.3.36.13.72.13.36.33.72.33.36-.5.72-.5.36.06.72.06.36.47.72.47.36.04.72.04.36-.19.72-.19.36-.5.72-.5.36.03.72.03.36.12.72.12.36.23.72.23.36-.35.72-.35.36.62.72.62.36-.14.72-.14.36.08.72.08.36-.33.72-.33.36.02.72.02.36-.27.72-.27.36.15.72.15.36,0,.72,0,.36.04.72.04.36-.21.72-.21.36.33.72.33.36.09.72.09.36-.29.72-.29.36.11.72.11.36.19.72.19.36-.02.72-.02.36-.4.72-.4.36,0,.72,0,.36.67.72.67.36-.37.72-.37.36.18.72.18.36.03.72.03.36.16.72.16.36-.66.72-.66.36.69.72.69.36-.4.72-.4.36-.22.72-.22.36.32.72.32.36.08.72.08.36-.48.72-.48.36.41.72.41.36.06.72.06.36.13.72.13.36-.38.72-.38.36.36.72.36.36-.49.72-.49.36.05.72.05.36.14.72.14.36.22.72.22.36-.5.72-.5.36.54.72.54.36-.23.72-.23.36-.22.72-.22.36.5.72.5.36-.41.72-.41.36-.2.72-.2.36.17.72.17.36.45.72.45.36-.59.72-.59.36,0,.72,0,.36.49.72.49.36-.28.72-.28.36.06.72.06.36.21.72.21.36-.24.72-.24.36-.06.72-.06.36.24.72.24.36.15.72.15.36,0,.72,0,.36-.56.72-.56.36.04.72.04.36.24.72.24.36-.19.72-.19.36-.03.72-.03.36.18.72.18.36,0,.72,0,.36-.11.72-.11.36.06.72.06.36-.17.72-.17.36.53.72.53.36.11.72.11.36-.04.72-.04.36-.29.72-.29.36-.26.72-.26.36.02.72.02.36.55.72.55.36-.3.72-.3.36-.27.72-.27.36.34.72.34.36-.42.72-.42.36.37.72.37.36-.04.72-.04.36-.36.72-.36.36.09.72.09.36,0,.72,0,.36.51.72.51.36-.1.72-.1.36-.2.72-.2.36-.01.72-.01.36-.03.72-.03.36.32.72.32.36,0,.72,0,.36-.54.72-.54.36.05.72.05.36.24.72.24.36-.04.72-.04.36-.14.72-.14.36-.05.72-.05.36.49.72.49.36-.48.72-.48.36.36.72.36.36-.31.72-.31.36.39.72.39.36-.46.72-.46.36-.08.72-.08.36.71.72.71.36-.16.72-.16.36,0,.72,0,.36-.4.72-.4.36.43.72.43.36.06.72.06.36-.39.72-.39.36.17.72.17.36.1.72.1.36-.36.72-.36.36-.08.72-.08.36.31.72.31.36.32.72.32.36-.59.72-.59.36.21.72.21.36.19.72.19.36-.07.72-.07.36-.1.72-.1.36-.18.72-.18.36.11.72.11.36.08.72.08.36,0,.72,0,.36.34.72.34.36-.22.72-.22.36-.45.72-.45.36.46.72.46.36.16.72.16.36-.16.72-.16.36-.24.72-.24.36.3.72.3.36-.23.72-.23.36.02.72.02.36-.18.72-.18.36.27.72.27.36-.24.72-.24.36.4.72.4.36,0,.72,0,.36-.54.72-.54.36.37.72.37.36.22.72.22.36-.35.72-.35.36-.09.72-.09.36.25.72.25.36-.03.72-.03.36.2.72.2.36.07.72.07.36.01.72.01.36-.27.72-.27.36-.06.72-.06.36.2.72.2.36.06.72.06.36-.44.72-.44.36.46.72.46.36-.36.72-.36.36-.27.72-.27.36.68.72.68.36-.66.72-.66.36.38.72.38.36-.36.72-.36.36.17.72.17.36.42.72.42.36-.15.72-.15.36-.3.72-.3.36.37.72.37.36-.28.72-.28.36.28.72.28.36-.2.72-.2.36-.3.72-.3.36.6.72.6.36-.49.72-.49.36-.05.72-.05.36.54.72.54.36-.25.72-.25.36,0,.72,0,.36-.32.72-.32.36.21.72.21.36-.29.72-.29.36.17.72.17.36-.05.72-.05.36.47.72.47.36-.4.72-.4.36-.13.72-.13.36.17.72.17.36-.24.72-.24.36.31.72.31.36-.19.72-.19.36.05.72.05.36.47.72.47.36-.4.72-.4.36.17.72.17.36-.31.72-.31.36.46.72.46.36-.32.72-.32.36-.1.72-.1.36.31.72.31.36.01.72.01.36-.11.72-.11.36-.35.72-.35.36.49.72.49.36-.48.72-.48.36.51.72.51.36-.19.72-.19.36-.2.72-.2.36.56.72.56.36-.19.72-.19.36-.5.72-.5.36.16.72.16.36.17.72.17.36.31.72.31.36-.49.72-.49.36.5.72.5.36-.67.72-.67.36.43.72.43.36-.2.72-.2.36.04.72.04.36-.1.72-.1.36-.05.72-.05.36.52.72.52.36-.64.72-.64.36.04.72.04.36.32.72.32.36-.14.72-.14.36.31.72.31.36-.1.72-.1.36-.42.72-.42.36.67.72.67.36-.59.72-.59.36.22.72.22.36.26.72.26.36-.32.72-.32.36-.19.72-.19.36.5.72.5.36-.1.72-.1.36.05.72.05.36-.36.72-.36.36.48.72.48.36-.3.72-.3.36.3.72.3.36-.22.72-.22.36-.19.72-.19.36.3.72.3.36.15.72.15.36-.3.72-.3.36-.21.72-.21.36.08.72.08.36.27.72.27.36.02.72.02.36-.06.72-.06.36.14.72.14.36-.3.72-.3.36-.22.72-.22.36.39.72.39.36-.18.72-.18.36.28.72.28.36-.2.72-.2.36-.06.72-.06.36-.29.72-.29.36.29.72.29.36.3.72.3.36-.52.72-.52.36.5.72.5.36-.4.72-.4.36.48.72.48.36-.19.72-.19.36.11.72.11.36.03.72.03.36-.34.72-.34.36-.1.72-.1.36.46.72.46.36.04.72.04.36-.08.72-.08.36-.1.72-.1.36-.12.72-.12.36-.07.72-.07.36.35.72.35.36-.35.72-.35.36.23.72.23.36-.52.72-.52.36.19.72.19.36-.03.72-.03.36-.08.72-.08.36.44.72.44.36-.45.72-.45.36.42.72.42.36-.3.72-.3.36.2.72.2.36-.21.72-.21.36-.05.72-.05.36.15.72.15.36-.12.72-.12.36.27.72.27.36-.04.72-.04.36.01.72.01.36.19.72.19.36-.08.72-.08.36-.29.72-.29.36.05.72.05.36.34.72.34.36-.24.72-.24.36-.06.72-.06.36-.02.72-.02.36.03.72.03.36.29.72.29.36-.12.72-.12.36-.32.72-.32.36.36.72.36.36-.03.72-.03.36-.29.72-.29.36.14.72.14.36.04.72.04.36-.36.72-.36.36.16.72.16.36.23.72.23.36.13.72.13.36-.47.72-.47.36.59.72.59.36-.12.72-.12.36-.09.72-.09.36.21.72.21.36-.6.72-.6.36-.04.72-.04.36.64.72.64.36-.08.72-.08.36-.37.72-.37.36.07.72.07.36.13.72.13.36-.39.72-.39.36.41.72.41.36-.19.72-.19.36.22.72.22.36-.42.72-.42.36.37.72.37.36.2.72.2.36-.46.72-.46.36.3.72.3.36-.04.72-.04.36.09.72.09.36-.56.72-.56.36.09.72.09.36.11.72.11.36.25.72.25.36-.39.72-.39.36.05.72.05.36.02.72.02.36.3.72.3.36-.13.72-.13.36.29.72.29.36-.02.72-.02.36.01.72.01.36-.22.72-.22.36-.02.72-.02.36.01.72.01.36.1.72.1.36-.44.72-.44.36.29.72.29.36.11.72.11.36.26.72.26.36-.34.72-.34.36.03.72.03.36.07.72.07.36-.07.72-.07.36-.26.72-.26.36-.07.72-.07.36.32.72.32.36-.1.72-.1.36.08.72.08.36-.16.72-.16.36.47.72.47.36-.22.72-.22.36-.39.72-.39.36.56.72.56.36-.33.72-.33.36-.01.72-.01.36.26.72.26.36-.02.72-.02.36-.08.72-.08.36-.2.72-.2.36.11.72.11.36,0,.72,0,.36-.05.72-.05.36.18.72.18.36-.42.72-.42.36.63.72.63.36-.01.72-.01.36-.18.72-.18.36.17.72.17.36.03.72.03.36-.46.72-.46.36-.11.72-.11.36.52.72.52.36-.06.72-.06.36-.22.72-.22.36-.07.72-.07.36-.23.72-.23.36.62.72.62.36-.24.72-.24.36-.23.72-.23.36.36.72.36.36-.05.72-.05.36-.34.72-.34.36,0,.72,0,.36.49.72.49.36-.49.72-.49.36.14.72.14.36-.02.72-.02.36-.18.72-.18.36.59.72.59.36-.44.72-.44.36.3.72.3.36-.02.72-.02.36.12.72.12.36-.23.72-.23.36.21.72.21.36-.13.72-.13.36-.16.72-.16.36-.22.72-.22.36.26.72.26.36-.37.72-.37.36.36.72.36.36-.27.72-.27.36.15.72.15.36.26.72.26.36.02.72.02.36.02.72.02.36-.19.72-.19.36-.19.72-.19.36.48.72.48.36-.56.72-.56.36.21.72.21.36-.08.72-.08.36-.04.72-.04.36.19.72.19.36.34.72.34.36-.36.72-.36.36-.16.72-.16.36.52.72.52.36-.17.72-.17.36-.16.72-.16.36-.13.72-.13.36.18.72.18.36.22.72.22.36-.62.72-.62.36.44.72.44.36.23.72.23.36-.35.72-.35.36-.14.72-.14.36.06.72.06.36-.06.72-.06.36.14.72.14.36.22.72.22.36.09.72.09.36-.3.72-.3.36-.2.72-.2.36.07.72.07.36-.07.72-.07.36-.08.72-.08.36.03.72.03.36.2.72.2.36.23.72.23.36-.52.73-.52.36.64.73.64.36-.2.73-.2.36-.35.72-.35.36.5.72.5.36.08.72.08.36-.25.72-.25.36-.14.72-.14.36-.13.72-.13.36.35.72.35.36-.23.73-.23.36-.1.73-.1.36.25.73.25.36-.13.73-.13.36-.22.73-.22.36.46.73.46.36.09.73.09.36-.04.73-.04.36-.43.73-.43.36.55.73.55.36-.34.73-.34.36.04.73.04.36,0,.72,0,.36-.09.72-.09.36.02.72.02.36.22.73.22.36-.17.73-.17.36-.21.73-.21.36.14.73.14.36.02.73.02.36-.09.73-.09.36.33.73.33.36.12.73.12.37-.51.73-.51.36.45.73.45.36-.01.73-.01.36-.18.73-.18.37-.31.73-.31.37,0,.73,0,.37.49.73.49.37-.48.73-.48c.24,0,.5-.12.74-.11s.45.63.69.65.52-.39.76-.36.41.51.65.55.46.08.7.13.5-.07.73-.01.43.25.66.31.58-.24.81-.17.41.28.64.37.51.03.73.12.3.52.51.62.58-.08.79.03.28.5.48.62.41.24.62.37.66-.12.86.01.03.78.23.92.59.01.78.17.23.47.41.63.23.45.4.62.34.32.51.5.55.14.71.32.18.47.34.66.7.07.84.26.12.52.26.72.3.38.43.59.07.52.19.73.05.51.16.73.54.26.64.48.13.47.22.69.51.32.59.55-.04.54.03.76,0,.51.06.74,0,.49.07.73.28.43.33.66.41.42.45.66-.09.51-.06.75-.33.52-.31.76.31.46.32.7.16.48.16.73c0,.36-.56.36-.56.71s.35.36.35.71-.15.36-.15.71.35.36.35.71-.07.36-.07.71-.27.36-.27.71.13.36.13.72.17.36.17.72-.06.36-.06.72-.35.36-.35.72.18.36.18.72.04.36.04.72-.31.36-.31.72.61.36.61.72-.14.36-.14.72.19.36.19.72-.16.36-.16.72.06.36.06.72-.42.36-.42.72,0,.36,0,.72-.11.36-.11.72.25.36.25.72-.24.36-.24.72.56.36.56.72-.42.36-.42.72.38.36.38.72-.04.36-.04.72-.03.36-.03.72-.25.36-.25.72.21.36.21.72.25.36.25.72-.49.36-.49.72.19.36.19.72.15.36.15.72-.07.36-.07.72.2.36.2.72-.31.36-.31.72.27.36.27.72-.12.36-.12.72.03.36.03.72.1.36.1.72-.01.36-.01.72-.23.36-.23.72.13.36.13.72.13.36.13.72-.65.36-.65.72.22.36.22.72-.18.36-.18.72.26.36.26.72.08.36.08.72-.34.36-.34.72.48.36.48.72-.02.36-.02.72-.49.36-.49.72.24.36.24.72.32.36.32.72-.44.36-.44.72.48.36.48.72-.35.36-.35.72-.16.36-.16.72.47.36.47.72-.33.36-.33.72.44.36.44.72-.45.36-.45.72-.05.36-.05.72.33.36.33.72,0,.36,0,.72-.46.36-.46.72.03.36.03.72.37.36.37.72.12.36.12.72-.28.36-.28.72.38.36.38.72-.37.36-.37.72-.23.36-.23.72.31.36.31.72.31.36.31.72-.4.36-.4.72.13.36.13.72.01.36.01.72-.26.36-.26.72-.13.36-.13.72-.02.36-.02.72.64.36.64.72-.42.36-.42.72.45.36.45.72-.63.36-.63.72.64.36.64.72-.47.36-.47.72.02.36.02.72.06.36.06.72-.07.36-.07.72.2.36.2.72-.25.36-.25.72.39.36.39.72-.05.36-.05.72-.46.36-.46.72.09.36.09.72.34.36.34.72-.28.36-.28.72-.12.36-.12.72.05.36.05.72.2.36.2.72-.12.36-.12.72-.23.36-.23.72.71.36.71.72-.14.36-.14.72-.34.36-.34.72-.14.36-.14.72.38.36.38.72.16.36.16.71-.48.36-.48.71.51.36.51.72-.54.36-.54.72.36.36.36.72.17.36.17.72-.26.36-.26.72-.35.36-.35.72.39.36.39.72-.2.36-.2.72-.12.36-.12.72.54.36.54.72-.26.36-.26.72-.19.36-.19.72-.03.36-.03.72.33.36.33.72-.46.36-.46.72.66.36.66.72-.32.36-.32.72.32.36.32.72-.37.36-.37.72.2.36.2.72-.5.36-.5.72.32.36.32.72.07.36.07.72,0,.36,0,.72.07.36.07.72-.13.36-.13.72-.35.36-.35.72.4.36.4.72-.29.36-.29.72.26.36.26.72.08.36.08.72.23.36.23.72-.36.36-.36.72-.11.36-.11.72-.15.36-.15.72.44.36.44.72-.05.36-.05.72-.29.36-.29.72-.02.36-.02.72-.07.36-.07.72.18.36.18.72.27.36.27.72.04.36.04.72.04.36.04.72-.04.36-.04.72.12.36.12.72-.58.36-.58.72.47.36.47.72-.44.36-.44.72.02.36.02.72.12.36.12.72-.04.36-.04.72-.21.36-.21.73.33.36.33.72.33.36.33.72-.15.36-.15.73.07.36.07.73-.21.36-.21.72.07.36.07.72-.03.36-.03.73.04.36.04.73.24.37.24.73-.45.37-.45.73c0,.24-.02.48-.03.72s-.15.47-.16.71.26.51.23.75.19.52.15.76-.57.39-.62.63.22.54.16.78-.24.44-.31.67-.35.39-.43.62-.29.4-.38.62.43.69.34.91-.34.39-.44.61-.16.47-.27.68-.23.44-.35.64-.63.19-.76.39-.06.54-.2.73-.27.4-.42.59-.39.31-.54.49-.5.2-.66.38.14.79-.02.96-.61.08-.78.25-.54.12-.72.28-.29.38-.48.54-.26.45-.45.59-.36.33-.55.46-.31.41-.52.53-.44.22-.65.34-.52.06-.73.18-.51.05-.72.15-.26.58-.49.67-.39.35-.61.43-.65-.38-.88-.31-.36.46-.59.53-.52-.08-.75-.03-.4.39-.64.44-.46.2-.7.24-.52-.2-.76-.18-.47.08-.72.1-.47.24-.71.25-.49-.21-.73-.21Z"/></svg>