<?xml version="1.0" encoding="UTF-8"?><svg id="Layer_1" xmlns="http://www.w3.org/2000/svg" viewBox="0 0 514.77 185"><defs><style>.cls-1{fill:#59bce6;}</style></defs><path class="cls-1" d="M477.71,172.39c-.36,0-.36-.14-.72-.14s-.36-.16-.72-.16-.36.15-.72.15-.36.15-.72.15-.36-.64-.72-.64-.36.62-.72.62-.36-.2-.72-.2-.36.08-.72.08-.36-.09-.72-.09-.36.08-.72.08-.36-.15-.72-.15-.36.17-.72.17-.36-.2-.72-.2-.36-.05-.72-.05-.36.35-.72.35-.36-.27-.72-.27-.36-.14-.72-.14-.36-.1-.72-.1-.36.39-.72.39-.36.09-.72.09-.36-.47-.72-.47-.36.4-.72.4-.36-.3-.72-.3-.36.4-.72.4-.36-.56-.72-.56-.36-.01-.72-.01-.36.29-.72.29-.36-.35-.72-.35-.36.03-.72.03-.36-.02-.72-.02-.36.52-.72.52-.36-.32-.72-.32-.36.05-.72.05-.36-.17-.72-.17-.36.47-.72.47-.36-.21-.72-.21-.36.27-.72.27-.36-.22-.72-.22-.36.17-.72.17-.36.12-.72.12-.36-.38-.72-.38-.36-.28-.72-.28-.36.5-.72.5-.36-.02-.72-.02-.36.05-.72.05-.36.11-.72.11-.36-.44-.72-.44-.36-.17-.72-.17-.36-.01-.72-.01-.36.36-.72.36-.36.13-.72.13-.36.14-.72.14-.36-.04-.72-.04-.36-.15-.72-.15-.36-.47-.72-.47-.36.06-.72.06-.36.27-.72.27-.36-.17-.72-.17-.36.47-.72.47-.36-.6-.72-.6-.36.42-.72.42-.36-.22-.72-.22-.36-.27-.72-.27-.36.13-.72.13-.36-.01-.72-.01-.36.34-.72.34-.36-.15-.72-.15-.36.23-.72.23-.36-.52-.72-.52-.36.46-.72.46-.36-.04-.72-.04-.36-.07-.72-.07-.36.34-.72.34-.36-.5-.72-.5-.36,0-.72,0-.36-.03-.72-.03-.36.45-.72.45-.36-.15-.72-.15-.36-.2-.72-.2-.36-.07-.72-.07-.36.09-.72.09-.36-.06-.72-.06-.36.49-.72.49-.36-.05-.72-.05-.36-.32-.72-.32-.36-.19-.72-.19-.36-.04-.72-.04-.36.08-.72.08-.36.48-.72.48-.36-.19-.72-.19-.36-.16-.72-.16-.36,0-.72,0-.36-.08-.72-.08-.36.1-.72.1-.36-.27-.72-.27-.36.52-.72.52-.36-.33-.72-.33-.36.32-.72.32-.36.05-.72.05-.36-.43-.72-.43-.36.28-.72.28-.36-.11-.72-.11-.36-.22-.72-.22-.36.48-.72.48-.36-.21-.72-.21-.36-.23-.72-.23-.36-.18-.72-.18-.36.18-.72.18-.36.22-.72.22-.36-.4-.72-.4-.36.32-.72.32-.36-.29-.72-.29-.36-.04-.72-.04-.36.39-.72.39-.36-.22-.72-.22-.36.11-.72.11-.36.29-.72.29-.36-.39-.72-.39-.36.31-.72.31-.36-.42-.72-.42-.36.48-.72.48-.36-.47-.72-.47-.36,0-.72,0-.36.36-.72.36-.36-.34-.72-.34-.36-.09-.72-.09-.36.65-.72.65-.36-.59-.72-.59-.36.11-.72.11-.36.04-.72.04-.36.22-.72.22-.36.13-.72.13-.36-.25-.72-.25-.36.22-.72.22-.36-.17-.72-.17-.36-.24-.72-.24-.36.31-.72.31-.36.07-.72.07-.36-.46-.72-.46-.36.59-.72.59-.36-.43-.72-.43-.36.42-.72.42-.36-.07-.72-.07-.36-.51-.72-.51-.36.38-.72.38-.36-.2-.72-.2-.36.16-.72.16-.36-.34-.72-.34-.36.11-.72.11-.36-.09-.72-.09-.36.16-.72.16-.36-.25-.72-.25-.36.2-.72.2-.36-.08-.72-.08-.36-.04-.72-.04-.36.06-.72.06-.36.35-.72.35-.36.2-.72.2-.36-.02-.72-.02-.36-.4-.72-.4-.36.41-.72.41-.36-.28-.72-.28-.36-.2-.72-.2-.36-.17-.72-.17-.36.27-.72.27-.36-.07-.72-.07-.36-.19-.72-.19-.36,0-.72,0-.36.19-.72.19-.36-.14-.72-.14-.36.45-.72.45-.36-.37-.72-.37-.36.41-.72.41-.36-.31-.72-.31-.36-.14-.72-.14-.36.22-.72.22-.36.24-.72.24-.36-.23-.72-.23-.36-.24-.72-.24-.36.42-.72.42-.36-.16-.72-.16-.36-.11-.72-.11-.36.1-.72.1-.36.25-.72.25-.36-.14-.72-.14-.36-.33-.72-.33-.36.4-.72.4-.36.01-.72.01-.36.09-.72.09-.36-.25-.72-.25-.36-.19-.72-.19-.36.18-.72.18-.36-.03-.72-.03-.36.17-.72.17-.36-.09-.72-.09-.36.11-.72.11-.36-.54-.72-.54-.36.29-.72.29-.36-.26-.72-.26-.36.48-.72.48-.36.12-.72.12-.36-.06-.72-.06-.36-.22-.72-.22-.36-.03-.72-.03-.36-.12-.72-.12-.36.45-.72.45-.36-.54-.72-.54-.36-.14-.72-.14-.36.13-.72.13-.36.34-.72.34-.36-.17-.72-.17-.36-.18-.72-.18-.36.48-.72.48-.36.02-.72.02-.36-.46-.72-.46-.36-.06-.72-.06-.36-.04-.72-.04-.36.26-.72.26-.36.16-.72.16-.36-.42-.72-.42-.36.09-.72.09-.36.11-.72.11-.36.34-.72.34-.36-.56-.72-.56-.36.6-.72.6-.36-.03-.72-.03-.36-.2-.72-.2-.36.13-.72.13-.36-.47-.72-.47-.36.31-.72.31-.36-.13-.72-.13-.36.33-.72.33-.36-.34-.72-.34-.36.31-.72.31-.36.09-.72.09-.36-.14-.72-.14-.36-.28-.72-.28-.36-.11-.72-.11-.36.5-.72.5-.36-.09-.72-.09-.36-.51-.72-.51-.36.07-.72.07-.36.49-.72.49-.36-.49-.72-.49-.36.41-.72.41-.36.02-.72.02-.36-.41-.72-.41-.36.45-.72.45-.36-.21-.72-.21-.36.2-.72.2-.36-.25-.72-.25-.36.23-.72.23-.36-.27-.72-.27-.36-.12-.72-.12-.36-.12-.72-.12-.36.61-.72.61-.36.05-.72.05-.36-.24-.72-.24-.36-.31-.72-.31-.36.43-.72.43-.36.07-.72.07-.36-.37-.72-.37-.36.02-.72.02-.36.09-.72.09-.36.06-.72.06-.36.14-.72.14-.36-.12-.72-.12-.36-.38-.72-.38-.36.5-.72.5-.36-.57-.72-.57-.36.7-.72.7-.36-.41-.72-.41-.36.17-.72.17-.36-.47-.72-.47-.36.65-.72.65-.36-.37-.72-.37-.36-.27-.72-.27-.36.18-.72.18-.36.22-.72.22-.36-.26-.72-.26-.36.4-.72.4-.36.06-.72.06-.36-.03-.72-.03-.36-.29-.72-.29-.36.05-.72.05-.36-.3-.72-.3-.36.6-.72.6-.36-.34-.72-.34-.36-.04-.72-.04-.36.11-.72.11-.36.1-.72.1-.36,0-.72,0-.36-.49-.72-.49-.36.7-.72.7-.36-.44-.72-.44-.36.18-.72.18-.36-.05-.72-.05-.36-.02-.72-.02-.36.08-.72.08-.36.22-.72.22-.36-.56-.72-.56-.36.41-.72.41-.36-.5-.72-.5-.36.21-.72.21-.36-.03-.72-.03-.36-.02-.72-.02-.36.23-.72.23-.36.19-.72.19-.36-.49-.72-.49-.36.03-.72.03-.36.21-.72.21-.36-.01-.72-.01-.36.2-.72.2-.36-.38-.72-.38-.36.45-.72.45-.36.02-.72.02-.36-.49-.72-.49-.36.16-.72.16-.36-.08-.72-.08-.36.36-.72.36-.36.08-.72.08-.36-.68-.72-.68-.36.35-.72.35-.36-.08-.72-.08-.36.15-.72.15-.36.09-.72.09-.36-.43-.72-.43-.36.21-.72.21-.36.4-.72.4-.36-.46-.72-.46-.36.45-.72.45-.36-.36-.72-.36-.36-.18-.72-.18-.36.46-.72.46-.36-.52-.72-.52-.36.1-.72.1-.36-.13-.72-.13-.36.38-.72.38-.36.14-.72.14-.36-.29-.72-.29-.36.39-.72.39-.36-.29-.72-.29-.36.04-.72.04-.36-.31-.72-.31-.36.03-.72.03-.36,0-.72,0-.36.36-.72.36-.36.18-.72.18-.36-.29-.72-.29-.36.28-.72.28-.36-.16-.72-.16-.36-.09-.72-.09-.36-.3-.72-.3-.36-.08-.72-.08-.36.04-.72.04-.36.44-.72.44-.36-.48-.72-.48-.36.06-.72.06-.36-.05-.72-.05-.36.44-.72.44-.36-.12-.72-.12-.36-.1-.72-.1-.36.3-.72.3-.36.09-.72.09-.36-.59-.72-.59-.36.02-.72.02-.36-.1-.72-.1-.36.4-.72.4-.36-.36-.72-.36-.36.35-.72.35-.36.13-.72.13-.36-.53-.72-.53-.36.4-.72.4-.36-.02-.72-.02-.36-.25-.72-.25-.36.13-.72.13-.36.28-.72.28-.36.05-.72.05-.36-.14-.72-.14-.36-.16-.72-.16-.36.35-.72.35-.36-.27-.72-.27-.36-.26-.72-.26-.36.48-.72.48-.36-.18-.72-.18-.36.04-.72.04-.36-.22-.72-.22-.36.29-.72.29-.36-.27-.72-.27-.36-.1-.72-.1-.36.16-.72.16-.36.3-.72.3-.36,0-.72,0-.36-.11-.72-.11-.36-.08-.72-.08-.36.1-.72.1-.36-.16-.72-.16-.36.16-.72.16-.36-.45-.72-.45-.36-.04-.72-.04-.36.06-.72.06-.36.13-.72.13-.36.19-.72.19-.36-.04-.72-.04-.36-.02-.72-.02-.36.08-.72.08-.36-.33-.72-.33-.36.33-.72.33-.36.19-.72.19-.36.01-.72.01-.36-.61-.72-.61-.36,0-.72,0-.36-.02-.72-.02-.36.25-.72.25-.36,0-.72,0-.36-.18-.72-.18-.36.27-.72.27-.36-.12-.72-.12-.36.42-.72.42-.36-.45-.72-.45-.36.3-.72.3-.36-.49-.72-.49-.36.64-.72.64-.36-.14-.72-.14-.36-.25-.72-.25-.36.39-.72.39-.36-.1-.72-.1-.36-.45-.72-.45-.36.16-.72.16-.36.4-.72.4-.36-.32-.72-.32-.36-.25-.72-.25-.36.03-.72.03-.36-.12-.72-.12-.36.61-.72.61-.36-.58-.72-.58-.36.57-.72.57-.36-.12-.72-.12-.36-.36-.72-.36-.36-.05-.72-.05-.36-.03-.72-.03-.36,0-.72,0-.36.38-.72.38-.36.11-.72.11-.36-.43-.72-.43-.36-.11-.72-.11-.36.56-.72.56-.36-.09-.72-.09-.36-.28-.72-.28-.36.26-.72.26-.36.21-.72.21-.36-.36-.72-.36-.36.27-.72.27-.36-.55-.72-.55-.36.68-.72.68-.36-.19-.72-.19-.36-.14-.72-.14-.36.06-.72.06-.36-.38-.72-.38-.36.37-.72.37-.36-.32-.72-.32-.36.19-.72.19-.36.35-.72.35-.36-.12-.72-.12-.36.14-.72.14-.36-.36-.72-.36-.36-.24-.72-.24-.36.3-.72.3-.36.29-.72.29-.36-.1-.72-.1-.36-.2-.72-.2-.36.02-.72.02-.36.11-.72.11-.36.06-.72.06-.36-.52-.72-.52-.36.31-.72.31-.36.35-.72.35-.36-.51-.72-.51-.36.16-.72.16-.36-.25-.72-.25-.36-.01-.72-.01-.36.48-.72.48-.36-.17-.72-.17-.36-.26-.72-.26-.36.41-.72.41-.36.18-.72.18-.36-.19-.72-.19-.36.04-.72.04-.36-.15-.72-.15-.36.31-.72.31-.36-.51-.72-.51-.36.12-.72.12-.36.12-.72.12-.36-.41-.72-.41-.36.45-.72.45-.36-.3-.72-.3-.36.54-.72.54-.36-.6-.72-.6-.36-.08-.72-.08-.36.65-.72.65-.36-.33-.72-.33-.36-.2-.72-.2-.36-.16-.72-.16-.36,0-.72,0-.36.63-.72.63-.36-.59-.72-.59-.36.1-.72.1-.36-.14-.72-.14-.36.23-.72.23-.36-.22-.72-.22-.36,0-.72,0-.36.42-.72.42-.36-.45-.72-.45-.36.47-.72.47-.36-.47-.72-.47-.36.38-.72.38-.36.33-.72.33-.36-.12-.72-.12-.36.02-.72.02-.36-.37-.72-.37-.36.27-.72.27-.36-.37-.72-.37-.36.16-.72.16-.36-.18-.72-.18-.36-.11-.72-.11-.36.04-.72.04-.36.59-.72.59-.36-.14-.72-.14-.36.21-.72.21-.36-.25-.72-.25-.36,0-.72,0-.36-.11-.72-.11-.36.26-.72.26-.36-.08-.72-.08-.36-.3-.72-.3-.36.02-.72.02-.36.42-.72.42-.36-.64-.72-.64-.36.15-.72.15-.36.13-.72.13-.36.28-.72.28-.36,0-.72,0-.36.11-.72.11-.36-.68-.72-.68-.36.04-.72.04-.36.06-.72.06-.36.52-.72.52-.36-.15-.72-.15-.36-.12-.72-.12-.36.29-.72.29-.36-.05-.72-.05-.36-.28-.72-.28-.36-.25-.72-.25-.36-.02-.72-.02-.36.4-.72.4-.36-.28-.72-.28-.36-.17-.72-.17-.36.71-.72.71-.36-.53-.72-.53-.36.24-.72.24-.36-.17-.72-.17-.36-.23-.72-.23-.36.66-.72.66-.36-.51-.72-.51-.36.26-.72.26-.36-.24-.72-.24-.36.32-.72.32-.36.1-.72.1-.36.04-.72.04-.36-.32-.72-.32-.36-.02-.72-.02-.36.24-.72.24-.36-.34-.72-.34-.36-.02-.72-.02-.36.04-.73.04-.36.22-.73.22-.36-.24-.73-.24-.36.44-.72.44-.36-.02-.72-.02-.36-.08-.72-.08-.36-.07-.72-.07-.36.14-.72.14-.36-.05-.72-.05-.36-.06-.72-.06-.36.08-.73.08-.36-.36-.73-.36-.36-.03-.73-.03-.36-.04-.73-.04-.36.31-.73.31-.36-.05-.73-.05-.36-.31-.73-.31-.36.6-.73.6-.36-.35-.73-.35-.36-.12-.73-.12-.36-.1-.73-.1-.36.1-.73.1-.36.28-.72.28-.36.18-.72.18-.36-.68-.72-.68-.36.16-.73.16-.36.33-.73.33-.36.04-.73.04-.36-.53-.73-.53-.36.64-.73.64-.36-.03-.73-.03-.36-.51-.73-.51-.36.36-.73.36-.37-.39-.73-.39-.36.16-.73.16-.36-.18-.73-.18-.36.39-.73.39-.37.13-.73.13-.37-.56-.73-.56-.37.25-.73.25-.37-.06-.73-.06c-.24,0-.47-.2-.71-.21s-.5.42-.74.4-.45-.35-.69-.38-.52.27-.76.23-.46-.19-.69-.24-.43-.26-.67-.31-.56.23-.79.16-.4-.35-.63-.43-.43-.23-.65-.31-.52-.01-.74-.11-.31-.48-.53-.58-.59.11-.8,0-.5-.11-.71-.23-.32-.41-.53-.54-.29-.43-.49-.57-.6,0-.79-.14-.42-.27-.6-.42-.08-.66-.26-.82-.37-.3-.54-.47-.52-.16-.69-.33-.52-.18-.68-.37.07-.7-.08-.89-.58-.16-.72-.35-.07-.54-.21-.74-.59-.19-.72-.4.28-.73.16-.94-.8-.11-.92-.32.27-.68.17-.89-.14-.45-.24-.67-.68-.24-.77-.47-.08-.49-.16-.72-.24-.44-.3-.67.38-.6.32-.83-.39-.4-.44-.64.23-.52.19-.76-.43-.42-.46-.66-.22-.47-.24-.71-.09-.49-.1-.73.58-.49.58-.73c0-.36.02-.36.02-.71s-.67-.36-.67-.71-.02-.36-.02-.71.57-.36.57-.71.13-.36.13-.71-.1-.36-.1-.71,0-.36,0-.72-.01-.36-.01-.72-.1-.36-.1-.72-.23-.36-.23-.72.22-.36.22-.72.13-.36.13-.72-.58-.36-.58-.72.62-.36.62-.72-.35-.36-.35-.72.02-.36.02-.72.01-.36.01-.72-.26-.36-.26-.72.61-.36.61-.72-.24-.36-.24-.72-.2-.36-.2-.72-.14-.36-.14-.72.17-.36.17-.72.26-.36.26-.72-.13-.36-.13-.72.27-.36.27-.72-.06-.36-.06-.72-.48-.36-.48-.72.09-.36.09-.72.02-.36.02-.72,0-.36,0-.72-.21-.36-.21-.72.64-.36.64-.72-.19-.36-.19-.72-.24-.36-.24-.72.01-.36.01-.72-.16-.36-.16-.72.36-.36.36-.72-.15-.36-.15-.72.03-.36.03-.72.12-.36.12-.72-.38-.36-.38-.72.19-.36.19-.72.31-.36.31-.72-.45-.36-.45-.72.37-.36.37-.72.08-.36.08-.72-.02-.36-.02-.72-.32-.36-.32-.72.19-.36.19-.72-.32-.36-.32-.72.57-.36.57-.72-.17-.36-.17-.72,0-.36,0-.72,0-.36,0-.72-.3-.36-.3-.72-.05-.36-.05-.72.16-.36.16-.72.25-.36.25-.72-.04-.36-.04-.72-.52-.36-.52-.72.19-.36.19-.72.31-.36.31-.72-.06-.36-.06-.72-.15-.36-.15-.72-.06-.36-.06-.72.02-.36.02-.72.02-.36.02-.72.39-.36.39-.72-.51-.36-.51-.72.19-.36.19-.72-.16-.36-.16-.72.18-.36.18-.72-.06-.36-.06-.72-.12-.36-.12-.72.47-.36.47-.72-.11-.36-.11-.72-.4-.36-.4-.72-.16-.36-.16-.72.12-.36.12-.72.5-.36.5-.72-.19-.36-.19-.72-.36-.36-.36-.72.33-.36.33-.72-.03-.36-.03-.72-.14-.36-.14-.72.37-.36.37-.72-.6-.36-.6-.72.6-.36.6-.72-.4-.36-.4-.72.39-.36.39-.72-.51-.36-.51-.72.28-.36.28-.72-.08-.36-.08-.72-.15-.36-.15-.72.25-.36.25-.72.19-.36.19-.72-.31-.36-.31-.72-.12-.36-.12-.72-.09-.36-.09-.72.23-.36.23-.72-.05-.36-.05-.72-.22-.36-.22-.72.42-.36.42-.72-.33-.36-.33-.72.52-.36.52-.72-.03-.36-.03-.72-.05-.36-.05-.72-.09-.36-.09-.72-.25-.36-.25-.72.29-.36.29-.71-.3-.36-.3-.71-.14-.36-.14-.72.41-.36.41-.72-.16-.36-.16-.72-.16-.36-.16-.72-.03-.36-.03-.72.36-.36.36-.72.22-.36.22-.72-.28-.36-.28-.72-.15-.36-.15-.72.22-.36.22-.72-.19-.36-.19-.72.38-.36.38-.72-.32-.36-.32-.72.32-.36.32-.72-.49-.36-.49-.72.01-.36.01-.72.35-.36.35-.72-.19-.36-.19-.72-.35-.36-.35-.72.52-.36.52-.72-.27-.36-.27-.72.19-.36.19-.72-.06-.36-.06-.72.04-.36.04-.72.09-.36.09-.72-.18-.36-.18-.72.15-.36.15-.72-.4-.36-.4-.72.26-.36.26-.72.17-.36.17-.72-.33-.36-.33-.72.22-.36.22-.72-.12-.36-.12-.72.27-.36.27-.72.08-.36.08-.72-.03-.36-.03-.72.06-.36.06-.72-.39-.36-.39-.72.42-.36.42-.72-.34-.36-.34-.72-.24-.36-.24-.72.16-.36.16-.72-.11-.36-.11-.72-.07-.36-.07-.72.35-.36.35-.72-.27-.36-.27-.72-.11-.36-.11-.72.06-.36.06-.72.16-.36.16-.72-.28-.36-.28-.72.07-.36.07-.72.61-.36.61-.72-.32-.36-.32-.73.17-.36.17-.72-.4-.36-.4-.72-.11-.36-.11-.73.48-.36.48-.73-.03-.36-.03-.72-.14-.36-.14-.72.37-.36.37-.73-.13-.36-.13-.73-.41-.37-.41-.73.23-.37.23-.73c0-.24-.32-.49-.32-.73s.3-.47.32-.71-.03-.49,0-.73-.03-.5,0-.73.35-.43.4-.66.27-.43.33-.66-.43-.61-.36-.85.25-.44.32-.67.6-.3.68-.52.16-.44.25-.67.02-.51.12-.73.45-.3.56-.52.09-.49.21-.7-.06-.6.07-.8.38-.33.52-.53.18-.47.33-.66.2-.46.36-.65.26-.43.42-.61.6-.11.76-.29.47-.21.64-.37.19-.5.37-.66.29-.4.48-.55.35-.34.54-.49.56-.05.76-.18.31-.4.51-.53.6.07.81-.05.22-.58.43-.7.6.14.82.03.31-.46.53-.55.54.08.77,0,.35-.42.58-.5.36-.47.59-.53.58.32.82.26.42-.32.65-.37.48-.07.71-.11.48-.06.72-.08.45-.42.69-.44.49-.03.74-.04.49.27.74.27c.36,0,.36.32.72.32s.36-.1.72-.1.36-.11.72-.11.36-.36.72-.36.36.33.72.33.36-.21.72-.21.36.42.72.42.36.07.72.07.36-.45.72-.45.36.47.72.47.36-.32.72-.32.36-.09.72-.09.36.22.72.22.36-.19.72-.19.36-.09.72-.09.36.39.72.39.36-.33.72-.33.36-.16.72-.16.36.43.72.43.36-.41.72-.41.36-.07.72-.07.36.19.72.19.36-.1.72-.1.36.19.72.19.36-.3.72-.3.36.04.72.04.36.43.72.43.36-.17.72-.17.36.13.72.13.36-.06.72-.06.36-.32.72-.32.36.56.72.56.36-.35.72-.35.36.11.72.11.36.02.72.02.36.21.72.21.36-.1.72-.1.36-.5.72-.5.36.21.72.21.36.28.72.28.36.13.72.13.36.04.72.04.36-.12.72-.12.36-.54.72-.54.36.1.72.1.36.51.72.51.36-.27.72-.27.36.3.72.3.36-.56.72-.56.36-.07.72-.07.36.35.72.35.36.18.72.18.36-.04.72-.04.36.15.72.15.36-.28.72-.28.36-.02.72-.02.36-.36.72-.36.36.27.72.27.36-.3.72-.3.36.16.72.16.36.42.72.42.36-.45.72-.45.36.48.72.48.36-.54.72-.54.36.04.72.04.36.47.72.47.36-.06.72-.06.36.01.72.01.36-.03.72-.03.36.22.72.22.36-.12.72-.12.36-.56.72-.56.36.44.72.44.36-.2.72-.2.36.03.72.03.36.25.72.25.36-.49.72-.49.36.26.72.26.36-.21.72-.21.36,0,.72,0,.36.32.72.32.36.23.72.23.36-.45.72-.45.36.27.72.27.36-.46.72-.46.36.19.72.19.36.48.72.48.36-.36.72-.36.36-.06.72-.06.36.22.72.22.36-.19.72-.19.36-.24.72-.24.36.05.72.05.36.52.72.52.36-.16.72-.16.36-.13.72-.13.36.27.72.27.36-.31.72-.31.36.36.72.36.36-.21.72-.21.36-.15.72-.15.36-.27.72-.27.36.05.72.05.36-.07.72-.07.36.44.72.44.36-.44.72-.44.36.06.72.06.36-.01.72-.01.36,0,.72,0,.36.46.72.46.36-.45.72-.45.36.61.72.61.36-.12.72-.12.36-.47.72-.47.36.05.72.05.36.3.72.3.36-.36.72-.36.36.25.72.25.36-.23.72-.23.36.5.72.5.36.1.72.1.36-.22.72-.22.36-.15.72-.15.36.33.72.33.36-.62.72-.62.36.67.72.67.36-.04.72-.04.36-.26.72-.26.36.28.72.28.36-.5.72-.5.36.3.72.3.36-.34.72-.34.36-.03.72-.03.36.18.72.18.36.3.72.3.36-.11.72-.11.36-.17.72-.17.36-.01.72-.01.36.35.72.35.36.05.72.05.36-.02.72-.02.36-.32.72-.32.36.34.72.34.36-.21.72-.21.36-.26.72-.26.36.29.72.29.36.01.72.01.36.06.72.06.36-.51.72-.51.36.4.72.4.36-.06.72-.06.36-.33.72-.33.36.04.72.04.36.36.72.36.36.06.72.06.36.08.72.08.36-.08.72-.08.36.07.72.07.36-.11.72-.11.36-.01.72-.01.36-.22.72-.22.36.25.72.25.36-.06.72-.06.36-.18.72-.18.36-.17.72-.17.36.24.72.24.36,0,.72,0,.36-.27.72-.27.36.23.72.23.36.38.72.38.36-.42.72-.42.36-.22.72-.22.36.49.72.49.36-.51.72-.51.36.36.72.36.36.27.72.27.36-.2.72-.2.36.05.72.05.36.21.72.21.36-.56.72-.56.36.23.72.23.36.05.72.05.36.19.72.19.36-.61.72-.61.36.14.72.14.36-.14.72-.14.36.44.72.44.36.18.72.18.36.03.72.03.36-.38.72-.38.36-.16.72-.16.36.16.72.16.36.32.72.32.36-.51.72-.51.36-.08.72-.08.36.57.72.57.36.05.72.05.36-.63.72-.63.36.36.72.36.36-.08.72-.08.36.06.72.06.36.11.72.11.36-.24.72-.24.36.02.72.02.36.1.72.1.36.09.72.09.36-.31.72-.31.36.59.72.59.36-.29.72-.29.36,0,.72,0,.36-.31.72-.31.36.58.72.58.36-.16.72-.16.36.16.72.16.36-.55.72-.55.36.55.72.55.36-.21.72-.21.36-.12.72-.12.36-.05.72-.05.36-.28.72-.28.36-.01.72-.01.36.28.72.28.36-.23.72-.23.36.64.72.64.36-.39.72-.39.36-.06.72-.06.36-.13.72-.13.36.13.72.13.36.28.72.28.36,0,.72,0,.36.18.72.18.36-.4.72-.4.36.4.72.4.36-.61.72-.61.36.46.72.46.36-.43.72-.43.36.02.72.02.36.35.72.35.36-.42.72-.42.36.08.72.08.36.26.72.26.36.01.72.01.36.14.72.14.36-.06.72-.06.36-.36.72-.36.36.33.72.33.36,0,.72,0,.36-.18.72-.18.36.28.72.28.36-.07.72-.07.36-.5.72-.5.36.07.72.07.36.48.72.48.36-.49.72-.49.36.06.72.06.36.44.72.44.36.12.72.12.36-.68.72-.68.36.62.72.62.36-.31.72-.31.36-.09.72-.09.36.35.72.35.36-.56.72-.56.36.15.72.15.36-.15.72-.15.36.66.72.66.36-.45.72-.45.36.17.72.17.36-.25.72-.25.36-.07.72-.07.36.3.72.3.36-.38.72-.38.36.57.72.57.36.03.72.03.36.06.72.06.36-.16.72-.16.36-.05.72-.05.36.25.72.25.36-.48.72-.48.36.41.72.41.36-.27.72-.27.36.35.72.35.36-.31.72-.31.36-.23.72-.23.36.51.72.51.36-.08.72-.08.36-.6.72-.6.36.13.72.13.36.46.72.46.36-.2.72-.2.36-.18.72-.18.36-.18.72-.18.36.2.72.2.36.14.72.14.36,0,.72,0,.36.17.72.17.36-.34.72-.34.36-.02.72-.02.36.38.72.38.36.08.72.08.36-.06.72-.06.36.04.72.04.36-.32.72-.32.36.15.72.15.36.17.72.17.36.09.72.09.36-.12.72-.12.36-.18.72-.18.36.11.72.11.36-.31.72-.31.36.44.72.44.36-.12.72-.12.36-.4.72-.4.36.13.72.13.36.14.72.14.36-.35.72-.35.36.24.72.24.36-.14.72-.14.36.54.72.54.36-.39.72-.39.36.4.72.4.36-.7.72-.7.36.64.72.64.36-.27.72-.27.36-.02.72-.02.36-.07.72-.07.36-.16.72-.16.36.5.72.5.36.07.72.07.36-.03.72-.03.36-.44.72-.44.36-.21.72-.21.36.27.72.27.36-.21.72-.21.36.32.72.32.36-.16.72-.16.36-.22.72-.22.36.34.72.34.36-.29.72-.29.36.2.72.2.36-.11.72-.11.36-.02.72-.02.36-.11.72-.11.36.22.72.22.36.37.72.37.36-.23.72-.23.36.2.72.2.36-.13.72-.13.36-.42.72-.42.36.67.72.67.36-.54.72-.54.36.34.72.34.36.17.72.17.36-.56.72-.56.36.18.72.18.36.16.72.16.36,0,.72,0,.36-.37.72-.37.36.28.72.28.36-.08.72-.08.36.35.72.35.36-.23.72-.23.36-.08.72-.08.36-.12.72-.12.36.14.72.14.36-.15.72-.15.36.22.72.22.36-.16.72-.16.36-.14.72-.14.36.26.72.26.36.16.72.16.36-.01.72-.01.36-.46.72-.46.36.35.72.35.36-.21.72-.21.36-.13.72-.13.36.07.72.07.36-.13.72-.13.36.4.72.4.36,0,.72,0,.36-.42.72-.42.36.18.72.18.36.52.72.52.36-.45.72-.45.36.42.72.42.36-.23.72-.23.36-.37.72-.37.36.5.72.5.36,0,.72,0,.36-.03.72-.03.36-.5.72-.5.36.16.72.16.36.18.72.18.36,0,.72,0,.36-.34.72-.34.36.31.72.31.36.12.72.12.36.26.72.26.36-.69.72-.69.36.65.72.65.36-.14.72-.14.36.17.72.17.36-.62.72-.62.36.41.72.41.36-.26.72-.26.36.14.72.14.36.32.72.32.36-.45.72-.45.36.08.72.08.36-.3.72-.3.36.26.72.26.36.39.72.39.36-.4.72-.4.36-.11.72-.11.36-.12.72-.12.36.3.72.3.36.14.72.14.36-.1.72-.1.36-.1.72-.1.36.25.72.25.36.14.72.14.36-.4.72-.4.36.43.72.43.36-.52.72-.52.36.46.72.46.36-.03.72-.03.36-.37.72-.37.36.41.72.41.36-.22.72-.22.36-.33.72-.33.36.08.72.08.36-.02.72-.02.36.4.72.4.36-.25.72-.25.36.3.72.3.36-.09.72-.09.36.17.72.17.36-.52.72-.52.36-.02.72-.02.36.06.72.06.36.05.72.05.36.03.72.03.36-.23.72-.23.36.05.72.05.36.18.72.18.36-.03.72-.03.36-.08.72-.08.36,0,.72,0,.36.16.72.16.36.3.72.3.36-.56.72-.56.36.41.72.41.36-.36.72-.36.36.15.72.15.36-.01.72-.01.36-.22.72-.22.36.33.72.33.36-.21.72-.21.36.4.72.4.36-.41.72-.41.36-.11.72-.11.36.48.72.48.36-.26.72-.26.36-.04.72-.04.36.41.72.41.36-.52.72-.52.36.54.72.54.36-.08.72-.08.36-.44.72-.44.36.05.72.05.36-.15.72-.15.36.12.72.12.36.1.72.1.36.29.72.29.36.07.72.07.36-.47.72-.47.36.12.72.12.36-.05.72-.05.36-.13.72-.13.36.47.72.47.36-.36.72-.36.36.06.72.06.36.07.72.07.36-.08.72-.08.36.32.72.32.36-.26.72-.26.36-.15.72-.15.36.21.72.21.36.15.72.15.36-.34.72-.34.36.1.72.1.36.24.72.24.36-.51.72-.51.36.09.72.09.36.26.72.26.36-.06.72-.06.36-.02.72-.02.36-.04.72-.04.36.33.72.33.36-.22.72-.22.36-.08.72-.08.36.01.72.01.36.05.72.05.36,0,.72,0,.36.06.72.06.36,0,.72,0,.36-.11.72-.11.36.17.72.17.36.14.72.14.36-.54.72-.54.36.12.72.12.36-.01.72-.01.36.33.72.33.36-.2.72-.2.36-.27.72-.27.36-.02.72-.02.36.09.72.09.36.17.72.17.36-.02.72-.02.36-.02.72-.02.36-.02.72-.02.36-.15.72-.15.36.19.72.19.36-.21.72-.21.36.22.72.22.36.33.72.33.36-.26.72-.26.36.04.72.04.36-.37.72-.37.36.4.72.4.36-.37.72-.37.36.37.72.37.36.15.72.15.36-.23.72-.23.36-.32.72-.32.36.04.72.04.36.24.72.24.36.24.72.24.36-.16.72-.16.36-.18.72-.18.36-.05.72-.05.36.37.72.37.36.09.72.09.36-.16.72-.16.36.1.72.1.36-.48.72-.48.36.38.72.38.36-.28.72-.28.36.25.72.25.36-.26.72-.26.36.08.72.08.36-.14.72-.14.36.32.72.32.36.04.72.04.36-.28.72-.28.36.09.72.09.36-.13.72-.13.36.25.72.25.36-.38.72-.38.36.53.72.53.36-.35.72-.35.36.13.72.13.36.27.72.27.36-.23.72-.23.36.3.72.3.36-.17.72-.17.36-.24.72-.24.36-.03.72-.03.36-.09.72-.09.36-.04.72-.04.36.26.72.26.36,0,.72,0,.36-.28.72-.28.36.33.72.33.36-.37.73-.37.36.68.73.68.36-.54.73-.54.36.02.72.02.36.16.72.16.36-.22.72-.22.36.34.72.34.36-.29.72-.29.36.31.72.31.36-.03.72-.03.36-.01.73-.01.36-.03.73-.03.36-.4.73-.4.36.2.73.2.36.27.73.27.36-.32.73-.32.36.34.73.34.36-.45.73-.45.36.02.73.02.36,0,.73,0,.36.26.73.26.36-.23.73-.23.36.15.72.15.36.06.72.06.36.29.72.29.36-.41.73-.41.36.29.73.29.36-.31.73-.31.36.49.73.49.36-.54.73-.54.36.06.73.06.36-.05.73-.05.36.49.73.49.37-.39.73-.39.36.06.73.06.36.03.73.03.36-.22.73-.22.37.19.73.19.37.37.73.37.37.01.73.01.37-.18.73-.18c.24,0,.49-.2.73-.19s.45.42.69.44.53-.49.77-.46.41.56.64.6.47.06.7.11.61-.51.84-.45.48.14.71.21.28.74.5.81.55-.14.78-.05.54-.04.76.05.35.41.57.51.36.35.57.47.38.29.59.41.44.19.65.31.57.02.77.15.22.52.41.67.68-.08.87.07.3.41.48.57.35.35.52.51.09.59.26.76.4.28.56.46.41.28.56.47.36.34.5.53.43.29.57.49-.03.6.1.81.51.26.63.47-.25.68-.14.9.5.28.6.5.55.28.65.51.12.49.2.71.25.44.33.66-.22.58-.15.81.47.38.53.61-.41.59-.37.82.18.45.21.69.14.46.17.7-.05.48-.03.73.11.47.12.71.17.48.17.72c0,.36-.39.36-.39.71s-.01.36-.01.71.23.36.23.71.31.36.31.71-.3.36-.3.71.24.36.24.71-.34.36-.34.72.47.36.47.72.01.36.01.72-.48.36-.48.72-.06.36-.06.72.5.36.5.72-.09.36-.09.72-.26.36-.26.72.02.36.02.72.37.36.37.72-.28.36-.28.72-.23.36-.23.72.49.36.49.72-.49.36-.49.72-.07.36-.07.72.29.36.29.72.34.36.34.72-.25.36-.25.72.1.36.1.72.08.36.08.72-.56.36-.56.72.12.36.12.72-.14.36-.14.72.1.36.1.72-.06.36-.06.72,0,.36,0,.72.03.36.03.72.32.36.32.72.06.36.06.72-.22.36-.22.72-.02.36-.02.72-.16.36-.16.72.38.36.38.72-.41.36-.41.72,0,.36,0,.72.35.36.35.72.23.36.23.72-.34.36-.34.72.33.36.33.72-.25.36-.25.72-.16.36-.16.72.07.36.07.72.08.36.08.72-.22.36-.22.72.4.36.4.72-.29.36-.29.72-.14.36-.14.72-.04.36-.04.72.24.36.24.72.25.36.25.72-.32.36-.32.72.34.36.34.72-.34.36-.34.72-.19.36-.19.72.43.36.43.72-.23.36-.23.72.19.36.19.72.04.36.04.72-.18.36-.18.72-.09.36-.09.72.08.36.08.72-.14.36-.14.72.2.36.2.72.2.36.2.72-.09.36-.09.72-.41.36-.41.72.02.36.02.72.62.36.62.72-.08.36-.08.72-.53.36-.53.72.46.36.46.72-.42.36-.42.72.04.36.04.72.36.36.36.72-.12.36-.12.72,0,.36,0,.72.15.36.15.72-.49.36-.49.72.49.36.49.72-.28.36-.28.72-.02.36-.02.72-.14.36-.14.72.28.36.28.72-.17.36-.17.72-.23.36-.23.72.39.36.39.72.07.36.07.72.14.36.14.72-.38.36-.38.72-.05.36-.05.72-.12.36-.12.72.13.36.13.72.2.36.2.72-.05.36-.05.72.13.36.13.72-.2.36-.2.72-.16.36-.16.72.16.36.16.72-.05.36-.05.72.08.36.08.72-.11.36-.11.72.39.36.39.72-.58.36-.58.72.04.36.04.72.63.36.63.71-.56.36-.56.71.16.36.16.72,0,.36,0,.72.15.36.15.72-.27.36-.27.72.27.36.27.72-.16.36-.16.72.19.36.19.72-.34.36-.34.72.49.36.49.72.07.36.07.72-.29.36-.29.72.14.36.14.72-.53.36-.53.72.15.36.15.72.18.36.18.72.08.36.08.72-.03.36-.03.72.12.36.12.72-.12.36-.12.72.12.36.12.72-.2.36-.2.72-.08.36-.08.72-.17.36-.17.72.16.36.16.72-.03.36-.03.72-.18.36-.18.72.58.36.58.72-.05.36-.05.72-.51.36-.51.72.4.36.4.72-.26.36-.26.72.5.36.5.72-.66.36-.66.72.65.36.65.72-.37.36-.37.72.38.36.38.72-.63.36-.63.72.45.36.45.72-.41.36-.41.72.63.36.63.72-.11.36-.11.72-.43.36-.43.72.41.36.41.72.12.36.12.72-.42.36-.42.72.13.36.13.72-.23.36-.23.72-.05.36-.05.72.08.36.08.72.36.36.36.72-.41.36-.41.72.32.36.32.72.25.36.25.73-.4.36-.4.72-.18.36-.18.72.52.36.52.73-.21.36-.21.73.12.36.12.72-.21.36-.21.72-.12.36-.12.73.32.36.32.73-.13.37-.13.73.07.37.07.73c0,.24.11.49.1.73s-.29.47-.31.71-.18.46-.21.7.21.52.17.75-.17.46-.21.7-.41.4-.46.63.07.51,0,.74-.09.48-.16.7-.1.48-.18.7-.39.36-.48.58.13.59.03.81-.06.52-.17.74-.35.37-.47.58-.68.15-.81.35-.01.56-.15.76-.15.49-.3.68-.52.2-.68.39-.47.22-.63.4.07.71-.1.88-.32.37-.5.54-.56.11-.74.27-.43.23-.61.39-.4.25-.6.4-.36.31-.55.45-.42.22-.63.34-.34.35-.55.47-.2.64-.42.75-.46.17-.68.28-.58-.11-.8-.02-.3.56-.52.64-.56-.12-.79-.05-.37.44-.61.51-.51-.02-.75.04-.56-.29-.79-.24-.38.6-.62.64-.52-.24-.76-.21-.45.39-.69.41-.5-.19-.74-.18-.48.3-.72.3Z"/></svg>