<?xml version="1.0" encoding="UTF-8"?><svg id="Layer_1" xmlns="http://www.w3.org/2000/svg" viewBox="0 0 514.77 185"><path d="M477.71,171.77c-.36,0-.36-.12-.72-.12s-.36.17-.72.17-.36-.16-.72-.16-.36.11-.72.11-.36-.32-.72-.32-.36.38-.72.38-.36-.03-.72-.03-.36-.28-.72-.28-.36.08-.72.08-.36.46-.72.46-.36-.47-.72-.47-.36-.1-.72-.1-.36.44-.72.44-.36-.19-.72-.19-.36-.21-.72-.21-.36.52-.72.52-.36,0-.72,0-.36-.55-.72-.55-.36.26-.72.26-.36,0-.72,0-.36.33-.72.33-.36-.28-.72-.28-.36-.28-.72-.28-.36-.1-.72-.1-.36.64-.72.64-.36-.4-.72-.4-.36.18-.72.18-.36.02-.72.02-.36.2-.72.2-.36-.09-.72-.09-.36-.55-.72-.55-.36.55-.72.55-.36-.12-.72-.12-.36.05-.72.05-.36.14-.72.14-.36-.53-.72-.53-.36.45-.72.45-.36-.1-.72-.1-.36-.19-.72-.19-.36-.2-.72-.2-.36.62-.72.62-.36-.6-.72-.6-.36.4-.72.4-.36-.31-.72-.31-.36.26-.72.26-.36.16-.72.16-.36-.03-.72-.03-.36.04-.72.04-.36-.39-.72-.39-.36.35-.72.35-.36-.06-.72-.06-.36-.18-.72-.18-.36-.07-.72-.07-.36.04-.72.04-.36.23-.72.23-.36.18-.72.18-.36-.17-.72-.17-.36-.42-.72-.42-.36.38-.72.38-.36-.47-.72-.47-.36.15-.72.15-.36.45-.72.45-.36-.05-.72-.05-.36-.41-.72-.41-.36.05-.72.05-.36.28-.72.28-.36-.47-.72-.47-.36.63-.72.63-.36,0-.72,0-.36-.38-.72-.38-.36.29-.72.29-.36-.39-.72-.39-.36.05-.72.05-.36-.18-.72-.18-.36.31-.72.31-.36-.26-.72-.26-.36.56-.72.56-.36-.59-.72-.59-.36.02-.72.02-.36.32-.72.32-.36.24-.72.24-.36-.51-.72-.51-.36,0-.72,0-.36.06-.72.06-.36.02-.72.02-.36.31-.72.31-.36-.3-.72-.3-.36-.12-.72-.12-.36.38-.72.38-.36.05-.72.05-.36-.07-.72-.07-.36-.35-.72-.35-.36.12-.72.12-.36-.17-.72-.17-.36.33-.72.33-.36-.07-.72-.07-.36-.06-.72-.06-.36-.08-.72-.08-.36.4-.72.4-.36-.39-.72-.39-.36-.07-.72-.07-.36.53-.72.53-.36-.35-.72-.35-.36-.12-.72-.12-.36.41-.72.41-.36-.57-.72-.57-.36.38-.72.38-.36.28-.72.28-.36-.67-.72-.67-.36.4-.72.4-.36.14-.72.14-.36-.53-.72-.53-.36.68-.72.68-.36-.33-.72-.33-.36.28-.72.28-.36-.63-.72-.63-.36-.02-.72-.02-.36.2-.72.2-.36.28-.72.28-.36-.48-.72-.48-.36.67-.72.67-.36-.44-.72-.44-.36.23-.72.23-.36-.34-.72-.34-.36.21-.72.21-.36.35-.72.35-.36-.33-.72-.33-.36.17-.72.17-.36-.31-.72-.31-.36.5-.72.5-.36.02-.72.02-.36-.12-.72-.12-.36-.43-.72-.43-.36.3-.72.3-.36-.37-.72-.37-.36.16-.72.16-.36.04-.72.04-.36-.2-.72-.2-.36.17-.72.17-.36.35-.72.35-.36-.53-.72-.53-.36.53-.72.53-.36-.29-.72-.29-.36.15-.72.15-.36-.42-.72-.42-.36.36-.72.36-.36-.22-.72-.22-.36.29-.72.29-.36-.18-.72-.18-.36.41-.72.41-.36-.29-.72-.29-.36-.14-.72-.14-.36-.27-.72-.27-.36.53-.72.53-.36-.26-.72-.26-.36-.2-.72-.2-.36.4-.72.4-.36.22-.72.22-.36-.18-.72-.18-.36-.13-.72-.13-.36.09-.72.09-.36.17-.72.17-.36-.15-.72-.15-.36.16-.72.16-.36-.39-.72-.39-.36-.25-.72-.25-.36.44-.72.44-.36-.45-.72-.45-.36.05-.72.05-.36.61-.72.61-.36-.11-.72-.11-.36-.01-.72-.01-.36-.5-.72-.5-.36.31-.72.31-.36.17-.72.17-.36-.44-.72-.44-.36.59-.72.59-.36-.11-.72-.11-.36-.42-.72-.42-.36-.15-.72-.15-.36.21-.72.21-.36.45-.72.45-.36-.04-.72-.04-.36-.23-.72-.23-.36.07-.72.07-.36-.09-.72-.09-.36-.31-.72-.31-.36.62-.72.62-.36-.13-.72-.13-.36.11-.72.11-.36-.33-.72-.33-.36.33-.72.33-.36-.29-.72-.29-.36.27-.72.27-.36-.14-.72-.14-.36.14-.72.14-.36-.06-.72-.06-.36-.03-.72-.03-.36.05-.72.05-.36-.41-.72-.41-.36.07-.72.07-.36.37-.72.37-.36-.36-.72-.36-.36.21-.72.21-.36,0-.72,0-.36-.18-.72-.18-.36,0-.72,0-.36.2-.72.2-.36.04-.72.04-.36-.3-.72-.3-.36-.05-.72-.05-.36.41-.72.41-.36-.47-.72-.47-.36.1-.72.1-.36.02-.72.02-.36-.16-.72-.16-.36.53-.72.53-.36-.07-.72-.07-.36-.2-.72-.2-.36.04-.72.04-.36-.1-.72-.1-.36.23-.72.23-.36.17-.72.17-.36-.5-.72-.5-.36-.15-.72-.15-.36.23-.72.23-.36-.09-.72-.09-.36.5-.72.5-.36-.38-.72-.38-.36.15-.72.15-.36-.07-.72-.07-.36-.09-.72-.09-.36.3-.72.3-.36.03-.72.03-.36-.54-.72-.54-.36.17-.72.17-.36.01-.72.01-.36.13-.72.13-.36-.23-.72-.23-.36.51-.72.51-.36-.06-.72-.06-.36-.63-.72-.63-.36.34-.72.34-.36.28-.72.28-.36-.32-.72-.32-.36.14-.72.14-.36.25-.72.25-.36-.51-.72-.51-.36-.14-.72-.14-.36.24-.72.24-.36.39-.72.39-.36-.16-.72-.16-.36.18-.72.18-.36-.39-.72-.39-.36.04-.72.04-.36-.08-.72-.08-.36.34-.72.34-.36-.25-.72-.25-.36-.22-.72-.22-.36.06-.72.06-.36.52-.72.52-.36-.24-.72-.24-.36.03-.72.03-.36-.29-.72-.29-.36.19-.72.19-.36.07-.72.07-.36-.02-.72-.02-.36-.03-.72-.03-.36-.06-.72-.06-.36-.31-.72-.31-.36.64-.72.64-.36-.06-.72-.06-.36.04-.72.04-.36-.55-.72-.55-.36.14-.72.14-.36.19-.72.19-.36-.39-.72-.39-.36.16-.72.16-.36.17-.72.17-.36-.15-.72-.15-.36.3-.72.3-.36.03-.72.03-.36-.45-.72-.45-.36-.08-.72-.08-.36.37-.72.37-.36-.26-.72-.26-.36.03-.72.03-.36.09-.72.09-.36.15-.72.15-.36.24-.72.24-.36-.14-.72-.14-.36.03-.72.03-.36.09-.72.09-.36-.02-.72-.02-.36-.53-.72-.53-.36.61-.72.61-.36-.24-.72-.24-.36-.18-.72-.18-.36.35-.72.35-.36.02-.72.02-.36-.63-.72-.63-.36.1-.72.1-.36.11-.72.11-.36.36-.72.36-.36.01-.72.01-.36.06-.72.06-.36.05-.72.05-.36-.3-.72-.3-.36-.4-.72-.4-.36.04-.72.04-.36-.03-.72-.03-.36.15-.72.15-.36.44-.72.44-.36-.54-.72-.54-.36.33-.72.33-.36-.25-.72-.25-.36,0-.72,0-.36.19-.72.19-.36.12-.72.12-.36.21-.72.21-.36-.36-.72-.36-.36-.2-.72-.2-.36.48-.72.48-.36-.24-.72-.24-.36.01-.72.01-.36.09-.72.09-.36.18-.72.18-.36-.53-.72-.53-.36.43-.72.43-.36-.42-.72-.42-.36.29-.72.29-.36.27-.72.27-.36-.03-.72-.03-.36-.36-.72-.36-.36-.1-.72-.1-.36.3-.72.3-.36.16-.72.16-.36-.6-.72-.6-.36-.01-.72-.01-.36.09-.72.09-.36.57-.72.57-.36-.08-.72-.08-.36-.29-.72-.29-.36-.1-.72-.1-.36.17-.72.17-.36-.3-.72-.3-.36.62-.72.62-.36-.25-.72-.25-.36-.03-.72-.03-.36.08-.72.08-.36.19-.72.19-.36-.69-.72-.69-.36.49-.72.49-.36-.36-.72-.36-.36.42-.72.42-.36-.43-.72-.43-.36.44-.72.44-.36-.34-.72-.34-.36.39-.72.39-.36-.12-.72-.12-.36-.1-.72-.1-.36-.05-.72-.05-.36.2-.72.2-.36-.52-.72-.52-.36.41-.72.41-.36-.26-.72-.26-.36.19-.72.19-.36.02-.72.02-.36-.04-.72-.04-.36.31-.72.31-.36-.23-.72-.23-.36.01-.72.01-.36-.26-.72-.26-.36.21-.72.21-.36.11-.72.11-.36-.4-.72-.4-.36.05-.72.05-.36.04-.72.04-.36.41-.72.41-.36-.08-.72-.08-.36-.37-.72-.37-.36.27-.72.27-.36.02-.72.02-.36-.41-.72-.41-.36,0-.72,0-.36.57-.72.57-.36-.2-.72-.2-.36.06-.72.06-.36-.02-.72-.02-.36-.05-.72-.05-.36-.31-.72-.31-.36-.05-.72-.05-.36.12-.72.12-.36.33-.72.33-.36-.34-.72-.34-.36.31-.72.31-.36.02-.72.02-.36-.07-.72-.07-.36-.34-.72-.34-.36.03-.72.03-.36.25-.72.25-.36.08-.72.08-.36-.15-.72-.15-.36-.15-.72-.15-.36.01-.72.01-.36.17-.72.17-.36.34-.72.34-.36.01-.72.01-.36-.19-.72-.19-.36.01-.72.01-.36-.43-.72-.43-.36.52-.72.52-.36-.29-.72-.29-.36.42-.72.42-.36-.69-.72-.69-.36.61-.72.61-.36-.35-.72-.35-.36.03-.72.03-.36.13-.72.13-.36-.06-.72-.06-.36.06-.72.06-.36-.37-.72-.37-.36.44-.72.44-.36-.48-.72-.48-.36.05-.72.05-.36.39-.72.39-.36-.43-.72-.43-.36.64-.72.64-.36-.53-.72-.53-.36.02-.72.02-.36.46-.72.46-.36-.31-.72-.31-.36.35-.72.35-.36-.09-.72-.09-.36-.13-.72-.13-.36.24-.72.24-.36-.13-.72-.13-.36,0-.72,0-.36-.51-.72-.51-.36.01-.72.01-.36.53-.72.53-.36-.56-.72-.56-.36.08-.72.08-.36-.08-.72-.08-.36.11-.72.11-.36.46-.72.46-.36-.19-.72-.19-.36.07-.72.07-.36.18-.72.18-.36-.66-.72-.66-.36.62-.72.62-.36-.37-.72-.37-.36-.17-.72-.17-.36.49-.72.49-.36-.1-.72-.1-.36.11-.72.11-.36.01-.72.01-.36.11-.72.11-.36-.67-.72-.67-.36.04-.72.04-.36.05-.72.05-.36.08-.72.08-.36.37-.72.37-.36.05-.72.05-.36-.53-.72-.53-.36.54-.72.54-.36-.63-.72-.63-.36.66-.72.66-.36-.13-.72-.13-.36-.47-.72-.47-.36.16-.72.16-.36.2-.72.2-.36-.39-.72-.39-.36.57-.72.57-.36-.53-.72-.53-.36.37-.72.37-.36-.07-.72-.07-.36-.1-.72-.1-.36.34-.72.34-.36-.49-.72-.49-.36.01-.72.01-.36.1-.72.1-.36.43-.72.43-.36-.19-.72-.19-.36-.19-.72-.19-.36.29-.72.29-.36-.47-.72-.47-.36-.08-.72-.08-.36.24-.72.24-.36.4-.72.4-.36-.31-.72-.31-.36-.19-.72-.19-.36.1-.72.1-.36-.27-.72-.27-.36.65-.72.65-.36-.44-.72-.44-.36.33-.72.33-.36.1-.72.1-.36-.03-.72-.03-.36-.59-.72-.59-.36.47-.72.47-.36.21-.72.21-.36-.18-.72-.18-.36-.02-.72-.02-.36.12-.72.12-.36-.56-.72-.56-.36.24-.72.24-.36.04-.72.04-.36.31-.72.31-.36-.07-.72-.07-.36-.42-.72-.42-.36.04-.72.04-.36.4-.72.4-.36-.14-.72-.14-.36.05-.72.05-.36.01-.72.01-.36-.3-.72-.3-.36-.05-.72-.05-.36,0-.72,0-.36.31-.72.31-.36.15-.72.15-.36-.38-.72-.38-.36-.14-.72-.14-.36.09-.72.09-.36.01-.72.01-.36.32-.72.32-.36-.4-.72-.4-.36.55-.72.55-.36-.18-.72-.18-.36-.13-.72-.13-.36.32-.72.32-.36-.61-.72-.61-.36.62-.72.62-.36-.5-.72-.5-.36.17-.72.17-.36-.24-.72-.24-.36-.01-.72-.01-.36.27-.72.27-.36-.24-.72-.24-.36.29-.72.29-.36.19-.72.19-.36-.14-.72-.14-.36-.23-.72-.23-.36.15-.72.15-.36-.37-.72-.37-.36.02-.72.02-.36.6-.72.6-.36.02-.72.02-.36-.18-.72-.18-.36-.08-.72-.08-.36-.28-.72-.28-.36.01-.72.01-.36.52-.72.52-.36-.05-.72-.05-.36-.33-.72-.33-.36-.19-.72-.19-.36.1-.72.1-.36-.15-.72-.15-.36.47-.72.47-.36-.16-.72-.16-.36-.24-.72-.24-.36-.05-.72-.05-.36.43-.72.43-.36.15-.72.15-.36-.12-.72-.12-.36.15-.72.15-.36-.08-.72-.08-.36-.5-.72-.5-.36-.06-.72-.06-.36.36-.72.36-.36-.38-.72-.38-.36.57-.72.57-.36-.18-.72-.18-.36,0-.72,0-.36.14-.73.14-.36.05-.73.05-.36-.54-.73-.54-.36.12-.72.12-.36.23-.72.23-.36-.12-.72-.12-.36.43-.72.43-.36-.51-.72-.51-.36-.1-.72-.1-.36.21-.72.21-.36-.14-.73-.14-.36.27-.73.27-.36-.4-.73-.4-.36.38-.73.38-.36-.15-.73-.15-.36.19-.73.19-.36-.06-.73-.06-.36.29-.73.29-.36-.27-.73-.27-.36,0-.73,0-.36.19-.73.19-.36-.62-.73-.62-.36.61-.72.61-.36-.58-.72-.58-.36.61-.72.61-.36-.57-.73-.57-.36.61-.73.61-.36-.56-.73-.56-.36-.1-.73-.1-.36.58-.73.58-.36.09-.73.09-.36-.55-.73-.55-.36-.15-.73-.15-.37.22-.73.22-.36.16-.73.16-.36-.06-.73-.06-.36-.1-.73-.1-.37-.06-.73-.06-.37.22-.73.22-.37-.35-.73-.35-.37.2-.73.2c-.24,0-.49.17-.73.16s-.5.17-.74.15-.46-.32-.7-.34-.48-.03-.72-.07-.45-.23-.68-.28-.5.03-.73-.03-.43-.23-.67-.3-.58.22-.8.14-.46-.16-.69-.25-.44-.23-.66-.33-.44-.22-.65-.33-.51-.07-.73-.18-.1-.81-.31-.93-.42-.21-.62-.34-.74.25-.94.11-.44-.24-.63-.38.04-.83-.15-.98-.62-.01-.8-.17-.13-.57-.3-.73-.74.06-.91-.11-.05-.61-.21-.79-.6-.12-.76-.31-.15-.5-.3-.69-.38-.32-.52-.52-.23-.43-.36-.63-.02-.55-.14-.76-.47-.29-.59-.5.01-.55-.09-.76-.26-.41-.35-.63-.17-.45-.26-.67-.39-.37-.47-.6.34-.61.27-.84-.3-.41-.36-.64,0-.49-.04-.72-.68-.37-.72-.6.11-.51.08-.75-.19-.47-.21-.71.44-.51.43-.75.07-.47.07-.72c0-.36-.41-.36-.41-.71s-.2-.36-.2-.71.22-.36.22-.71-.03-.36-.03-.71-.06-.36-.06-.71.34-.36.34-.71-.32-.36-.32-.72-.08-.36-.08-.72.39-.36.39-.72.06-.36.06-.72-.44-.36-.44-.72.14-.36.14-.72-.06-.36-.06-.72-.09-.36-.09-.72.06-.36.06-.72,0-.36,0-.72.07-.36.07-.72.45-.36.45-.72-.39-.36-.39-.72,0-.36,0-.72.22-.36.22-.72-.4-.36-.4-.72.3-.36.3-.72.09-.36.09-.72-.14-.36-.14-.72-.06-.36-.06-.72-.04-.36-.04-.72.3-.36.3-.72.12-.36.12-.72-.57-.36-.57-.72.58-.36.58-.72-.08-.36-.08-.72-.08-.36-.08-.72-.23-.36-.23-.72,0-.36,0-.72.05-.36.05-.72-.24-.36-.24-.72.42-.36.42-.72.04-.36.04-.72-.23-.36-.23-.72.22-.36.22-.72-.18-.36-.18-.72.3-.36.3-.72-.55-.36-.55-.72.37-.36.37-.72-.37-.36-.37-.72.58-.36.58-.72.02-.36.02-.72-.33-.36-.33-.72-.29-.36-.29-.72.03-.36.03-.72.25-.36.25-.72,0-.36,0-.72.06-.36.06-.72.05-.36.05-.72.25-.36.25-.72-.12-.36-.12-.72.1-.36.1-.72-.27-.36-.27-.72.14-.36.14-.72-.33-.36-.33-.72,0-.36,0-.72.31-.36.31-.72-.46-.36-.46-.72-.01-.36-.01-.72.27-.36.27-.72.17-.36.17-.72-.46-.36-.46-.72.46-.36.46-.72.01-.36.01-.72-.23-.36-.23-.72-.1-.36-.1-.72.43-.36.43-.72-.6-.36-.6-.72.12-.36.12-.72.31-.36.31-.72-.42-.36-.42-.72.18-.36.18-.72-.06-.36-.06-.72.05-.36.05-.72-.11-.36-.11-.72.58-.36.58-.72-.53-.36-.53-.72.35-.36.35-.72-.24-.36-.24-.72-.08-.36-.08-.72.18-.36.18-.72.32-.36.32-.72-.18-.36-.18-.72-.05-.36-.05-.72-.08-.36-.08-.72.15-.36.15-.72-.47-.36-.47-.72.27-.36.27-.72-.09-.36-.09-.72.04-.36.04-.72-.04-.36-.04-.72-.02-.36-.02-.72.19-.36.19-.72.32-.36.32-.72-.31-.36-.31-.72.09-.36.09-.72-.16-.36-.16-.72.23-.36.23-.72-.06-.36-.06-.72.08-.36.08-.72-.45-.36-.45-.72.23-.36.23-.72.11-.36.11-.72-.22-.36-.22-.72-.14-.36-.14-.71.32-.36.32-.71-.14-.36-.14-.72-.19-.36-.19-.72.29-.36.29-.72-.14-.36-.14-.72.44-.36.44-.72-.34-.36-.34-.72.27-.36.27-.72-.6-.36-.6-.72.46-.36.46-.72-.44-.36-.44-.72.38-.36.38-.72-.18-.36-.18-.72-.22-.36-.22-.72.11-.36.11-.72.42-.36.42-.72.08-.36.08-.72-.62-.36-.62-.72.18-.36.18-.72.27-.36.27-.72-.35-.36-.35-.72.27-.36.27-.72-.1-.36-.1-.72-.13-.36-.13-.72.46-.36.46-.72-.05-.36-.05-.72.02-.36.02-.72-.05-.36-.05-.72.02-.36.02-.72-.44-.36-.44-.72-.05-.36-.05-.72-.02-.36-.02-.72.09-.36.09-.72.25-.36.25-.72.33-.36.33-.72-.09-.36-.09-.72-.47-.36-.47-.72.19-.36.19-.72.21-.36.21-.72,0-.36,0-.72-.1-.36-.1-.72-.21-.36-.21-.72.2-.36.2-.72-.37-.36-.37-.72.57-.36.57-.72-.16-.36-.16-.72-.15-.36-.15-.72.09-.36.09-.72.23-.36.23-.72.03-.36.03-.72-.28-.36-.28-.72.05-.36.05-.72-.4-.36-.4-.72.01-.36.01-.73.63-.36.63-.72-.41-.36-.41-.72-.02-.36-.02-.73.27-.36.27-.73-.02-.36-.02-.72-.13-.36-.13-.72.21-.36.21-.73-.06-.36-.06-.73-.19-.37-.19-.73.04-.37.04-.73c0-.24-.21-.49-.2-.73s.39-.46.41-.7-.16-.5-.13-.74.19-.46.23-.7-.07-.5-.03-.74.23-.44.29-.68.19-.45.25-.68-.02-.51.06-.74-.15-.57-.07-.8.36-.39.46-.61.17-.46.27-.68.1-.5.21-.71.78-.12.91-.33.21-.42.34-.63-.12-.65.02-.85.39-.32.53-.51.32-.36.48-.55.45-.24.61-.42.36-.31.53-.48.29-.38.46-.55.2-.49.38-.65.2-.51.39-.67.54-.1.74-.24.52-.1.72-.23.44-.18.65-.31.1-.77.31-.89.64.16.86.05.47-.13.68-.23.29-.52.51-.62.6.23.83.14.32-.5.55-.58.42-.28.65-.35.53.12.77.06.39-.47.63-.52.58.49.82.45.46-.08.7-.11.43-.5.67-.52.49.02.73.01.48.34.73.34c.36,0,.36-.36.72-.36s.36-.14.72-.14.36.57.72.57.36-.41.72-.41.36-.22.72-.22.36.16.72.16.36-.22.72-.22.36.42.72.42.36-.29.72-.29.36.25.72.25.36-.32.72-.32.36.23.72.23.36-.27.72-.27.36.26.72.26.36.36.72.36.36-.57.72-.57.36.25.72.25.36-.32.72-.32.36.23.72.23.36.24.72.24.36.11.72.11.36-.24.72-.24.36-.34.72-.34.36.17.72.17.36.08.72.08.36-.04.72-.04.36.4.72.4.36-.17.72-.17.36.05.72.05.36.04.72.04.36-.18.72-.18.36-.26.72-.26.36.05.72.05.36-.08.72-.08.36.61.72.61.36-.48.72-.48.36.32.72.32.36-.28.72-.28.36.42.72.42.36-.18.72-.18.36.22.72.22.36-.12.72-.12.36-.18.72-.18.36-.29.72-.29.36.03.72.03.36.13.72.13.36-.02.72-.02.36-.1.72-.1.36.35.72.35.36.19.72.19.36-.03.72-.03.36-.01.72-.01.36-.56.72-.56.36.3.72.3.36-.12.72-.12.36.41.72.41.36,0,.72,0,.36-.06.72-.06.36-.62.72-.62.36.08.72.08.36.22.72.22.36.25.72.25.36.09.72.09.36-.47.72-.47.36.4.72.4.36-.25.72-.25.36.11.72.11.36-.09.72-.09.36.34.72.34.36-.34.72-.34.36.25.72.25.36-.13.72-.13.36-.45.72-.45.36.58.72.58.36-.1.72-.1.36-.12.72-.12.36.09.72.09.36-.36.72-.36.36.38.72.38.36-.39.72-.39.36.61.72.61.36-.02.72-.02.36-.45.72-.45.36.11.72.11.36-.11.72-.11.36,0,.72,0,.36-.15.72-.15.36.56.72.56.36-.31.72-.31.36.25.72.25.36-.15.72-.15.36.07.72.07.36-.18.72-.18.36.31.72.31.36-.51.72-.51.36,0,.72,0,.36.07.72.07.36.44.72.44.36-.35.72-.35.36-.02.72-.02.36.24.72.24.36,0,.72,0,.36-.11.72-.11.36.27.72.27.36.01.72.01.36-.62.72-.62.36-.01.72-.01.36.39.72.39.36-.03.72-.03.36.2.72.2.36-.12.72-.12.36-.2.72-.2.36-.26.72-.26.36-.04.72-.04.36.67.72.67.36.02.72.02.36-.26.72-.26.36.21.72.21.36-.14.72-.14.36-.19.72-.19.36.07.72.07.36-.03.72-.03.36.14.72.14.36-.32.72-.32.36.38.72.38.36.05.72.05.36-.42.72-.42.36.5.72.5.36,0,.72,0,.36-.11.72-.11.36-.06.72-.06.36.06.72.06.36-.19.72-.19.36-.18.72-.18.36.02.72.02.36.45.72.45.36-.33.72-.33.36.26.72.26.36-.46.72-.46.36-.09.72-.09.36.54.72.54.36.1.72.1.36-.27.72-.27.36,0,.72,0,.36.17.72.17.36.1.72.1.36-.6.72-.6.36.31.72.31.36.25.72.25.36-.14.72-.14.36-.42.72-.42.36-.02.72-.02.36-.02.72-.02.36.06.72.06.36.09.72.09.36-.03.72-.03.36-.05.72-.05.36.49.72.49.36-.12.72-.12.36.05.72.05.36-.25.72-.25.36.09.72.09.36.29.72.29.36-.46.72-.46.36.33.72.33.36.05.72.05.36,0,.72,0,.36-.45.72-.45.36.28.72.28.36-.28.72-.28.36.25.72.25.36-.28.72-.28.36-.11.72-.11.36.2.72.2.36-.17.72-.17.36.2.72.2.36.08.72.08.36.07.72.07.36-.2.72-.2.36-.17.72-.17.36.6.72.6.36-.23.72-.23.36.21.72.21.36-.28.72-.28.36-.22.72-.22.36.48.72.48.36-.34.72-.34.36.28.72.28.36-.47.72-.47.36.22.72.22.36-.03.72-.03.36.29.72.29.36-.27.72-.27.36-.14.72-.14.36.15.72.15.36.39.72.39.36-.4.72-.4.36-.06.72-.06.36-.03.72-.03.36.06.72.06.36.1.72.1.36-.23.72-.23.36.3.72.3.36.12.72.12.36-.21.72-.21.36.4.72.4.36-.53.72-.53.36.12.72.12.36-.1.72-.1.36-.01.72-.01.36.26.72.26.36.08.72.08.36.06.72.06.36-.25.72-.25.36.14.72.14.36-.42.72-.42.36.65.72.65.36-.5.72-.5.36.32.72.32.36-.31.72-.31.36.21.72.21.36-.28.72-.28.36.27.72.27.36-.26.72-.26.36.42.72.42.36-.1.72-.1.36-.26.72-.26.36-.01.72-.01.36-.18.72-.18.36.62.72.62.36-.52.72-.52.36-.12.72-.12.36.36.72.36.36-.05.72-.05.36.15.72.15.36-.32.72-.32.36-.05.72-.05.36.32.72.32.36.19.72.19.36-.08.72-.08.36.15.72.15.36-.28.72-.28.36-.03.72-.03.36.11.72.11.36.17.72.17.36.08.72.08.36-.69.72-.69.36.56.72.56.36-.47.72-.47.36.14.72.14.36.02.72.02.36-.12.72-.12.36.32.72.32.36-.09.72-.09.36-.18.72-.18.36.23.72.23.36.21.72.21.36-.06.72-.06.36.12.72.12.36-.22.72-.22.36-.32.72-.32.36.06.72.06.36.3.72.3.36-.49.72-.49.36.19.72.19.36.29.72.29.36-.41.72-.41.36.31.72.31.36.14.72.14.36.04.72.04.36,0,.72,0,.36-.5.72-.5.36.01.72.01.36.3.72.3.36-.32.72-.32.36.15.72.15.36.37.72.37.36.04.72.04.36-.09.72-.09.36-.2.72-.2.36-.05.72-.05.36.12.72.12.36-.28.72-.28.36.11.72.11.36.4.72.4.36,0,.72,0,.36-.05.72-.05.36-.28.72-.28.36-.22.72-.22.36.16.72.16.36.26.72.26.36-.5.72-.5.36.11.72.11.36.3.72.3.36-.02.72-.02.36-.09.72-.09.36.29.72.29.36-.18.72-.18.36-.03.72-.03.36.06.72.06.36-.45.72-.45.36.07.72.07.36.6.72.6.36-.07.72-.07.36-.53.72-.53.36.31.72.31.36.2.72.2.36-.58.72-.58.36.21.72.21.36.09.72.09.36-.12.72-.12.36-.1.72-.1.36.46.72.46.36-.22.72-.22.36-.3.72-.3.36.08.72.08.36.38.72.38.36-.33.72-.33.36-.13.72-.13.36.21.72.21.36-.14.72-.14.36.44.72.44.36-.05.72-.05.36.04.72.04.36,0,.72,0,.36-.51.72-.51.36.47.72.47.36-.41.72-.41.36-.02.72-.02.36.17.72.17.36-.16.72-.16.36.29.72.29.36.29.72.29.36-.06.72-.06.36-.51.72-.51.36.57.72.57.36.03.72.03.36-.48.72-.48.36.28.72.28.36-.24.72-.24.36.06.72.06.36.41.72.41.36-.57.72-.57.36.34.72.34.36-.27.72-.27.36-.11.72-.11.36.37.72.37.36-.05.72-.05.36.28.72.28.36-.26.72-.26.36-.36.72-.36.36.58.72.58.36-.14.72-.14.36-.28.72-.28.36-.22.72-.22.36.59.72.59.36-.27.72-.27.36-.16.72-.16.36.23.72.23.36-.31.72-.31.36.13.72.13.36-.19.72-.19.36,0,.72,0,.36.67.72.67.36-.44.72-.44.36.36.72.36.36,0,.72,0,.36-.23.72-.23.36-.3.72-.3.36.32.72.32.36.21.72.21.36-.12.72-.12.36-.38.72-.38.36.2.72.2.36.29.72.29.36-.4.72-.4.36.1.72.1.36.25.72.25.36.05.72.05.36-.39.72-.39.36.21.72.21.36.07.72.07.36.11.72.11.36-.59.72-.59.36.7.72.7.36-.5.72-.5.36.45.72.45.36.06.72.06.36-.2.72-.2.36-.31.72-.31.36-.04.72-.04.36.36.72.36.36-.47.72-.47.36.58.72.58.36-.12.72-.12.36-.13.72-.13.36-.34.72-.34.36.31.72.31.36-.23.72-.23.36-.03.72-.03.36.17.72.17.36-.24.72-.24.36.37.72.37.36-.37.72-.37.36.16.72.16.36.53.72.53.36-.03.72-.03.36-.52.72-.52.36.4.72.4.36-.35.72-.35.36.04.72.04.36.1.72.1.36.36.72.36.36-.49.72-.49.36.07.72.07.36.06.72.06.36-.19.72-.19.36.33.72.33.36-.16.72-.16.36-.01.72-.01.36.07.72.07.36-.02.72-.02.36-.29.72-.29.36.02.72.02.36-.07.72-.07.36.4.72.4.36-.23.72-.23.36-.12.72-.12.36.11.72.11.36-.04.72-.04.36.17.72.17.36-.31.72-.31.36.35.72.35.36-.3.72-.3.36.48.72.48.36.05.72.05.36-.58.72-.58.36.06.72.06.36.38.72.38.36.1.72.1.36-.43.72-.43.36.22.72.22.36.27.72.27.36.06.72.06.36-.41.72-.41.36.25.72.25.36-.17.72-.17.36-.13.72-.13.36.46.72.46.36-.42.72-.42.36.27.72.27.36.19.72.19.36-.24.72-.24.36-.04.72-.04.36-.35.72-.35.36.46.72.46.36-.41.72-.41.36.57.72.57.36,0,.72,0,.36-.44.72-.44.36-.18.72-.18.36.65.72.65.36-.25.72-.25.36.11.72.11.36-.04.72-.04.36-.48.72-.48.36.39.72.39.36-.27.72-.27.36.28.72.28.36.05.72.05.36-.08.72-.08.36-.18.72-.18.36.21.72.21.36.22.72.22.36-.65.72-.65.36,0,.72,0,.36.42.72.42.36-.12.72-.12.36-.2.72-.2.36.22.72.22.36.23.72.23.36.12.72.12.36-.18.72-.18.36-.52.72-.52.36.37.72.37.36.04.72.04.36.03.72.03.36-.45.72-.45.36.46.72.46.36-.09.72-.09.36.29.72.29.36-.36.72-.36.36-.08.72-.08.36-.18.72-.18.36.06.72.06.36-.05.72-.05.36.23.72.23.36-.18.72-.18.36.01.72.01.36-.1.72-.1.36.67.72.67.36-.65.72-.65.36.68.72.68.36-.34.72-.34.36,0,.72,0,.36-.19.72-.19.36.27.72.27.36.17.72.17.36-.26.72-.26.36.05.72.05.36-.24.72-.24.36.06.72.06.36.43.72.43.36-.47.72-.47.36.24.72.24.36.04.72.04.36-.15.72-.15.36.35.72.35.36-.26.72-.26.36-.04.72-.04.36.24.72.24.36-.1.72-.1.36-.26.72-.26.36-.12.72-.12.36.21.72.21.36-.29.72-.29.36.53.72.53.36-.19.72-.19.36.34.72.34.36-.55.72-.55.36.08.72.08.36.06.72.06.36.03.72.03.36.1.72.1.36-.18.72-.18.36.35.72.35.36-.42.72-.42.36.3.72.3.36-.35.72-.35.36.53.72.53.36-.47.72-.47.36-.03.72-.03.36.29.72.29.36.22.72.22.36-.46.72-.46.36.12.72.12.36-.2.72-.2.36.14.72.14.36-.13.72-.13.36.04.72.04.36-.06.72-.06.36.49.72.49.36-.39.72-.39.36.26.72.26.36-.32.72-.32.36.48.72.48.36-.16.72-.16.36.12.72.12.36.02.72.02.36.06.72.06.36-.45.72-.45.36-.1.72-.1.36-.02.72-.02.36.15.72.15.36.07.72.07.36-.11.72-.11.36.31.72.31.36.18.72.18.36-.34.72-.34.36-.13.72-.13.36-.04.72-.04.36.09.72.09.36-.28.72-.28.36.04.72.04.36.62.73.62.36-.15.73-.15.36-.23.73-.23.36.36.72.36.36-.27.72-.27.36-.04.72-.04.36.02.72.02.36.15.72.15.36-.3.72-.3.36.38.72.38.36.06.73.06.36-.24.73-.24.36.1.73.1.36-.07.73-.07.36.24.73.24.36-.14.73-.14.36-.41.73-.41.36.05.73.05.36.1.73.1.36.21.73.21.36-.09.73-.09.36-.14.73-.14.36.43.72.43.36-.38.72-.38.36.21.72.21.36.06.73.06.36-.37.73-.37.36,0,.73,0,.36.16.73.16.36-.3.73-.3.36.33.73.33.36-.36.73-.36.36.09.73.09.37-.03.73-.03.36.5.73.5.36-.1.73-.1.36-.1.73-.1.37.14.73.14.37-.02.73-.02.37.01.73.01.37-.37.73-.37c.24,0,.49.05.73.06s.46.33.7.35.5-.2.74-.17.42.42.66.46.46.12.69.17.46.11.69.17.55-.23.78-.16.56-.14.78-.06.36.44.59.53.46.16.68.26.5.08.71.19.38.33.59.44.4.27.61.39.36.34.56.47.45.19.65.32.51.12.7.27.45.22.63.38.12.6.3.76.51.16.68.33.35.34.52.51.34.34.5.52.29.39.45.57.25.42.4.61.07.54.21.73.37.33.49.53.43.3.55.51.03.53.14.74.62.23.72.45-.07.57.02.79-.04.53.04.76.73.25.81.48-.26.59-.2.82.48.37.54.61-.44.59-.39.83.18.45.22.69.15.46.18.7-.16.49-.15.73.71.44.71.68-.59.49-.59.74c0,.36.54.36.54.71s-.35.36-.35.71-.19.36-.19.71.42.36.42.71-.31.36-.31.71.15.36.15.71.35.36.35.72-.43.36-.43.72-.2.36-.2.72.63.36.63.72-.05.36-.05.72-.16.36-.16.72-.05.36-.05.72.17.36.17.72-.46.36-.46.72.56.36.56.72-.65.36-.65.72-.07.36-.07.72.62.36.62.72-.47.36-.47.72.53.36.53.72-.54.36-.54.72.06.36.06.72.02.36.02.72,0,.36,0,.72.27.36.27.72-.45.36-.45.72.39.36.39.72.26.36.26.72-.29.36-.29.72.14.36.14.72-.03.36-.03.72-.2.36-.2.72-.19.36-.19.72.39.36.39.72-.42.36-.42.72.53.36.53.72-.3.36-.3.72.33.36.33.72-.53.36-.53.72.28.36.28.72,0,.36,0,.72.3.36.3.72-.39.36-.39.72-.27.36-.27.72.69.36.69.72-.46.36-.46.72.03.36.03.72-.12.36-.12.72-.03.36-.03.72.35.36.35.72-.15.36-.15.72.2.36.2.72.04.36.04.72-.47.36-.47.72.44.36.44.72.04.36.04.72.05.36.05.72-.36.36-.36.72-.12.36-.12.72.53.36.53.72-.55.36-.55.72.22.36.22.72.02.36.02.72.23.36.23.72-.25.36-.25.72-.13.36-.13.72.35.36.35.72-.31.36-.31.72,0,.36,0,.72-.17.36-.17.72-.04.36-.04.72.38.36.38.72-.18.36-.18.72.19.36.19.72-.17.36-.17.72.03.36.03.72.36.36.36.72-.4.36-.4.72.04.36.04.72.19.36.19.72-.41.36-.41.72.36.36.36.72.02.36.02.72-.07.36-.07.72-.26.36-.26.72.3.36.3.72.02.36.02.72.19.36.19.72-.34.36-.34.72-.08.36-.08.72.43.36.43.72-.25.36-.25.72-.31.36-.31.72.49.36.49.72-.06.36-.06.72-.43.36-.43.72.01.36.01.72.62.36.62.72-.01.36-.01.72-.61.36-.61.72.54.36.54.72-.52.36-.52.72.04.36.04.72.13.36.13.72-.19.36-.19.72.53.36.53.72-.37.36-.37.72,0,.36,0,.72.35.36.35.72-.05.36-.05.71-.34.36-.34.71.5.36.5.72-.19.36-.19.72.08.36.08.72-.41.36-.41.72.14.36.14.72,0,.36,0,.72.06.36.06.72.06.36.06.72.09.36.09.72.04.36.04.72-.2.36-.2.72-.13.36-.13.72.25.36.25.72-.02.36-.02.72-.29.36-.29.72.37.36.37.72-.18.36-.18.72,0,.36,0,.72-.14.36-.14.72.35.36.35.72-.37.36-.37.72.4.36.4.72-.16.36-.16.72-.29.36-.29.72.26.36.26.72-.03.36-.03.72-.05.36-.05.72-.15.36-.15.72.16.36.16.72-.02.36-.02.72.04.36.04.72-.31.36-.31.72.24.36.24.72-.18.36-.18.72.28.36.28.72-.17.36-.17.72.39.36.39.72-.35.36-.35.72.05.36.05.72-.03.36-.03.72.05.36.05.72.22.36.22.72.03.36.03.72-.11.36-.11.72-.01.36-.01.72.1.36.1.72.16.36.16.72-.66.36-.66.72-.03.36-.03.72.06.36.06.72.48.36.48.72-.04.36-.04.72-.42.36-.42.73.34.36.34.72-.09.36-.09.72-.04.36-.04.73-.08.36-.08.73-.16.36-.16.72.61.36.61.72-.57.36-.57.73.2.36.2.73.26.37.26.73-.04.37-.04.73c0,.24-.29.48-.29.72s.15.49.13.73-.29.45-.32.69.16.51.12.74.04.5,0,.74.07.52.01.75-.16.47-.23.7-.2.46-.27.68-.69.26-.78.49.07.54-.03.76.04.55-.06.77-.35.37-.46.58.02.57-.1.78-.52.26-.65.46-.15.48-.28.68-.52.22-.66.41-.12.52-.27.7-.56.15-.72.33-.22.44-.38.62-.15.53-.33.69-.51.16-.69.32-.5.14-.69.3.04.83-.15.98-.77-.24-.97-.1-.07.77-.27.9-.61-.06-.82.06-.45.18-.66.29-.31.46-.53.56-.53,0-.75.09-.29.59-.51.68-.59-.21-.82-.14-.35.52-.58.59-.56-.21-.79-.15-.42.35-.66.4-.48.11-.72.15-.51-.13-.75-.1-.47.17-.71.19-.5-.33-.74-.32-.47.22-.71.22Z"/></svg>